SourceHebrewSans_1.ufo
<glyph name="exclam.S" format="2">
	<unicode hex="0021"/>
	<advance width="360"/>
	<outline>
		<contour>
			<point x="124" y="244" type="line"/>
			<point x="236" y="244" type="line"/>
			<point x="260" y="470" type="line"/>
			<point x="266" y="588" type="line"/>
			<point x="94" y="588" type="line"/>
			<point x="100" y="470" type="line"/>
		</contour>
		<contour>
			<point x="180" y="-12" type="curve" smooth="yes"/>
			<point x="238" y="-12"/>
			<point x="280" y="34"/>
			<point x="280" y="92" type="curve" smooth="yes"/>
			<point x="280" y="150"/>
			<point x="238" y="196"/>
			<point x="180" y="196" type="curve" smooth="yes"/>
			<point x="122" y="196"/>
			<point x="80" y="150"/>
			<point x="80" y="92" type="curve" smooth="yes"/>
			<point x="80" y="34"/>
			<point x="122" y="-12"/>
		</contour>
	</outline>
</glyph>
<glyph name="dollar.S" format="2">
	<unicode hex="0024"/>
	<advance width="540"/>
	<outline>
		<contour>
			<point x="246" y="-12" type="curve" smooth="yes"/>
			<point x="404" y="-12"/>
			<point x="480" y="63"/>
			<point x="480" y="164" type="curve" smooth="yes"/>
			<point x="480" y="326"/>
			<point x="222" y="328"/>
			<point x="222" y="382" type="curve" smooth="yes"/>
			<point x="222" y="414"/>
			<point x="243" y="424"/>
			<point x="286" y="424" type="curve" smooth="yes"/>
			<point x="320" y="424"/>
			<point x="352" y="414"/>
			<point x="384" y="386" type="curve"/>
			<point x="475" y="492" type="line"/>
			<point x="426" y="544"/>
			<point x="364" y="580"/>
			<point x="276" y="580" type="curve" smooth="yes"/>
			<point x="141" y="580"/>
			<point x="58" y="516"/>
			<point x="58" y="412" type="curve" smooth="yes"/>
			<point x="58" y="254"/>
			<point x="316" y="246"/>
			<point x="316" y="190" type="curve" smooth="yes"/>
			<point x="316" y="158"/>
			<point x="296" y="144"/>
			<point x="246" y="144" type="curve" smooth="yes"/>
			<point x="206" y="144"/>
			<point x="164" y="153"/>
			<point x="114" y="190" type="curve"/>
			<point x="34" y="66" type="line"/>
			<point x="94" y="12"/>
			<point x="186" y="-12"/>
		</contour>
		<contour>
			<point x="212" y="-110" type="line"/>
			<point x="324" y="-110" type="line"/>
			<point x="324" y="60" type="line"/>
			<point x="212" y="60" type="line"/>
		</contour>
		<contour>
			<point x="212" y="528" type="line"/>
			<point x="324" y="528" type="line"/>
			<point x="324" y="678" type="line"/>
			<point x="212" y="678" type="line"/>
		</contour>
	</outline>
</glyph>
<glyph name="gampersand" format="2">
	<unicode hex="0026"/>
	<advance width="580"/>
	<outline>
		<contour>
			<point x="4" y="-98" type="curve"/>
			<point x="164" y="-82" type="line"/>
			<point x="164" y="141"/>
			<point x="305" y="214"/>
			<point x="364" y="214" type="curve" smooth="yes"/>
			<point x="404" y="214"/>
			<point x="426" y="203"/>
			<point x="426" y="176" type="curve" smooth="yes"/>
			<point x="426" y="141"/>
			<point x="394" y="128"/>
			<point x="358" y="128" type="curve" smooth="yes"/>
			<point x="307" y="128"/>
			<point x="240" y="150"/>
			<point x="240" y="260" type="curve" smooth="yes"/>
			<point x="240" y="354"/>
			<point x="314" y="386"/>
			<point x="418" y="386" type="curve" smooth="yes"/>
			<point x="480" y="386" type="line"/>
			<point x="506" y="508" type="line"/>
			<point x="401" y="552"/>
			<point x="343" y="584"/>
			<point x="310" y="680" type="curve"/>
			<point x="140" y="654" type="line"/>
			<point x="176" y="555"/>
			<point x="243" y="528"/>
			<point x="340" y="494" type="curve"/>
			<point x="400" y="528" type="line"/>
			<point x="257" y="528"/>
			<point x="112" y="443"/>
			<point x="112" y="260" type="curve" smooth="yes"/>
			<point x="112" y="73"/>
			<point x="238" y="-12"/>
			<point x="362" y="-12" type="curve" smooth="yes"/>
			<point x="473" y="-12"/>
			<point x="554" y="54"/>
			<point x="554" y="170" type="curve" smooth="yes"/>
			<point x="554" y="284"/>
			<point x="480" y="334"/>
			<point x="374" y="334" type="curve" smooth="yes"/>
			<point x="220" y="334"/>
			<point x="4" y="183"/>
		</contour>
	</outline>
</glyph>
<glyph name="two.S" format="2">
	<unicode hex="0032"/>
	<advance width="540"/>
	<outline>
		<contour>
			<point x="48" y="0" type="line"/>
			<point x="486" y="0" type="line"/>
			<point x="486" y="144" type="line"/>
			<point x="402" y="144" type="line" smooth="yes"/>
			<point x="374" y="144"/>
			<point x="324" y="140"/>
			<point x="292" y="136" type="curve"/>
			<point x="408" y="230"/>
			<point x="470" y="310"/>
			<point x="470" y="408" type="curve" smooth="yes"/>
			<point x="470" y="510"/>
			<point x="384" y="580"/>
			<point x="250" y="580" type="curve" smooth="yes"/>
			<point x="174" y="580"/>
			<point x="122" y="570"/>
			<point x="54" y="530" type="curve"/>
			<point x="92" y="404" type="line"/>
			<point x="146" y="430"/>
			<point x="178" y="440"/>
			<point x="226" y="440" type="curve" smooth="yes"/>
			<point x="271" y="440"/>
			<point x="304" y="416"/>
			<point x="304" y="372" type="curve" smooth="yes"/>
			<point x="304" y="320"/>
			<point x="254" y="260"/>
			<point x="48" y="108" type="curve"/>
		</contour>
	</outline>
</glyph>
<glyph name="three.S" format="2">
	<unicode hex="0033"/>
	<advance width="540"/>
	<outline>
		<contour>
			<point x="238" y="-52" type="curve" smooth="yes"/>
			<point x="373" y="-52"/>
			<point x="486" y="6"/>
			<point x="486" y="128" type="curve" smooth="yes"/>
			<point x="486" y="212"/>
			<point x="439" y="251"/>
			<point x="370" y="270" type="curve"/>
			<point x="370" y="274" type="line"/>
			<point x="431" y="301"/>
			<point x="466" y="348"/>
			<point x="466" y="416" type="curve" smooth="yes"/>
			<point x="466" y="526"/>
			<point x="373" y="580"/>
			<point x="240" y="580" type="curve" smooth="yes"/>
			<point x="166" y="580"/>
			<point x="114" y="570"/>
			<point x="46" y="534" type="curve"/>
			<point x="84" y="414" type="line"/>
			<point x="140" y="440"/>
			<point x="176" y="446"/>
			<point x="226" y="446" type="curve" smooth="yes"/>
			<point x="273" y="446"/>
			<point x="300" y="428"/>
			<point x="300" y="392" type="curve" smooth="yes"/>
			<point x="300" y="347"/>
			<point x="266" y="324"/>
			<point x="160" y="324" type="curve"/>
			<point x="160" y="204" type="line"/>
			<point x="292" y="204"/>
			<point x="320" y="178"/>
			<point x="320" y="142" type="curve" smooth="yes"/>
			<point x="320" y="104"/>
			<point x="285" y="82"/>
			<point x="224" y="82" type="curve" smooth="yes"/>
			<point x="168" y="82"/>
			<point x="132" y="86"/>
			<point x="72" y="114" type="curve"/>
			<point x="34" y="-6" type="line"/>
			<point x="104" y="-44"/>
			<point x="158" y="-52"/>
		</contour>
	</outline>
</glyph>
<glyph name="four.S" format="2">
	<unicode hex="0034"/>
	<advance width="540"/>
	<outline>
		<contour>
			<point x="302" y="-46" type="line"/>
			<point x="450" y="-46" type="line"/>
			<point x="450" y="568" type="line"/>
			<point x="236" y="568" type="line"/>
			<point x="20" y="204" type="line"/>
			<point x="20" y="82" type="line"/>
			<point x="518" y="82" type="line"/>
			<point x="518" y="240" type="line"/>
			<point x="190" y="240" type="line"/>
			<point x="240" y="326" type="line"/>
			<point x="260" y="362"/>
			<point x="286" y="412"/>
			<point x="304" y="448" type="curve"/>
			<point x="308" y="448" type="line"/>
			<point x="306" y="404"/>
			<point x="302" y="342"/>
			<point x="302" y="298" type="curve" smooth="yes"/>
		</contour>
	</outline>
</glyph>
<glyph name="five.S" format="2">
	<unicode hex="0035"/>
	<advance width="540"/>
	<outline>
		<contour>
			<point x="252" y="-78" type="curve" smooth="yes"/>
			<point x="370" y="-78"/>
			<point x="472" y="4"/>
			<point x="472" y="146" type="curve" smooth="yes"/>
			<point x="472" y="277"/>
			<point x="382" y="338"/>
			<point x="278" y="338" type="curve" smooth="yes"/>
			<point x="257" y="338"/>
			<point x="241" y="336"/>
			<point x="218" y="328" type="curve"/>
			<point x="224" y="396" type="line"/>
			<point x="464" y="396" type="line"/>
			<point x="464" y="568" type="line"/>
			<point x="88" y="568" type="line"/>
			<point x="72" y="238" type="line"/>
			<point x="146" y="190" type="line"/>
			<point x="192" y="216"/>
			<point x="213" y="220"/>
			<point x="256" y="220" type="curve" smooth="yes"/>
			<point x="298" y="220"/>
			<point x="328" y="200"/>
			<point x="328" y="162" type="curve" smooth="yes"/>
			<point x="328" y="119"/>
			<point x="298" y="98"/>
			<point x="246" y="98" type="curve" smooth="yes"/>
			<point x="198" y="98"/>
			<point x="146" y="115"/>
			<point x="116" y="142" type="curve"/>
			<point x="36" y="8" type="line"/>
			<point x="84" y="-42"/>
			<point x="150" y="-78"/>
		</contour>
	</outline>
</glyph>
<glyph name="six.S" format="2">
	<unicode hex="0036"/>
	<advance width="540"/>
	<outline>
		<contour>
			<point x="288" y="-12" type="curve" smooth="yes"/>
			<point x="403" y="-12"/>
			<point x="498" y="64"/>
			<point x="498" y="204" type="curve" smooth="yes"/>
			<point x="498" y="336"/>
			<point x="414" y="396"/>
			<point x="316" y="396" type="curve" smooth="yes"/>
			<point x="256" y="396"/>
			<point x="200" y="375"/>
			<point x="170" y="328" type="curve"/>
			<point x="178" y="200" type="line"/>
			<point x="209" y="249"/>
			<point x="244" y="268"/>
			<point x="288" y="268" type="curve" smooth="yes"/>
			<point x="329" y="268"/>
			<point x="354" y="246"/>
			<point x="354" y="200" type="curve" smooth="yes"/>
			<point x="354" y="161"/>
			<point x="323" y="134"/>
			<point x="284" y="134" type="curve" smooth="yes"/>
			<point x="240" y="134"/>
			<point x="184" y="159"/>
			<point x="184" y="296" type="curve" smooth="yes"/>
			<point x="184" y="428"/>
			<point x="244" y="474"/>
			<point x="316" y="474" type="curve" smooth="yes"/>
			<point x="358" y="474"/>
			<point x="386" y="470"/>
			<point x="430" y="448" type="curve"/>
			<point x="488" y="574" type="line"/>
			<point x="432" y="608"/>
			<point x="380" y="620"/>
			<point x="306" y="620" type="curve" smooth="yes"/>
			<point x="166" y="620"/>
			<point x="42" y="524"/>
			<point x="42" y="296" type="curve" smooth="yes"/>
			<point x="42" y="68"/>
			<point x="166" y="-12"/>
		</contour>
	</outline>
</glyph>
<glyph name="seven.S" format="2">
	<unicode hex="0037"/>
	<advance width="540"/>
	<outline>
		<contour>
			<point x="162" y="-42" type="curve"/>
			<point x="324" y="-42" type="line"/>
			<point x="334" y="192"/>
			<point x="356" y="280"/>
			<point x="498" y="446" type="curve"/>
			<point x="498" y="568" type="line"/>
			<point x="44" y="568" type="line"/>
			<point x="44" y="396" type="line"/>
			<point x="316" y="396" type="line"/>
			<point x="204" y="240"/>
			<point x="174" y="148"/>
		</contour>
	</outline>
</glyph>
<glyph name="eight.S" format="2">
	<unicode hex="0038"/>
	<advance width="540"/>
	<outline>
		<contour>
			<point x="274" y="-12" type="curve" smooth="yes"/>
			<point x="406" y="-12"/>
			<point x="490" y="64"/>
			<point x="490" y="160" type="curve" smooth="yes"/>
			<point x="490" y="242"/>
			<point x="450" y="286"/>
			<point x="391" y="317" type="curve"/>
			<point x="391" y="321" type="line"/>
			<point x="440" y="350"/>
			<point x="474" y="398"/>
			<point x="474" y="458" type="curve" smooth="yes"/>
			<point x="474" y="560"/>
			<point x="392" y="624"/>
			<point x="270" y="624" type="curve" smooth="yes"/>
			<point x="152" y="624"/>
			<point x="68" y="560"/>
			<point x="68" y="454" type="curve" smooth="yes"/>
			<point x="68" y="390"/>
			<point x="98" y="346"/>
			<point x="146" y="310" type="curve"/>
			<point x="146" y="306" type="line"/>
			<point x="88" y="274"/>
			<point x="48" y="228"/>
			<point x="48" y="152" type="curve" smooth="yes"/>
			<point x="48" y="54"/>
			<point x="142" y="-12"/>
		</contour>
		<contour>
			<point x="306" y="362" type="curve"/>
			<point x="246" y="386"/>
			<point x="212" y="400"/>
			<point x="212" y="434" type="curve" smooth="yes"/>
			<point x="212" y="464"/>
			<point x="236" y="478"/>
			<point x="266" y="478" type="curve" smooth="yes"/>
			<point x="306" y="478"/>
			<point x="330" y="458"/>
			<point x="330" y="426" type="curve" smooth="yes"/>
			<point x="330" y="406"/>
			<point x="323" y="386"/>
		</contour>
		<contour>
			<point x="278" y="134" type="curve" smooth="yes"/>
			<point x="232" y="134"/>
			<point x="192" y="154"/>
			<point x="192" y="196" type="curve" smooth="yes"/>
			<point x="192" y="224"/>
			<point x="204" y="238"/>
			<point x="224" y="260" type="curve"/>
			<point x="302" y="226"/>
			<point x="346" y="220"/>
			<point x="346" y="182" type="curve" smooth="yes"/>
			<point x="346" y="148"/>
			<point x="316" y="134"/>
		</contour>
	</outline>
</glyph>
<glyph name="nine.S" format="2">
	<unicode hex="0039"/>
	<advance width="540"/>
	<outline>
		<contour>
			<point x="232" y="-54" type="curve" smooth="yes"/>
			<point x="366" y="-54"/>
			<point x="488" y="50"/>
			<point x="488" y="272" type="curve" smooth="yes"/>
			<point x="488" y="495"/>
			<point x="367" y="580"/>
			<point x="250" y="580" type="curve" smooth="yes"/>
			<point x="139" y="580"/>
			<point x="46" y="498"/>
			<point x="46" y="366" type="curve" smooth="yes"/>
			<point x="46" y="236"/>
			<point x="128" y="178"/>
			<point x="224" y="178" type="curve" smooth="yes"/>
			<point x="280" y="178"/>
			<point x="334" y="204"/>
			<point x="362" y="258" type="curve"/>
			<point x="354" y="366" type="line"/>
			<point x="324" y="316"/>
			<point x="288" y="298"/>
			<point x="248" y="298" type="curve" smooth="yes"/>
			<point x="206" y="298"/>
			<point x="182" y="316"/>
			<point x="182" y="356" type="curve" smooth="yes"/>
			<point x="182" y="392"/>
			<point x="206" y="414"/>
			<point x="246" y="414" type="curve" smooth="yes"/>
			<point x="294" y="414"/>
			<point x="352" y="390"/>
			<point x="352" y="272" type="curve" smooth="yes"/>
			<point x="352" y="154"/>
			<point x="304" y="112"/>
			<point x="236" y="112" type="curve" smooth="yes"/>
			<point x="196" y="112"/>
			<point x="164" y="118"/>
			<point x="124" y="142" type="curve"/>
			<point x="46" y="12" type="line"/>
			<point x="104" y="-38"/>
			<point x="166" y="-54"/>
		</contour>
	</outline>
</glyph>
<glyph name="question.S" format="2">
	<unicode hex="003F"/>
	<advance width="478"/>
	<outline>
		<contour>
			<point x="152" y="254" type="curve"/>
			<point x="302" y="254" type="line"/>
			<point x="302" y="286"/>
			<point x="430" y="346"/>
			<point x="430" y="448" type="curve" smooth="yes"/>
			<point x="430" y="544"/>
			<point x="352" y="610"/>
			<point x="230" y="610" type="curve" smooth="yes"/>
			<point x="162" y="610"/>
			<point x="120" y="602"/>
			<point x="54" y="566" type="curve"/>
			<point x="92" y="446" type="line"/>
			<point x="138" y="468"/>
			<point x="168" y="476"/>
			<point x="206" y="476" type="curve" smooth="yes"/>
			<point x="240" y="476"/>
			<point x="266" y="454"/>
			<point x="266" y="420" type="curve" smooth="yes"/>
			<point x="266" y="355"/>
			<point x="152" y="334"/>
		</contour>
		<contour>
			<point x="226" y="-12" type="curve" smooth="yes"/>
			<point x="284" y="-12"/>
			<point x="326" y="34"/>
			<point x="326" y="92" type="curve" smooth="yes"/>
			<point x="326" y="150"/>
			<point x="284" y="196"/>
			<point x="226" y="196" type="curve" smooth="yes"/>
			<point x="168" y="196"/>
			<point x="126" y="150"/>
			<point x="126" y="92" type="curve" smooth="yes"/>
			<point x="126" y="34"/>
			<point x="168" y="-12"/>
		</contour>
	</outline>
</glyph>
<glyph name="bracketright" format="2">
	<unicode hex="005D"/>
	<advance width="360"/>
	<outline>
		<contour>
			<point x="52" y="-152" type="line"/>
			<point x="276" y="-152" type="line"/>
			<point x="276" y="708" type="line"/>
			<point x="52" y="708" type="line"/>
			<point x="52" y="618" type="line"/>
			<point x="148" y="618" type="line"/>
			<point x="148" y="-62" type="line"/>
			<point x="52" y="-62" type="line"/>
		</contour>
	</outline>
</glyph>
<glyph name="underscore" format="2">
	<unicode hex="005F"/>
	<advance width="500"/>
	<outline>
		<contour>
			<point x="12" y="-146" type="line"/>
			<point x="488" y="-146" type="line"/>
			<point x="488" y="-52" type="line"/>
			<point x="12" y="-52" type="line"/>
		</contour>
	</outline>
</glyph>
<glyph name="i" format="2">
	<unicode hex="0069"/>
	<advance width="288"/>
	<outline>
		<contour>
			<point x="58" y="0" type="line"/>
			<point x="230" y="0" type="line"/>
			<point x="230" y="500" type="line"/>
			<point x="58" y="500" type="line"/>
		</contour>
		<contour>
			<point x="144" y="562" type="curve" smooth="yes"/>
			<point x="198" y="562"/>
			<point x="236" y="598"/>
			<point x="236" y="648" type="curve" smooth="yes"/>
			<point x="236" y="698"/>
			<point x="198" y="734"/>
			<point x="144" y="734" type="curve" smooth="yes"/>
			<point x="90" y="734"/>
			<point x="52" y="698"/>
			<point x="52" y="648" type="curve" smooth="yes"/>
			<point x="52" y="598"/>
			<point x="90" y="562"/>
		</contour>
	</outline>
	<anchor name="aboveUC" x="144" y="730"/>
	<anchor name="belowLC" x="144" y="-20"/>
	<anchor name="ogonekLC" x="190" y="0"/>
	<anchor name="baseLC" x="144" y="0"/>
</glyph>
<glyph name="j" format="2">
	<unicode hex="006A"/>
	<advance width="290"/>
	<outline>
		<contour>
			<point x="38" y="-188" type="curve" smooth="yes"/>
			<point x="188" y="-188"/>
			<point x="232" y="-86"/>
			<point x="232" y="26" type="curve" smooth="yes"/>
			<point x="232" y="500" type="line"/>
			<point x="60" y="500" type="line"/>
			<point x="60" y="20" type="line" smooth="yes"/>
			<point x="60" y="-34"/>
			<point x="46" y="-54"/>
			<point x="10" y="-54" type="curve" smooth="yes"/>
			<point x="-2" y="-54"/>
			<point x="-12" y="-52"/>
			<point x="-26" y="-48" type="curve"/>
			<point x="-56" y="-174" type="line"/>
			<point x="-34" y="-182"/>
			<point x="-8" y="-188"/>
		</contour>
		<component base="dotaccentcmb" xOffset="146"/>
	</outline>
	<anchor name="aboveLC" x="144" y="722"/>
	<anchor name="belowLC" x="90" y="-182"/>
</glyph>
<glyph name="sterling.S" format="2">
	<unicode hex="00A3"/>
	<advance width="540"/>
	<outline>
		<contour>
			<point x="46" y="0" type="line"/>
			<point x="514" y="0" type="line"/>
			<point x="514" y="156" type="line"/>
			<point x="264" y="156" type="line"/>
			<point x="264" y="160" type="line"/>
			<point x="284" y="190"/>
			<point x="292" y="214"/>
			<point x="292" y="248" type="curve" smooth="yes"/>
			<point x="292" y="286"/>
			<point x="264" y="322"/>
			<point x="264" y="356" type="curve" smooth="yes"/>
			<point x="264" y="405"/>
			<point x="292" y="424"/>
			<point x="332" y="424" type="curve" smooth="yes"/>
			<point x="358" y="424"/>
			<point x="380" y="412"/>
			<point x="402" y="386" type="curve"/>
			<point x="514" y="496" type="line"/>
			<point x="464" y="555"/>
			<point x="398" y="580"/>
			<point x="314" y="580" type="curve" smooth="yes"/>
			<point x="197" y="580"/>
			<point x="110" y="514"/>
			<point x="110" y="406" type="curve" smooth="yes"/>
			<point x="110" y="359"/>
			<point x="152" y="300"/>
			<point x="152" y="250" type="curve" smooth="yes"/>
			<point x="152" y="180"/>
			<point x="102" y="130"/>
			<point x="46" y="106" type="curve"/>
		</contour>
		<contour>
			<point x="52" y="232" type="line"/>
			<point x="424" y="232" type="line"/>
			<point x="424" y="336" type="line"/>
			<point x="120" y="336" type="line"/>
			<point x="52" y="330" type="line"/>
		</contour>
	</outline>
</glyph>
<glyph name="yen.S" format="2">
	<unicode hex="00A5"/>
	<advance width="540"/>
	<outline>
		<contour>
			<point x="184" y="0" type="line"/>
			<point x="356" y="0" type="line"/>
			<point x="356" y="120" type="line"/>
			<point x="506" y="120" type="line"/>
			<point x="506" y="204" type="line"/>
			<point x="356" y="204" type="line"/>
			<point x="356" y="248" type="line"/>
			<point x="506" y="248" type="line"/>
			<point x="506" y="332" type="line"/>
			<point x="392" y="332" type="line"/>
			<point x="532" y="568" type="line"/>
			<point x="360" y="568" type="line"/>
			<point x="328" y="490" type="line" smooth="yes"/>
			<point x="310" y="446"/>
			<point x="289" y="400"/>
			<point x="274" y="356" type="curve"/>
			<point x="270" y="356" type="line"/>
			<point x="254" y="400"/>
			<point x="234" y="446"/>
			<point x="216" y="490" type="curve" smooth="yes"/>
			<point x="184" y="568" type="line"/>
			<point x="8" y="568" type="line"/>
			<point x="148" y="332" type="line"/>
			<point x="34" y="332" type="line"/>
			<point x="34" y="248" type="line"/>
			<point x="184" y="248" type="line"/>
			<point x="184" y="204" type="line"/>
			<point x="34" y="204" type="line"/>
			<point x="34" y="120" type="line"/>
			<point x="184" y="120" type="line"/>
		</contour>
	</outline>
</glyph>
<glyph name="periodcentered" format="2">
	<unicode hex="00B7"/>
	<advance width="320"/>
	<outline>
		<contour>
			<point x="160" y="216" type="curve" smooth="yes"/>
			<point x="218" y="216"/>
			<point x="260" y="262"/>
			<point x="260" y="320" type="curve" smooth="yes"/>
			<point x="260" y="378"/>
			<point x="218" y="424"/>
			<point x="160" y="424" type="curve" smooth="yes"/>
			<point x="102" y="424"/>
			<point x="60" y="378"/>
			<point x="60" y="320" type="curve" smooth="yes"/>
			<point x="60" y="262"/>
			<point x="102" y="216"/>
		</contour>
	</outline>
</glyph>
<glyph name="Oslash" format="2">
	<unicode hex="00D8"/>
	<advance width="692"/>
	<outline>
		<contour>
			<point x="124" y="-46" type="line"/>
			<point x="676" y="628" type="line"/>
			<point x="588" y="696" type="line"/>
			<point x="36" y="22" type="line"/>
		</contour>
		<component base="O"/>
	</outline>
	<anchor name="aboveUC" x="346" y="670"/>
	<anchor name="baseLC" x="346" y="0"/>
</glyph>
<glyph name="dotlessi" format="2">
	<unicode hex="0131"/>
	<advance width="288"/>
	<outline>
		<contour>
			<point x="58" y="0" type="line"/>
			<point x="230" y="0" type="line"/>
			<point x="230" y="500" type="line"/>
			<point x="58" y="500" type="line"/>
		</contour>
	</outline>
	<anchor name="aboveLC" x="144" y="522"/>
	<anchor name="belowLC" x="144" y="-22"/>
	<anchor name="ogonekLC" x="140" y="0"/>
</glyph>
<glyph name="Lslash" format="2">
	<unicode hex="0141"/>
	<advance width="538"/>
	<outline>
		<contour>
			<point x="28" y="166" type="line"/>
			<point x="99" y="210" type="line"/>
			<point x="235" y="268" type="line"/>
			<point x="460" y="392" type="line"/>
			<point x="402" y="494" type="line"/>
			<point x="235" y="400" type="line"/>
			<point x="99" y="342" type="line"/>
			<point x="-30" y="268" type="line"/>
		</contour>
		<component base="L" xOffset="8"/>
	</outline>
	<anchor name="aboveUC" x="269" y="670"/>
	<anchor name="belowLC" x="269" y="-20"/>
</glyph>
<glyph name="primemod" format="2">
	<unicode hex="02B9"/>
	<advance width="320"/>
	<outline>
		<contour>
			<point x="182" y="384" type="line"/>
			<point x="248" y="560" type="line"/>
			<point x="282" y="696" type="line"/>
			<point x="112" y="710" type="line"/>
			<point x="70" y="392" type="line"/>
		</contour>
	</outline>
</glyph>
<glyph name="heHatafSegol" format="2">
	<unicode hex="05B1"/>
	<outline>
		<contour>
			<point x="90" y="-261"/>
			<point x="106" y="-280"/>
			<point x="130" y="-280" type="curve" smooth="yes"/>
			<point x="154" y="-280"/>
			<point x="170" y="-261"/>
			<point x="170" y="-239" type="curve" smooth="yes"/>
			<point x="170" y="-215"/>
			<point x="154" y="-199"/>
			<point x="130" y="-199" type="curve" smooth="yes"/>
			<point x="106" y="-199"/>
			<point x="90" y="-215"/>
			<point x="90" y="-239" type="curve" smooth="yes"/>
		</contour>
		<contour>
			<point x="90" y="-137"/>
			<point x="106" y="-153"/>
			<point x="130" y="-153" type="curve" smooth="yes"/>
			<point x="154" y="-153"/>
			<point x="170" y="-137"/>
			<point x="170" y="-114" type="curve" smooth="yes"/>
			<point x="170" y="-91"/>
			<point x="154" y="-73"/>
			<point x="130" y="-73" type="curve" smooth="yes"/>
			<point x="106" y="-73"/>
			<point x="90" y="-91"/>
			<point x="90" y="-114" type="curve" smooth="yes"/>
		</contour>
		<contour>
			<point x="-40" y="-137"/>
			<point x="-21" y="-153"/>
			<point x="1" y="-153" type="curve" smooth="yes"/>
			<point x="25" y="-153"/>
			<point x="41" y="-137"/>
			<point x="41" y="-114" type="curve" smooth="yes"/>
			<point x="41" y="-91"/>
			<point x="25" y="-73"/>
			<point x="1" y="-73" type="curve" smooth="yes"/>
			<point x="-21" y="-73"/>
			<point x="-40" y="-91"/>
			<point x="-40" y="-114" type="curve" smooth="yes"/>
		</contour>
		<contour>
			<point x="-104" y="-261"/>
			<point x="-87" y="-280"/>
			<point x="-63" y="-280" type="curve" smooth="yes"/>
			<point x="-42" y="-280"/>
			<point x="-25" y="-261"/>
			<point x="-25" y="-239" type="curve" smooth="yes"/>
			<point x="-25" y="-215"/>
			<point x="-42" y="-199"/>
			<point x="-63" y="-199" type="curve" smooth="yes"/>
			<point x="-87" y="-199"/>
			<point x="-104" y="-215"/>
			<point x="-104" y="-239" type="curve" smooth="yes"/>
		</contour>
		<contour>
			<point x="-168" y="-137"/>
			<point x="-152" y="-153"/>
			<point x="-130" y="-153" type="curve" smooth="yes"/>
			<point x="-106" y="-153"/>
			<point x="-92" y="-137"/>
			<point x="-92" y="-114" type="curve" smooth="yes"/>
			<point x="-92" y="-91"/>
			<point x="-106" y="-73"/>
			<point x="-130" y="-73" type="curve" smooth="yes"/>
			<point x="-152" y="-73"/>
			<point x="-168" y="-91"/>
			<point x="-168" y="-114" type="curve" smooth="yes"/>
		</contour>
	</outline>
	<anchor name="_belowPrimaryHE" x="0" y="-22"/>
	<anchor name="_belowLeftHE" x="-150" y="-22"/>
	<anchor name="belowPrimaryHE" x="-245" y="-22"/>
	<anchor name="_belowSecondaryHE" x="70" y="-22"/>
</glyph>
<glyph name="heHatafQamats" format="2">
	<unicode hex="05B3"/>
	<outline>
		<contour>
			<point x="114" y="-73" type="curve" smooth="yes"/>
			<point x="91" y="-73"/>
			<point x="70" y="-91"/>
			<point x="70" y="-117" type="curve" smooth="yes"/>
			<point x="70" y="-144"/>
			<point x="91" y="-161"/>
			<point x="114" y="-161" type="curve" smooth="yes"/>
			<point x="137" y="-161"/>
			<point x="158" y="-145"/>
			<point x="158" y="-117" type="curve" smooth="yes"/>
			<point x="158" y="-91"/>
			<point x="137" y="-73"/>
		</contour>
		<contour>
			<point x="114" y="-199" type="curve" smooth="yes"/>
			<point x="91" y="-199"/>
			<point x="70" y="-217"/>
			<point x="70" y="-243" type="curve" smooth="yes"/>
			<point x="70" y="-270"/>
			<point x="91" y="-287"/>
			<point x="114" y="-287" type="curve" smooth="yes"/>
			<point x="137" y="-287"/>
			<point x="158" y="-271"/>
			<point x="158" y="-243" type="curve" smooth="yes"/>
			<point x="158" y="-217"/>
			<point x="137" y="-199"/>
		</contour>
		<contour>
			<point x="20" y="-80" type="line"/>
			<point x="-141" y="-80" type="line"/>
			<point x="-141" y="-132" type="line"/>
			<point x="-81" y="-132" type="line"/>
			<point x="-90" y="-234" type="line"/>
			<point x="-28" y="-234" type="line"/>
			<point x="-37" y="-132" type="line"/>
			<point x="20" y="-132" type="line"/>
		</contour>
	</outline>
	<anchor name="_belowPrimaryHE" x="0" y="-30"/>
	<anchor name="_belowLeftHE" x="-140" y="-30"/>
	<anchor name="belowPrimaryHE" x="-210" y="-30"/>
	<anchor name="_belowSecondaryHE" x="50" y="-30"/>
	<guideline x="-149" y="0" angle="90" identifier="o40PoZDAys"/>
</glyph>
<glyph name="hePatah" format="2">
	<unicode hex="05B7"/>
	<outline>
		<contour>
			<point x="-111" y="-132" type="line"/>
			<point x="111" y="-132" type="line"/>
			<point x="111" y="-80" type="line"/>
			<point x="-111" y="-80" type="line"/>
		</contour>
	</outline>
	<anchor name="_belowPrimaryHE" x="0" y="-30"/>
	<anchor name="_belowLeftHE" x="-110" y="-30"/>
	<anchor name="_belowRightHE" x="110" y="-30"/>
	<anchor name="belowPrimaryHE" x="-180" y="-30"/>
	<anchor name="_belowSecondaryHE" x="10" y="-30"/>
	<guideline x="-170" y="0" angle="90" identifier="2L2adE99FR"/>
</glyph>
<glyph name="heQubuts" format="2">
	<unicode hex="05BB"/>
	<outline>
		<contour>
			<point x="-122" y="-136"/>
			<point x="-105" y="-152"/>
			<point x="-80" y="-152" type="curve" smooth="yes"/>
			<point x="-58" y="-152"/>
			<point x="-39" y="-135"/>
			<point x="-39" y="-109" type="curve" smooth="yes"/>
			<point x="-39" y="-87"/>
			<point x="-58" y="-69"/>
			<point x="-80" y="-69" type="curve" smooth="yes"/>
			<point x="-105" y="-69"/>
			<point x="-122" y="-88"/>
			<point x="-122" y="-110" type="curve" smooth="yes"/>
		</contour>
		<contour>
			<point x="-43" y="-225"/>
			<point x="-23" y="-245"/>
			<point x="0" y="-245" type="curve" smooth="yes"/>
			<point x="23" y="-245"/>
			<point x="43" y="-225"/>
			<point x="43" y="-203" type="curve" smooth="yes"/>
			<point x="43" y="-179"/>
			<point x="23" y="-160"/>
			<point x="0" y="-160" type="curve" smooth="yes"/>
			<point x="-23" y="-160"/>
			<point x="-43" y="-179"/>
			<point x="-43" y="-203" type="curve" smooth="yes"/>
		</contour>
		<contour>
			<point x="38" y="-325"/>
			<point x="56" y="-340"/>
			<point x="80" y="-340" type="curve" smooth="yes"/>
			<point x="101" y="-340"/>
			<point x="120" y="-325"/>
			<point x="120" y="-299" type="curve" smooth="yes"/>
			<point x="120" y="-277"/>
			<point x="101" y="-258"/>
			<point x="80" y="-258" type="curve" smooth="yes"/>
			<point x="56" y="-258"/>
			<point x="38" y="-277"/>
			<point x="38" y="-299" type="curve" smooth="yes"/>
		</contour>
	</outline>
	<anchor name="_belowPrimaryHE" x="0" y="-22"/>
	<anchor name="_belowLeftHE" x="-110" y="-22"/>
	<anchor name="_belowRightHE" x="65" y="-22"/>
	<anchor name="belowPrimaryHE" x="-190" y="-22"/>
	<anchor name="_belowSecondaryHE" x="0" y="-22"/>
	<guideline x="-200" y="0" angle="90" identifier="PTRnnbDCEA"/>
</glyph>
<glyph name="heMaqaf" format="2">
	<unicode hex="05BE"/>
	<advance width="324"/>
	<outline>
		<contour>
			<point x="30" y="396" type="line"/>
			<point x="294" y="396" type="line"/>
			<point x="294" y="568" type="line"/>
			<point x="30" y="568" type="line"/>
		</contour>
	</outline>
</glyph>
<glyph name="hePaseq" format="2">
	<unicode hex="05C0"/>
	<advance width="323"/>
	<outline>
		<contour>
			<point x="100" y="-106" type="line"/>
			<point x="210" y="-106" type="line"/>
			<point x="210" y="596" type="line"/>
			<point x="100" y="596" type="line"/>
		</contour>
	</outline>
</glyph>
<glyph name="heQamatsQatan" format="2">
	<unicode hex="05C7"/>
	<outline>
		<contour>
			<point x="-28" y="-304" type="line"/>
			<point x="28" y="-304" type="line"/>
			<point x="23" y="-132" type="line"/>
			<point x="100" y="-132" type="line"/>
			<point x="100" y="-80" type="line"/>
			<point x="-102" y="-80" type="line"/>
			<point x="-102" y="-132" type="line"/>
			<point x="-23" y="-132" type="line"/>
		</contour>
	</outline>
	<anchor name="_belowPrimaryHE" x="0" y="-22"/>
	<anchor name="_belowLeftHE" x="-110" y="-22"/>
	<anchor name="_belowRightHE" x="110" y="-22"/>
	<anchor name="belowPrimaryHE" x="-170" y="-22"/>
	<anchor name="_belowSecondaryHE" x="0" y="-22"/>
	<guideline x="0" y="46" angle="0" identifier="JuNMJMM0MQ"/>
</glyph>
<glyph name="heAlef" format="2">
	<unicode hex="05D0"/>
	<advance width="642"/>
	<outline>
		<contour>
			<point x="468" y="190" type="line"/>
			<point x="578" y="273"/>
			<point x="614" y="347"/>
			<point x="614" y="424" type="curve" smooth="yes"/>
			<point x="614" y="525"/>
			<point x="560" y="568"/>
			<point x="436" y="568" type="curve" smooth="yes"/>
			<point x="354" y="568" type="line"/>
			<point x="354" y="396" type="line"/>
			<point x="372" y="396" type="line" smooth="yes"/>
			<point x="442" y="396"/>
			<point x="466" y="380"/>
			<point x="466" y="348" type="curve" smooth="yes"/>
			<point x="466" y="324"/>
			<point x="446" y="304"/>
			<point x="398" y="274" type="curve"/>
		</contour>
		<contour>
			<point x="72" y="0" type="curve"/>
			<point x="220" y="0" type="line"/>
			<point x="218" y="22"/>
			<point x="216" y="43"/>
			<point x="216" y="62" type="curve" smooth="yes"/>
			<point x="216" y="192"/>
			<point x="230" y="280"/>
			<point x="276" y="360" type="curve"/>
			<point x="170" y="388" type="line"/>
			<point x="110" y="302"/>
			<point x="70" y="190"/>
			<point x="70" y="54" type="curve" smooth="yes"/>
			<point x="70" y="35"/>
			<point x="71" y="19"/>
		</contour>
		<contour>
			<point x="466" y="-12" type="curve"/>
			<point x="630" y="84" type="line"/>
			<point x="466" y="204"/>
			<point x="284" y="416"/>
			<point x="202" y="570" type="curve"/>
			<point x="22" y="508" type="line"/>
			<point x="106" y="336"/>
			<point x="300" y="98"/>
		</contour>
	</outline>
	<anchor name="aboveHE" x="275" y="530"/>
	<anchor name="belowPrimaryHE" x="310" y="-30"/>
	<anchor name="aboveLeftHE" x="5" y="530"/>
	<anchor name="centerHE" x="270" y="90"/>
	<guideline x="88" y="472" angle="90" identifier="Xn6NvC9d08"/>
</glyph>
<glyph name="heBet" format="2">
	<unicode hex="05D1"/>
	<advance width="524"/>
	<outline>
		<contour>
			<point x="44" y="0" type="line"/>
			<point x="498" y="0" type="line"/>
			<point x="498" y="148" type="line"/>
			<point x="44" y="148" type="line"/>
		</contour>
		<contour>
			<point x="422" y="40" type="line"/>
			<point x="434" y="142"/>
			<point x="440" y="210"/>
			<point x="440" y="288" type="curve" smooth="yes"/>
			<point x="440" y="456"/>
			<point x="352" y="548"/>
			<point x="174" y="548" type="curve" smooth="yes"/>
			<point x="54" y="548" type="line"/>
			<point x="54" y="400" type="line"/>
			<point x="120" y="400" type="line" smooth="yes"/>
			<point x="232" y="400"/>
			<point x="266" y="370"/>
			<point x="266" y="280" type="curve" smooth="yes"/>
			<point x="266" y="232"/>
			<point x="266" y="178"/>
			<point x="264" y="134" type="curve"/>
		</contour>
	</outline>
	<anchor name="aboveHE" x="260" y="570"/>
	<anchor name="belowPrimaryHE" x="270" y="-22"/>
	<anchor name="centerHE" x="190" y="280"/>
	<anchor name="aboveLeftHE" x="40" y="570"/>
</glyph>
<glyph name="heGimel" format="2">
	<unicode hex="05D2"/>
	<advance width="430"/>
	<outline>
		<contour>
			<point x="216" y="0" type="line"/>
			<point x="388" y="0" type="line"/>
			<point x="354" y="368" type="line" smooth="yes"/>
			<point x="343" y="486"/>
			<point x="292" y="548"/>
			<point x="162" y="548" type="curve" smooth="yes"/>
			<point x="64" y="548" type="line"/>
			<point x="64" y="400" type="line"/>
			<point x="108" y="400" type="line" smooth="yes"/>
			<point x="156" y="400"/>
			<point x="187" y="372"/>
			<point x="192" y="310" type="curve" smooth="yes"/>
		</contour>
		<contour>
			<point x="44" y="-8" type="line"/>
			<point x="154" y="-6"/>
			<point x="226" y="72"/>
			<point x="226" y="160" type="curve"/>
			<point x="196" y="256" type="line"/>
			<point x="194" y="184"/>
			<point x="124" y="150"/>
			<point x="44" y="146" type="curve"/>
		</contour>
	</outline>
	<anchor name="aboveHE" x="220" y="570"/>
	<anchor name="belowPrimaryHE" x="210" y="-22"/>
	<anchor name="centerHE" x="135" y="290"/>
	<anchor name="aboveLeftHE" x="60" y="570"/>
	<anchor name="belowPrimaryHECXT" x="230" y="-22"/>
</glyph>
<glyph name="heDalet" format="2">
	<unicode hex="05D3"/>
	<advance width="518"/>
	<outline>
		<contour>
			<point x="24" y="400" type="line"/>
			<point x="494" y="400" type="line"/>
			<point x="494" y="548" type="line"/>
			<point x="24" y="548" type="line"/>
		</contour>
		<contour>
			<point x="230" y="0" type="line"/>
			<point x="402" y="0" type="line"/>
			<point x="402" y="400" type="line"/>
			<point x="274" y="400" type="line"/>
			<point x="246" y="354"/>
			<point x="230" y="278"/>
			<point x="230" y="190" type="curve" smooth="yes"/>
		</contour>
	</outline>
	<anchor name="belowSecondaryHE" x="370" y="-22"/>
	<anchor name="aboveHE" x="260" y="570"/>
	<anchor name="centerHE" x="170" y="220"/>
	<anchor name="aboveLeftHE" x="20" y="570"/>
</glyph>
<glyph name="heHe" format="2">
	<unicode hex="05D4"/>
	<advance width="642"/>
	<outline>
		<contour>
			<point x="408" y="0" type="line"/>
			<point x="580" y="0" type="line"/>
			<point x="580" y="342" type="line" smooth="yes"/>
			<point x="580" y="491"/>
			<point x="500" y="548"/>
			<point x="384" y="548" type="curve" smooth="yes"/>
			<point x="54" y="548" type="line"/>
			<point x="54" y="400" type="line"/>
			<point x="288" y="400" type="line" smooth="yes"/>
			<point x="362" y="400"/>
			<point x="408" y="374"/>
			<point x="408" y="284" type="curve" smooth="yes"/>
		</contour>
		<contour>
			<point x="84" y="0" type="line"/>
			<point x="256" y="0" type="line"/>
			<point x="256" y="320" type="line"/>
			<point x="128" y="320" type="line"/>
			<point x="100" y="274"/>
			<point x="84" y="198"/>
			<point x="84" y="110" type="curve" smooth="yes"/>
		</contour>
	</outline>
	<anchor name="aboveHE" x="320" y="570"/>
	<anchor name="belowPrimaryHE" x="330" y="-22"/>
	<anchor name="centerHE" x="330" y="220"/>
	<anchor name="aboveLeftHE" x="30" y="570"/>
</glyph>
<glyph name="heVav" format="2">
	<unicode hex="05D5"/>
	<advance width="356"/>
	<outline>
		<contour>
			<point x="122" y="0" type="line"/>
			<point x="294" y="0" type="line"/>
			<point x="294" y="352" type="line" smooth="yes"/>
			<point x="294" y="494"/>
			<point x="222" y="548"/>
			<point x="118" y="548" type="curve" smooth="yes"/>
			<point x="24" y="548" type="line"/>
			<point x="24" y="400" type="line"/>
			<point x="42" y="400" type="line" smooth="yes"/>
			<point x="92" y="400"/>
			<point x="122" y="376"/>
			<point x="122" y="294" type="curve" smooth="yes"/>
		</contour>
	</outline>
	<anchor name="aboveHE" x="170" y="570"/>
	<anchor name="belowSecondaryHE" x="220" y="-22"/>
	<anchor name="centerHE" x="50" y="220"/>
	<anchor name="holamHE" x="0" y="570"/>
	<anchor name="aboveLeftHE" x="170" y="570"/>
</glyph>
<glyph name="heZayin" format="2">
	<unicode hex="05D6"/>
	<advance width="418"/>
	<outline>
		<contour>
			<point x="14" y="396" type="line"/>
			<point x="384" y="396" type="line"/>
			<point x="384" y="568" type="line"/>
			<point x="14" y="568" type="line"/>
		</contour>
		<contour>
			<point x="156" y="0" type="curve"/>
			<point x="304" y="0" type="line"/>
			<point x="286" y="154"/>
			<point x="276" y="204"/>
			<point x="276" y="292" type="curve" smooth="yes"/>
			<point x="276" y="340"/>
			<point x="276" y="360"/>
			<point x="282" y="396" type="curve"/>
			<point x="158" y="396" type="line"/>
			<point x="142" y="366"/>
			<point x="130" y="326"/>
			<point x="130" y="278" type="curve" smooth="yes"/>
			<point x="130" y="226"/>
			<point x="140" y="139"/>
		</contour>
	</outline>
	<anchor name="aboveHE" x="185" y="530"/>
	<anchor name="belowPrimaryHE" x="170" y="-30"/>
	<anchor name="centerHE" x="15" y="190"/>
	<anchor name="aboveLeftHE" x="-10" y="530"/>
</glyph>
<glyph name="heHet" format="2">
	<unicode hex="05D7"/>
	<advance width="702"/>
	<outline>
		<contour>
			<point x="458" y="0" type="line"/>
			<point x="630" y="0" type="line"/>
			<point x="630" y="352" type="line" smooth="yes"/>
			<point x="630" y="508"/>
			<point x="546" y="568"/>
			<point x="424" y="568" type="curve" smooth="yes"/>
			<point x="64" y="568" type="line"/>
			<point x="64" y="420" type="line"/>
			<point x="328" y="420" type="line" smooth="yes"/>
			<point x="408" y="420"/>
			<point x="458" y="392"/>
			<point x="458" y="294" type="curve" smooth="yes"/>
		</contour>
		<contour>
			<point x="94" y="0" type="line"/>
			<point x="266" y="0" type="line"/>
			<point x="266" y="420" type="line"/>
			<point x="138" y="420" type="line"/>
			<point x="112" y="378"/>
			<point x="94" y="307"/>
			<point x="94" y="250" type="curve" smooth="yes"/>
		</contour>
	</outline>
	<anchor name="aboveHE" x="340" y="590"/>
	<anchor name="belowPrimaryHE" x="350" y="-22"/>
	<anchor name="centerHE" x="350" y="200"/>
	<anchor name="aboveLeftHE" x="40" y="590"/>
</glyph>
<glyph name="heTet" format="2">
	<unicode hex="05D8"/>
	<advance width="626"/>
	<outline>
		<contour>
			<point x="322" y="-12" type="curve" smooth="yes"/>
			<point x="508" y="-12"/>
			<point x="588" y="140"/>
			<point x="588" y="360" type="curve" smooth="yes"/>
			<point x="588" y="496"/>
			<point x="528" y="560"/>
			<point x="396" y="560" type="curve" smooth="yes"/>
			<point x="364" y="560"/>
			<point x="336" y="558"/>
			<point x="296" y="550" type="curve"/>
			<point x="318" y="406" type="line"/>
			<point x="330" y="410"/>
			<point x="340" y="412"/>
			<point x="352" y="412" type="curve" smooth="yes"/>
			<point x="390" y="412"/>
			<point x="410" y="380"/>
			<point x="410" y="312" type="curve" smooth="yes"/>
			<point x="410" y="200"/>
			<point x="392" y="136"/>
			<point x="330" y="136" type="curve" smooth="yes"/>
			<point x="282" y="136"/>
			<point x="244" y="176"/>
			<point x="244" y="556" type="curve"/>
			<point x="44" y="540" type="line"/>
			<point x="52" y="112"/>
			<point x="154" y="-12"/>
		</contour>
	</outline>
	<anchor name="aboveHE" x="350" y="570"/>
	<anchor name="belowPrimaryHE" x="340" y="-22"/>
	<anchor name="centerHE" x="330" y="290"/>
	<anchor name="aboveLeftHE" x="20" y="570"/>
</glyph>
<glyph name="heYod" format="2">
	<unicode hex="05D9"/>
	<advance width="314"/>
	<outline>
		<contour>
			<point x="158" y="160" type="line"/>
			<point x="238" y="254"/>
			<point x="276" y="336"/>
			<point x="276" y="404" type="curve" smooth="yes"/>
			<point x="276" y="500"/>
			<point x="228" y="548"/>
			<point x="98" y="548" type="curve" smooth="yes"/>
			<point x="24" y="548" type="line"/>
			<point x="24" y="400" type="line"/>
			<point x="38" y="400" type="line" smooth="yes"/>
			<point x="78" y="400"/>
			<point x="100" y="382"/>
			<point x="100" y="342" type="curve" smooth="yes"/>
			<point x="100" y="310"/>
			<point x="82" y="264"/>
			<point x="48" y="216" type="curve"/>
		</contour>
	</outline>
	<anchor name="aboveHE" x="132" y="570"/>
	<anchor name="belowPrimaryHE" x="132" y="-22"/>
	<anchor name="centerHE" x="22" y="310"/>
	<anchor name="aboveLeftHE" x="-28" y="570"/>
</glyph>
<glyph name="heKafFin" format="2">
	<unicode hex="05DA"/>
	<advance width="502"/>
	<outline>
		<contour>
			<point x="268" y="-156" type="line"/>
			<point x="440" y="-156" type="line"/>
			<point x="440" y="342" type="line" smooth="yes"/>
			<point x="440" y="491"/>
			<point x="360" y="548"/>
			<point x="244" y="548" type="curve" smooth="yes"/>
			<point x="24" y="548" type="line"/>
			<point x="24" y="400" type="line"/>
			<point x="148" y="400" type="line" smooth="yes"/>
			<point x="222" y="400"/>
			<point x="268" y="374"/>
			<point x="268" y="284" type="curve" smooth="yes"/>
		</contour>
	</outline>
	<anchor name="aboveHE" x="240" y="570"/>
	<anchor name="centerSecondaryHE" x="180" y="300"/>
	<anchor name="aboveLeftHE" x="20" y="570"/>
	<anchor name="belowPrimaryHE" x="180" y="-22"/>
	<anchor name="centerHE" x="180" y="220"/>
</glyph>
<glyph name="heKaf" format="2">
	<unicode hex="05DB"/>
	<advance width="506"/>
	<outline>
		<contour>
			<point x="42" y="0" type="line"/>
			<point x="434" y="0" type="line"/>
			<point x="448" y="114"/>
			<point x="454" y="188"/>
			<point x="454" y="278" type="curve" smooth="yes"/>
			<point x="454" y="456"/>
			<point x="366" y="548"/>
			<point x="188" y="548" type="curve" smooth="yes"/>
			<point x="54" y="548" type="line"/>
			<point x="54" y="400" type="line"/>
			<point x="134" y="400" type="line" smooth="yes"/>
			<point x="246" y="400"/>
			<point x="280" y="370"/>
			<point x="280" y="270" type="curve" smooth="yes"/>
			<point x="280" y="230"/>
			<point x="280" y="200"/>
			<point x="272" y="148" type="curve"/>
			<point x="44" y="148" type="line"/>
		</contour>
	</outline>
	<anchor name="aboveHE" x="260" y="570"/>
	<anchor name="belowPrimaryHE" x="260" y="-22"/>
	<anchor name="centerHE" x="210" y="280"/>
	<anchor name="aboveLeftHE" x="40" y="570"/>
</glyph>
<glyph name="heLamed" format="2">
	<unicode hex="05DC"/>
	<advance width="508"/>
	<outline>
		<contour>
			<point x="158" y="-12" type="line"/>
			<point x="388" y="92"/>
			<point x="470" y="218"/>
			<point x="470" y="388" type="curve" smooth="yes"/>
			<point x="470" y="494"/>
			<point x="418" y="548"/>
			<point x="258" y="548" type="curve" smooth="yes"/>
			<point x="216" y="548" type="line"/>
			<point x="216" y="702" type="line"/>
			<point x="44" y="702" type="line"/>
			<point x="44" y="400" type="line"/>
			<point x="212" y="400" type="line" smooth="yes"/>
			<point x="270" y="400"/>
			<point x="292" y="386"/>
			<point x="292" y="330" type="curve" smooth="yes"/>
			<point x="292" y="254"/>
			<point x="234" y="169"/>
			<point x="82" y="118" type="curve"/>
		</contour>
	</outline>
	<anchor name="aboveHE" x="340" y="570"/>
	<anchor name="belowLeftHE" x="130" y="-22"/>
	<anchor name="centerHE" x="170" y="300"/>
	<anchor name="aboveLeftHE" x="-40" y="570"/>
</glyph>
<glyph name="heMemFin" format="2">
	<unicode hex="05DD"/>
	<advance width="668"/>
	<outline>
		<contour>
			<point x="158" y="0" type="line"/>
			<point x="606" y="0" type="line"/>
			<point x="606" y="342" type="line" smooth="yes"/>
			<point x="606" y="491"/>
			<point x="526" y="548"/>
			<point x="410" y="548" type="curve" smooth="yes"/>
			<point x="64" y="548" type="line"/>
			<point x="64" y="400" type="line"/>
			<point x="314" y="400" type="line" smooth="yes"/>
			<point x="388" y="400"/>
			<point x="434" y="374"/>
			<point x="434" y="284" type="curve" smooth="yes"/>
			<point x="434" y="148" type="line"/>
			<point x="158" y="148" type="line"/>
		</contour>
		<contour>
			<point x="94" y="0" type="line"/>
			<point x="266" y="0" type="line"/>
			<point x="266" y="400" type="line"/>
			<point x="138" y="400" type="line"/>
			<point x="110" y="354"/>
			<point x="94" y="278"/>
			<point x="94" y="190" type="curve" smooth="yes"/>
		</contour>
	</outline>
	<anchor name="aboveHE" x="340" y="570"/>
	<anchor name="belowPrimaryHE" x="340" y="-22"/>
	<anchor name="centerHE" x="340" y="280"/>
	<anchor name="aboveLeftHE" x="40" y="570"/>
</glyph>
<glyph name="heMem" format="2">
	<unicode hex="05DE"/>
	<advance width="694"/>
	<outline>
		<contour>
			<point x="128" y="292"/>
			<point x="86" y="174"/>
			<point x="86" y="0" type="curve"/>
			<point x="262" y="0" type="line"/>
			<point x="264" y="302"/>
			<point x="308" y="412"/>
			<point x="384" y="412" type="curve" smooth="yes"/>
			<point x="434" y="412"/>
			<point x="462" y="376"/>
			<point x="462" y="286" type="curve" smooth="yes"/>
			<point x="462" y="236"/>
			<point x="462" y="200"/>
			<point x="458" y="148" type="curve"/>
			<point x="344" y="148" type="line"/>
			<point x="344" y="0" type="line"/>
			<point x="630" y="0" type="line"/>
			<point x="636" y="96"/>
			<point x="636" y="174"/>
			<point x="636" y="252" type="curve" smooth="yes"/>
			<point x="636" y="458"/>
			<point x="558" y="560"/>
			<point x="394" y="560" type="curve" smooth="yes"/>
			<point x="302" y="560"/>
			<point x="232" y="512"/>
			<point x="172" y="400" type="curve"/>
			<point x="194" y="404"/>
			<point x="216" y="420"/>
			<point x="216" y="444" type="curve" smooth="yes"/>
			<point x="216" y="516"/>
			<point x="158" y="548"/>
			<point x="72" y="548" type="curve" smooth="yes"/>
			<point x="24" y="548" type="line"/>
			<point x="24" y="400" type="line"/>
			<point x="68" y="400" type="line" smooth="yes"/>
			<point x="112" y="400"/>
			<point x="128" y="382"/>
			<point x="128" y="346" type="curve" smooth="yes"/>
		</contour>
	</outline>
	<anchor name="aboveHE" x="390" y="570"/>
	<anchor name="belowPrimaryHE" x="380" y="-22"/>
	<anchor name="centerHE" x="385" y="280"/>
	<anchor name="aboveLeftHE" x="10" y="570"/>
</glyph>
<glyph name="heNunFin" format="2">
	<unicode hex="05DF"/>
	<advance width="346"/>
	<outline>
		<contour>
			<point x="112" y="0" type="line"/>
			<point x="284" y="0" type="line"/>
			<point x="284" y="372" type="line" smooth="yes"/>
			<point x="284" y="500"/>
			<point x="214" y="548"/>
			<point x="114" y="548" type="curve" smooth="yes"/>
			<point x="24" y="548" type="line"/>
			<point x="24" y="400" type="line"/>
			<point x="38" y="400" type="line" smooth="yes"/>
			<point x="91" y="400"/>
			<point x="112" y="380"/>
			<point x="112" y="314" type="curve" smooth="yes"/>
		</contour>
	</outline>
	<anchor name="aboveHE" x="160" y="570"/>
	<anchor name="belowRightHE" x="100" y="-22"/>
	<anchor name="aboveLeftHE" x="0" y="570"/>
</glyph>
<glyph name="heNun" format="2">
	<unicode hex="05E0"/>
	<advance width="422"/>
	<outline>
		<contour>
			<point x="44" y="0" type="line"/>
			<point x="360" y="0" type="line"/>
			<point x="360" y="352" type="line" smooth="yes"/>
			<point x="360" y="494"/>
			<point x="284" y="548"/>
			<point x="174" y="548" type="curve" smooth="yes"/>
			<point x="84" y="548" type="line"/>
			<point x="84" y="400" type="line"/>
			<point x="98" y="400" type="line" smooth="yes"/>
			<point x="164" y="400"/>
			<point x="188" y="376"/>
			<point x="188" y="294" type="curve" smooth="yes"/>
			<point x="188" y="148" type="line"/>
			<point x="44" y="148" type="line"/>
		</contour>
	</outline>
	<anchor name="aboveHE" x="230" y="570"/>
	<anchor name="belowPrimaryHE" x="210" y="-22"/>
	<anchor name="centerHE" x="135" y="280"/>
	<anchor name="aboveLeftHE" x="60" y="570"/>
	<anchor name="belowPrimaryHECXT" x="250" y="-22"/>
</glyph>
<glyph name="heSamekh" format="2">
	<unicode hex="05E1"/>
	<advance width="622"/>
	<outline>
		<contour>
			<point x="304" y="-12" type="curve" smooth="yes"/>
			<point x="498" y="-12"/>
			<point x="584" y="140"/>
			<point x="584" y="344" type="curve" smooth="yes"/>
			<point x="584" y="486"/>
			<point x="526" y="548"/>
			<point x="352" y="548" type="curve" smooth="yes"/>
			<point x="24" y="548" type="line"/>
			<point x="24" y="400" type="line"/>
			<point x="300" y="400" type="line" smooth="yes"/>
			<point x="385" y="400"/>
			<point x="412" y="365"/>
			<point x="412" y="296" type="curve" smooth="yes"/>
			<point x="412" y="200"/>
			<point x="384" y="136"/>
			<point x="321" y="136" type="curve" smooth="yes"/>
			<point x="272" y="136"/>
			<point x="242" y="180"/>
			<point x="242" y="288" type="curve" smooth="yes"/>
			<point x="242" y="354"/>
			<point x="245" y="398"/>
			<point x="254" y="454" type="curve"/>
			<point x="118" y="408" type="line"/>
			<point x="92" y="366"/>
			<point x="72" y="298"/>
			<point x="72" y="256" type="curve" smooth="yes"/>
			<point x="72" y="104"/>
			<point x="150" y="-12"/>
		</contour>
	</outline>
	<anchor name="aboveHE" x="350" y="570"/>
	<anchor name="belowPrimaryHE" x="340" y="-22"/>
	<anchor name="centerHE" x="360" y="290"/>
	<anchor name="aboveLeftHE" x="0" y="570"/>
</glyph>
<glyph name="heAyin" format="2">
	<unicode hex="05E2"/>
	<advance width="592"/>
	<outline>
		<contour>
			<point x="44" y="0" type="line"/>
			<point x="92" y="0" type="line" smooth="yes"/>
			<point x="412" y="0"/>
			<point x="554" y="248"/>
			<point x="554" y="404" type="curve" smooth="yes"/>
			<point x="554" y="518"/>
			<point x="505" y="568"/>
			<point x="356" y="568" type="curve" smooth="yes"/>
			<point x="294" y="568" type="line"/>
			<point x="294" y="428" type="line"/>
			<point x="312" y="428" type="line" smooth="yes"/>
			<point x="364" y="428"/>
			<point x="382" y="400"/>
			<point x="382" y="344" type="curve" smooth="yes"/>
			<point x="382" y="240"/>
			<point x="302" y="148"/>
			<point x="124" y="148" type="curve" smooth="yes"/>
			<point x="44" y="148" type="line"/>
		</contour>
		<contour>
			<point x="166" y="16" type="curve"/>
			<point x="302" y="52" type="line"/>
			<point x="276" y="258"/>
			<point x="234" y="456"/>
			<point x="180" y="576" type="curve"/>
			<point x="0" y="550" type="line"/>
			<point x="80" y="402"/>
			<point x="141" y="202"/>
		</contour>
	</outline>
	<anchor name="aboveHE" x="290" y="590"/>
	<anchor name="belowPrimaryHE" x="280" y="-22"/>
	<anchor name="aboveLeftHE" x="20" y="590"/>
</glyph>
<glyph name="hePeFin" format="2">
	<unicode hex="05E3"/>
	<advance width="602"/>
	<outline>
		<contour>
			<point x="382" y="-156" type="curve"/>
			<point x="530" y="-156" type="line"/>
			<point x="536" y="-4"/>
			<point x="538" y="160"/>
			<point x="538" y="302" type="curve" smooth="yes"/>
			<point x="538" y="512"/>
			<point x="434" y="580"/>
			<point x="284" y="580" type="curve" smooth="yes"/>
			<point x="158" y="580"/>
			<point x="42" y="496"/>
			<point x="42" y="342" type="curve" smooth="yes"/>
			<point x="42" y="232"/>
			<point x="96" y="158"/>
			<point x="220" y="158" type="curve" smooth="yes"/>
			<point x="258" y="158" type="line"/>
			<point x="258" y="330" type="line"/>
			<point x="244" y="330" type="line" smooth="yes"/>
			<point x="204" y="330"/>
			<point x="190" y="340"/>
			<point x="190" y="364" type="curve" smooth="yes"/>
			<point x="190" y="388"/>
			<point x="222" y="408"/>
			<point x="258" y="408" type="curve" smooth="yes"/>
			<point x="344" y="408"/>
			<point x="390" y="382"/>
			<point x="390" y="240" type="curve" smooth="yes"/>
			<point x="390" y="118"/>
			<point x="388" y="-24"/>
		</contour>
	</outline>
	<anchor name="aboveHE" x="285" y="590"/>
	<anchor name="belowRightHE" x="245" y="-22"/>
	<anchor name="centerHE" x="320" y="240"/>
	<anchor name="aboveLeftHE" x="40" y="590"/>
</glyph>
<glyph name="hePe" format="2">
	<unicode hex="05E4"/>
	<advance width="620"/>
	<outline>
		<contour>
			<point x="44" y="0" type="line"/>
			<point x="536" y="0" type="line"/>
			<point x="548" y="104"/>
			<point x="556" y="192"/>
			<point x="556" y="302" type="curve" smooth="yes"/>
			<point x="556" y="510"/>
			<point x="460" y="580"/>
			<point x="296" y="580" type="curve" smooth="yes"/>
			<point x="172" y="580"/>
			<point x="62" y="500"/>
			<point x="62" y="364" type="curve" smooth="yes"/>
			<point x="62" y="266"/>
			<point x="116" y="202"/>
			<point x="240" y="202" type="curve" smooth="yes"/>
			<point x="272" y="202" type="line"/>
			<point x="272" y="352" type="line"/>
			<point x="264" y="352" type="line" smooth="yes"/>
			<point x="224" y="352"/>
			<point x="210" y="361"/>
			<point x="210" y="380" type="curve" smooth="yes"/>
			<point x="210" y="396"/>
			<point x="232" y="408"/>
			<point x="276" y="408" type="curve" smooth="yes"/>
			<point x="366" y="408"/>
			<point x="408" y="370"/>
			<point x="408" y="220" type="curve" smooth="yes"/>
			<point x="408" y="202"/>
			<point x="408" y="182"/>
			<point x="406" y="164" type="curve"/>
			<point x="44" y="164" type="line"/>
		</contour>
	</outline>
	<anchor name="aboveHE" x="311" y="590"/>
	<anchor name="belowPrimaryHE" x="290" y="-22"/>
	<anchor name="centerHE" x="340" y="280"/>
	<anchor name="aboveLeftHE" x="60" y="590"/>
</glyph>
<glyph name="heTsadiFin" format="2">
	<unicode hex="05E5"/>
	<advance width="582"/>
	<outline>
		<contour>
			<point x="298" y="34" type="line"/>
			<point x="456" y="164"/>
			<point x="544" y="290"/>
			<point x="544" y="404" type="curve" smooth="yes"/>
			<point x="544" y="505"/>
			<point x="490" y="548"/>
			<point x="366" y="548" type="curve" smooth="yes"/>
			<point x="306" y="548" type="line"/>
			<point x="306" y="400" type="line"/>
			<point x="310" y="400" type="line" smooth="yes"/>
			<point x="348" y="400"/>
			<point x="368" y="380"/>
			<point x="368" y="342" type="curve" smooth="yes"/>
			<point x="368" y="290"/>
			<point x="332" y="240"/>
			<point x="240" y="162" type="curve"/>
		</contour>
		<contour>
			<point x="144" y="-156" type="line"/>
			<point x="316" y="-156" type="line"/>
			<point x="316" y="58" type="line"/>
			<point x="310" y="246"/>
			<point x="232" y="454"/>
			<point x="162" y="550" type="curve"/>
			<point x="-20" y="540" type="line"/>
			<point x="74" y="414"/>
			<point x="144" y="220"/>
			<point x="144" y="36" type="curve" smooth="yes"/>
		</contour>
	</outline>
	<anchor name="aboveHE" x="230" y="570"/>
	<anchor name="belowLeftHE" x="335" y="-22"/>
	<anchor name="aboveLeftHE" x="5" y="570"/>
</glyph>
<glyph name="heTsadi" format="2">
	<unicode hex="05E6"/>
	<advance width="576"/>
	<outline>
		<contour>
			<point x="392" y="170" type="line"/>
			<point x="494" y="272"/>
			<point x="538" y="338"/>
			<point x="538" y="404" type="curve" smooth="yes"/>
			<point x="538" y="505"/>
			<point x="482" y="548"/>
			<point x="360" y="548" type="curve" smooth="yes"/>
			<point x="296" y="548" type="line"/>
			<point x="296" y="400" type="line"/>
			<point x="298" y="400" type="line" smooth="yes"/>
			<point x="342" y="400"/>
			<point x="362" y="386"/>
			<point x="362" y="358" type="curve" smooth="yes"/>
			<point x="362" y="326"/>
			<point x="342" y="304"/>
			<point x="310" y="266" type="curve"/>
		</contour>
		<contour>
			<point x="44" y="0" type="line"/>
			<point x="510" y="0" type="line"/>
			<point x="532" y="144" type="line"/>
			<point x="364" y="230"/>
			<point x="240" y="402"/>
			<point x="182" y="550" type="curve"/>
			<point x="0" y="540" type="line"/>
			<point x="86" y="346"/>
			<point x="200" y="212"/>
			<point x="290" y="138" type="curve"/>
			<point x="324" y="148" type="line"/>
			<point x="44" y="148" type="line"/>
		</contour>
	</outline>
	<anchor name="aboveHE" x="280" y="570"/>
	<anchor name="belowPrimaryHE" x="290" y="-22"/>
	<anchor name="centerHE" x="80" y="240"/>
	<anchor name="aboveLeftHE" x="0" y="570"/>
</glyph>
<glyph name="heQof" format="2">
	<unicode hex="05E7"/>
	<advance width="614"/>
	<outline>
		<contour>
			<point x="378" y="-12" type="line"/>
			<point x="512" y="144"/>
			<point x="576" y="268"/>
			<point x="576" y="408" type="curve" smooth="yes"/>
			<point x="576" y="513"/>
			<point x="524" y="568"/>
			<point x="364" y="568" type="curve" smooth="yes"/>
			<point x="64" y="568" type="line"/>
			<point x="64" y="396" type="line"/>
			<point x="348" y="396" type="line" smooth="yes"/>
			<point x="406" y="396"/>
			<point x="428" y="386"/>
			<point x="428" y="346" type="curve" smooth="yes"/>
			<point x="428" y="268"/>
			<point x="380" y="184"/>
			<point x="272" y="84" type="curve"/>
		</contour>
		<contour>
			<point x="94" y="-156" type="line"/>
			<point x="242" y="-156" type="line"/>
			<point x="242" y="316" type="line"/>
			<point x="118" y="316" type="line"/>
			<point x="104" y="272"/>
			<point x="94" y="226"/>
			<point x="94" y="166" type="curve" smooth="yes"/>
		</contour>
	</outline>
	<anchor name="aboveHE" x="275" y="530"/>
	<anchor name="belowLeftHE" x="265" y="-30"/>
	<anchor name="centerHE" x="270" y="265"/>
	<anchor name="aboveLeftHE" x="0" y="530"/>
	<anchor name="belowLeftHECXT" x="350" y="-30"/>
</glyph>
<glyph name="heResh" format="2">
	<unicode hex="05E8"/>
	<advance width="472"/>
	<outline>
		<contour>
			<point x="238" y="0" type="line"/>
			<point x="410" y="0" type="line"/>
			<point x="410" y="342" type="line" smooth="yes"/>
			<point x="410" y="491"/>
			<point x="330" y="548"/>
			<point x="214" y="548" type="curve" smooth="yes"/>
			<point x="14" y="548" type="line"/>
			<point x="14" y="400" type="line"/>
			<point x="118" y="400" type="line" smooth="yes"/>
			<point x="192" y="400"/>
			<point x="238" y="374"/>
			<point x="238" y="284" type="curve" smooth="yes"/>
		</contour>
	</outline>
	<anchor name="aboveHE" x="230" y="570"/>
	<anchor name="belowSecondaryHE" x="370" y="-22"/>
	<anchor name="centerHE" x="150" y="220"/>
	<anchor name="aboveLeftHE" x="-10" y="570"/>
</glyph>
<glyph name="heShin" format="2">
	<unicode hex="05E9"/>
	<advance width="742"/>
	<outline>
		<contour>
			<point x="368" y="-12" type="curve" smooth="yes"/>
			<point x="562" y="-12"/>
			<point x="714" y="162"/>
			<point x="714" y="398" type="curve" smooth="yes"/>
			<point x="714" y="532"/>
			<point x="666" y="568"/>
			<point x="536" y="568" type="curve" smooth="yes"/>
			<point x="494" y="568" type="line"/>
			<point x="494" y="396" type="line"/>
			<point x="512" y="396" type="line" smooth="yes"/>
			<point x="554" y="396"/>
			<point x="570" y="372"/>
			<point x="570" y="324" type="curve" smooth="yes"/>
			<point x="570" y="236"/>
			<point x="484" y="152"/>
			<point x="386" y="152" type="curve" smooth="yes"/>
			<point x="260" y="152"/>
			<point x="210" y="190"/>
			<point x="204" y="574" type="curve"/>
			<point x="24" y="524" type="line"/>
			<point x="40" y="120"/>
			<point x="162" y="-12"/>
		</contour>
		<contour>
			<point x="344" y="140" type="line"/>
			<point x="447" y="282"/>
			<point x="466" y="338"/>
			<point x="466" y="424" type="curve" smooth="yes"/>
			<point x="466" y="536"/>
			<point x="408" y="568"/>
			<point x="298" y="568" type="curve" smooth="yes"/>
			<point x="256" y="568" type="line"/>
			<point x="256" y="396" type="line"/>
			<point x="264" y="396" type="line" smooth="yes"/>
			<point x="308" y="396"/>
			<point x="322" y="382"/>
			<point x="322" y="354" type="curve" smooth="yes"/>
			<point x="322" y="322"/>
			<point x="304" y="290"/>
			<point x="216" y="186" type="curve"/>
		</contour>
	</outline>
	<anchor name="aboveHE" x="319" y="530"/>
	<anchor name="belowPrimaryHE" x="339" y="-30"/>
	<anchor name="sinHE" x="84" y="500"/>
	<anchor name="centerHE" x="404" y="260"/>
	<anchor name="shinHE" x="499" y="500"/>
	<anchor name="aboveLeftHE" x="-16" y="530"/>
</glyph>
<glyph name="heTav" format="2">
	<unicode hex="05EA"/>
	<advance width="682"/>
	<outline>
		<contour>
			<point x="448" y="0" type="line"/>
			<point x="620" y="0" type="line"/>
			<point x="620" y="342" type="line" smooth="yes"/>
			<point x="620" y="491"/>
			<point x="540" y="548"/>
			<point x="424" y="548" type="curve" smooth="yes"/>
			<point x="84" y="548" type="line"/>
			<point x="84" y="400" type="line"/>
			<point x="328" y="400" type="line" smooth="yes"/>
			<point x="402" y="400"/>
			<point x="448" y="374"/>
			<point x="448" y="284" type="curve" smooth="yes"/>
		</contour>
		<contour>
			<point x="44" y="0" type="line"/>
			<point x="286" y="0" type="line"/>
			<point x="304" y="108" type="line"/>
			<point x="294" y="166"/>
			<point x="292" y="222"/>
			<point x="292" y="304" type="curve" smooth="yes"/>
			<point x="292" y="400" type="line"/>
			<point x="164" y="400" type="line"/>
			<point x="138" y="358"/>
			<point x="122" y="284"/>
			<point x="122" y="236" type="curve" smooth="yes"/>
			<point x="122" y="200"/>
			<point x="126" y="166"/>
			<point x="128" y="148" type="curve"/>
			<point x="44" y="148" type="line"/>
		</contour>
	</outline>
	<anchor name="aboveHE" x="350" y="570"/>
	<anchor name="belowPrimaryHE" x="360" y="-22"/>
	<anchor name="centerHE" x="360" y="220"/>
	<anchor name="aboveLeftHE" x="60" y="570"/>
</glyph>
<glyph name="heGeresh" format="2">
	<unicode hex="05F3"/>
	<advance width="320"/>
	<outline>
		<contour>
			<point x="154" y="300" type="line"/>
			<point x="215" y="368"/>
			<point x="258" y="481"/>
			<point x="258" y="594" type="curve" smooth="yes"/>
			<point x="258" y="610"/>
			<point x="258" y="622"/>
			<point x="256" y="638" type="curve"/>
			<point x="82" y="638" type="line"/>
			<point x="88" y="600"/>
			<point x="92" y="562"/>
			<point x="92" y="526" type="curve" smooth="yes"/>
			<point x="92" y="446"/>
			<point x="84" y="394"/>
			<point x="64" y="328" type="curve"/>
		</contour>
	</outline>
</glyph>
<glyph name="heGershayim" format="2">
	<unicode hex="05F4"/>
	<advance width="510"/>
	<outline>
		<contour>
			<point x="269" y="301" type="line"/>
			<point x="376" y="306" type="line"/>
			<point x="484" y="573" type="line"/>
			<point x="339" y="567" type="line"/>
		</contour>
		<contour>
			<point x="43" y="301" type="line"/>
			<point x="149" y="306" type="line"/>
			<point x="258" y="573" type="line"/>
			<point x="112" y="567" type="line"/>
		</contour>
	</outline>
</glyph>
<glyph name="ZWJ" format="2">
	<unicode hex="200D"/>
	<outline>
		<contour>
			<point x="-116" y="665" type="line"/>
			<point x="-116" y="738" type="line"/>
			<point x="117" y="738" type="line"/>
			<point x="117" y="665" type="line"/>
			<point x="151" y="665" type="line"/>
			<point x="151" y="774" type="line"/>
			<point x="-150" y="774" type="line"/>
			<point x="-150" y="665" type="line"/>
		</contour>
	</outline>
</glyph>
<glyph name="bullet" format="2">
	<unicode hex="2022"/>
	<advance width="360"/>
	<outline>
		<contour>
			<point x="180" y="116" type="curve" smooth="yes"/>
			<point x="260" y="116"/>
			<point x="320" y="180"/>
			<point x="320" y="262" type="curve" smooth="yes"/>
			<point x="320" y="344"/>
			<point x="260" y="408"/>
			<point x="180" y="408" type="curve" smooth="yes"/>
			<point x="100" y="408"/>
			<point x="40" y="344"/>
			<point x="40" y="262" type="curve" smooth="yes"/>
			<point x="40" y="180"/>
			<point x="100" y="116"/>
		</contour>
	</outline>
</glyph>
<glyph name="popdirectionformat" format="2">
	<unicode hex="202C"/>
	<outline>
		<contour>
			<point x="-14" y="646" type="line"/>
			<point x="14" y="646" type="line"/>
			<point x="14" y="828" type="line"/>
			<point x="88" y="750" type="line"/>
			<point x="108" y="770" type="line"/>
			<point x="2" y="874" type="line"/>
			<point x="-2" y="874" type="line"/>
			<point x="-108" y="770" type="line"/>
			<point x="-88" y="750" type="line"/>
			<point x="-14" y="828" type="line"/>
		</contour>
	</outline>
</glyph>
<glyph name="righttoleftoverride" format="2">
	<unicode hex="202E"/>
	<outline>
		<contour>
			<point x="-60" y="648" type="line"/>
			<point x="-40" y="668" type="line"/>
			<point x="-132" y="756" type="line"/>
			<point x="-40" y="844" type="line"/>
			<point x="-60" y="864" type="line"/>
			<point x="-164" y="758" type="line"/>
			<point x="-164" y="754" type="line"/>
		</contour>
		<contour>
			<point x="40" y="648" type="line"/>
			<point x="60" y="668" type="line"/>
			<point x="-18" y="742" type="line"/>
			<point x="144" y="742" type="line"/>
			<point x="144" y="770" type="line"/>
			<point x="-18" y="770" type="line"/>
			<point x="60" y="844" type="line"/>
			<point x="40" y="864" type="line"/>
			<point x="-64" y="758" type="line"/>
			<point x="-64" y="754" type="line"/>
		</contour>
	</outline>
</glyph>
<glyph name="franc.S" format="2">
	<unicode hex="20A3"/>
	<advance width="540"/>
	<outline>
		<contour>
			<point x="118" y="0" type="line"/>
			<point x="280" y="0" type="line"/>
			<point x="280" y="208" type="line"/>
			<point x="468" y="208" type="line"/>
			<point x="468" y="352" type="line"/>
			<point x="280" y="352" type="line"/>
			<point x="280" y="416" type="line"/>
			<point x="506" y="416" type="line"/>
			<point x="506" y="568" type="line"/>
			<point x="118" y="568" type="line"/>
		</contour>
		<contour>
			<point x="44" y="56" type="line"/>
			<point x="416" y="56" type="line"/>
			<point x="416" y="160" type="line"/>
			<point x="120" y="160" type="line"/>
			<point x="44" y="154" type="line"/>
		</contour>
	</outline>
</glyph>
<glyph name="newsheqel.S" format="2">
	<unicode hex="20AA"/>
	<advance width="540"/>
	<outline>
		<contour>
			<point x="4" y="0" type="line"/>
			<point x="134" y="0" type="line"/>
			<point x="134" y="426" type="line"/>
			<point x="190" y="426" type="line" smooth="yes"/>
			<point x="250" y="426"/>
			<point x="288" y="404"/>
			<point x="288" y="334" type="curve" smooth="yes"/>
			<point x="288" y="220" type="line"/>
			<point x="370" y="220" type="line"/>
			<point x="370" y="400" type="line" smooth="yes"/>
			<point x="370" y="523"/>
			<point x="301" y="568"/>
			<point x="192" y="568" type="curve" smooth="yes"/>
			<point x="4" y="568" type="line"/>
		</contour>
		<contour>
			<point x="170" y="0" type="line"/>
			<point x="358" y="0" type="line" smooth="yes"/>
			<point x="467" y="0"/>
			<point x="536" y="45"/>
			<point x="536" y="168" type="curve" smooth="yes"/>
			<point x="536" y="568" type="line"/>
			<point x="406" y="568" type="line"/>
			<point x="406" y="234" type="line" smooth="yes"/>
			<point x="406" y="164"/>
			<point x="368" y="142"/>
			<point x="308" y="142" type="curve" smooth="yes"/>
			<point x="252" y="142" type="line"/>
			<point x="252" y="348" type="line"/>
			<point x="170" y="348" type="line"/>
		</contour>
	</outline>
	<guideline x="270" y="284" angle="90" identifier="la2l8YmETM"/>
</glyph>
<glyph name="newsheqel" format="2">
	<unicode hex="20AA"/>
	<advance width="540"/>
	<outline>
		<contour>
			<point x="6" y="0" type="line"/>
			<point x="126" y="0" type="line"/>
			<point x="126" y="492" type="line"/>
			<point x="192" y="492" type="line" smooth="yes"/>
			<point x="252" y="492"/>
			<point x="290" y="470"/>
			<point x="290" y="400" type="curve" smooth="yes"/>
			<point x="290" y="220" type="line"/>
			<point x="372" y="220" type="line"/>
			<point x="372" y="466" type="line" smooth="yes"/>
			<point x="372" y="589"/>
			<point x="303" y="634"/>
			<point x="194" y="634" type="curve" smooth="yes"/>
			<point x="6" y="634" type="line"/>
		</contour>
		<contour>
			<point x="168" y="0" type="line"/>
			<point x="356" y="0" type="line" smooth="yes"/>
			<point x="465" y="0"/>
			<point x="534" y="45"/>
			<point x="534" y="168" type="curve" smooth="yes"/>
			<point x="534" y="634" type="line"/>
			<point x="414" y="634" type="line"/>
			<point x="414" y="234" type="line" smooth="yes"/>
			<point x="414" y="164"/>
			<point x="376" y="142"/>
			<point x="316" y="142" type="curve" smooth="yes"/>
			<point x="250" y="142" type="line"/>
			<point x="250" y="414" type="line"/>
			<point x="168" y="414" type="line"/>
		</contour>
	</outline>
	<guideline x="270" y="284" angle="90" identifier="la2l8YmETM"/>
</glyph>
<glyph name="Euro.S" format="2">
	<unicode hex="20AC"/>
	<advance width="540"/>
	<outline>
		<contour>
			<point x="344" y="-12" type="curve" smooth="yes"/>
			<point x="406" y="-12"/>
			<point x="460" y="4"/>
			<point x="512" y="44" type="curve"/>
			<point x="466" y="146" type="line"/>
			<point x="429" y="124"/>
			<point x="395" y="112"/>
			<point x="360" y="112" type="curve" smooth="yes"/>
			<point x="292" y="112"/>
			<point x="244" y="168"/>
			<point x="244" y="284" type="curve" smooth="yes"/>
			<point x="244" y="400"/>
			<point x="290" y="456"/>
			<point x="356" y="456" type="curve" smooth="yes"/>
			<point x="389" y="456"/>
			<point x="417" y="446"/>
			<point x="454" y="426" type="curve"/>
			<point x="500" y="526" type="line"/>
			<point x="452" y="566"/>
			<point x="398" y="580"/>
			<point x="340" y="580" type="curve" smooth="yes"/>
			<point x="183" y="580"/>
			<point x="72" y="468"/>
			<point x="72" y="278" type="curve" smooth="yes"/>
			<point x="72" y="96"/>
			<point x="185" y="-12"/>
		</contour>
		<contour>
			<point x="20" y="178" type="line"/>
			<point x="412" y="178" type="line"/>
			<point x="412" y="262" type="line"/>
			<point x="96" y="262" type="line"/>
			<point x="20" y="256" type="line"/>
		</contour>
		<contour>
			<point x="20" y="306" type="line"/>
			<point x="452" y="306" type="line"/>
			<point x="452" y="390" type="line"/>
			<point x="96" y="390" type="line"/>
			<point x="20" y="384" type="line"/>
		</contour>
	</outline>
</glyph>
<glyph name="cedi.S" format="2">
	<unicode hex="20B5"/>
	<advance width="540"/>
	<outline>
		<contour>
			<point x="344" y="-12" type="curve" smooth="yes"/>
			<point x="406" y="-12"/>
			<point x="462" y="8"/>
			<point x="516" y="50" type="curve"/>
			<point x="450" y="172" type="line"/>
			<point x="414" y="150"/>
			<point x="382" y="138"/>
			<point x="350" y="138" type="curve" smooth="yes"/>
			<point x="260" y="138"/>
			<point x="198" y="194"/>
			<point x="198" y="284" type="curve" smooth="yes"/>
			<point x="198" y="374"/>
			<point x="258" y="430"/>
			<point x="346" y="430" type="curve" smooth="yes"/>
			<point x="376" y="430"/>
			<point x="402" y="420"/>
			<point x="438" y="400" type="curve"/>
			<point x="504" y="522" type="line"/>
			<point x="456" y="562"/>
			<point x="400" y="580"/>
			<point x="340" y="580" type="curve" smooth="yes"/>
			<point x="172" y="580"/>
			<point x="54" y="468"/>
			<point x="54" y="278" type="curve" smooth="yes"/>
			<point x="54" y="96"/>
			<point x="174" y="-12"/>
		</contour>
		<contour>
			<point x="280" y="-110" type="line"/>
			<point x="372" y="-110" type="line"/>
			<point x="372" y="666" type="line"/>
			<point x="280" y="666" type="line"/>
		</contour>
	</outline>
</glyph>
<glyph name="tenge.S" format="2">
	<unicode hex="20B8"/>
	<advance width="540"/>
	<outline>
		<contour>
			<point x="184" y="0" type="line"/>
			<point x="356" y="0" type="line"/>
			<point x="356" y="356" type="line"/>
			<point x="508" y="356" type="line"/>
			<point x="508" y="440" type="line"/>
			<point x="108" y="440" type="line"/>
			<point x="32" y="434" type="line"/>
			<point x="32" y="356" type="line"/>
			<point x="184" y="356" type="line"/>
		</contour>
		<contour>
			<point x="32" y="484" type="line"/>
			<point x="508" y="484" type="line"/>
			<point x="508" y="568" type="line"/>
			<point x="32" y="568" type="line"/>
		</contour>
	</outline>
</glyph>
<glyph name="arrowleft.S" format="2">
	<unicode hex="2190"/>
	<advance width="616"/>
	<outline>
		<contour>
			<point x="300" y="14" type="line"/>
			<point x="380" y="106" type="line"/>
			<point x="250" y="216" type="line"/>
			<point x="576" y="216" type="line"/>
			<point x="576" y="352" type="line"/>
			<point x="250" y="352" type="line"/>
			<point x="380" y="462" type="line"/>
			<point x="300" y="554" type="line"/>
			<point x="20" y="286" type="line"/>
			<point x="20" y="282" type="line"/>
		</contour>
	</outline>
</glyph>
<glyph name="arrowupleft.S" format="2">
	<unicode hex="2196"/>
	<advance width="616"/>
	<outline>
		<contour>
			<point x="446" y="39" type="line"/>
			<point x="543" y="136" type="line"/>
			<point x="312" y="366" type="line"/>
			<point x="482" y="352" type="line"/>
			<point x="490" y="474" type="line"/>
			<point x="103" y="482" type="line"/>
			<point x="100" y="479" type="line"/>
			<point x="108" y="92" type="line"/>
			<point x="230" y="100" type="line"/>
			<point x="216" y="270" type="line"/>
		</contour>
	</outline>
</glyph>
<glyph name="arrowupright.S" format="2">
	<unicode hex="2197"/>
	<advance width="616"/>
	<outline>
		<contour>
			<point x="160" y="39" type="line"/>
			<point x="390" y="270" type="line"/>
			<point x="376" y="100" type="line"/>
			<point x="498" y="92" type="line"/>
			<point x="506" y="479" type="line"/>
			<point x="503" y="482" type="line"/>
			<point x="116" y="474" type="line"/>
			<point x="124" y="352" type="line"/>
			<point x="294" y="366" type="line"/>
			<point x="63" y="136" type="line"/>
		</contour>
	</outline>
</glyph>
<glyph name="arrowdblright.S" format="2">
	<unicode hex="21D2"/>
	<advance width="616"/>
	<outline>
		<contour>
			<point x="316" y="14" type="line"/>
			<point x="596" y="282" type="line"/>
			<point x="596" y="286" type="line"/>
			<point x="316" y="554" type="line"/>
			<point x="236" y="462" type="line"/>
			<point x="444" y="286" type="line"/>
			<point x="444" y="282" type="line"/>
			<point x="236" y="106" type="line"/>
		</contour>
		<contour>
			<point x="40" y="160" type="line"/>
			<point x="446" y="160" type="line"/>
			<point x="446" y="258" type="line"/>
			<point x="40" y="258" type="line"/>
		</contour>
		<contour>
			<point x="40" y="310" type="line"/>
			<point x="446" y="310" type="line"/>
			<point x="446" y="408" type="line"/>
			<point x="40" y="408" type="line"/>
		</contour>
	</outline>
</glyph>
<glyph name="product" format="2">
	<unicode hex="220F"/>
	<advance width="724"/>
	<outline>
		<contour>
			<point x="76" y="-120" type="line"/>
			<point x="248" y="-120" type="line"/>
			<point x="248" y="484" type="line"/>
			<point x="476" y="484" type="line"/>
			<point x="476" y="-120" type="line"/>
			<point x="648" y="-120" type="line"/>
			<point x="648" y="634" type="line"/>
			<point x="76" y="634" type="line"/>
		</contour>
	</outline>
</glyph>
<glyph name="bulletoperator" format="2">
	<unicode hex="2219"/>
	<advance width="540"/>
	<outline>
		<contour>
			<point x="270" y="226" type="curve" smooth="yes"/>
			<point x="328" y="226"/>
			<point x="370" y="272"/>
			<point x="370" y="330" type="curve" smooth="yes"/>
			<point x="370" y="388"/>
			<point x="328" y="434"/>
			<point x="270" y="434" type="curve" smooth="yes"/>
			<point x="212" y="434"/>
			<point x="170" y="388"/>
			<point x="170" y="330" type="curve" smooth="yes"/>
			<point x="170" y="272"/>
			<point x="212" y="226"/>
		</contour>
	</outline>
</glyph>
<glyph name="heVarikaJud" format="2">
	<unicode hex="FB1E"/>
	<outline>
		<contour>
			<point x="0" y="568" type="curve" smooth="yes"/>
			<point x="99" y="568"/>
			<point x="144" y="624"/>
			<point x="146" y="703" type="curve"/>
			<point x="66" y="716" type="line"/>
			<point x="60" y="682"/>
			<point x="40" y="657"/>
			<point x="0" y="657" type="curve" smooth="yes"/>
			<point x="-40" y="657"/>
			<point x="-60" y="682"/>
			<point x="-66" y="716" type="curve"/>
			<point x="-146" y="703" type="line"/>
			<point x="-144" y="624"/>
			<point x="-98" y="568"/>
		</contour>
	</outline>
	<anchor name="_aboveHE" x="0" y="525"/>
	<guideline x="0" y="629" angle="0" identifier="U4xKqVWln2"/>
</glyph>
<glyph name="heAlefWide" format="2">
	<unicode hex="FB21"/>
	<advance width="642"/>
	<outline>
		<contour>
			<point x="868" y="190" type="line"/>
			<point x="978" y="274"/>
			<point x="1014" y="328"/>
			<point x="1014" y="424" type="curve" smooth="yes"/>
			<point x="1014" y="525"/>
			<point x="960" y="568"/>
			<point x="836" y="568" type="curve" smooth="yes"/>
			<point x="754" y="568" type="line"/>
			<point x="754" y="396" type="line"/>
			<point x="772" y="396" type="line" smooth="yes"/>
			<point x="842" y="396"/>
			<point x="866" y="380"/>
			<point x="866" y="348" type="curve" smooth="yes"/>
			<point x="866" y="326"/>
			<point x="846" y="304"/>
			<point x="802" y="274" type="curve"/>
		</contour>
		<contour>
			<point x="54" y="0" type="curve"/>
			<point x="238" y="0" type="line"/>
			<point x="232" y="38"/>
			<point x="228" y="76"/>
			<point x="228" y="112" type="curve" smooth="yes"/>
			<point x="228" y="180"/>
			<point x="228" y="256"/>
			<point x="260" y="340" type="curve"/>
			<point x="160" y="368" type="line"/>
			<point x="95" y="295"/>
			<point x="52" y="168"/>
			<point x="52" y="44" type="curve" smooth="yes"/>
			<point x="52" y="28"/>
			<point x="52" y="16"/>
		</contour>
		<contour>
			<point x="852" y="-12" type="curve"/>
			<point x="1038" y="40" type="line"/>
			<point x="792" y="250"/>
			<point x="304" y="354"/>
			<point x="202" y="576" type="curve"/>
			<point x="20" y="534" type="line"/>
			<point x="151" y="300"/>
			<point x="627" y="178"/>
		</contour>
	</outline>
	<anchor name="aboveHE" x="275" y="590"/>
	<anchor name="belowPrimaryHE" x="310" y="-22"/>
	<anchor name="aboveLeftHE" x="5" y="590"/>
	<anchor name="centerHE" x="270" y="90"/>
	<guideline x="88" y="472" angle="90" identifier="Xn6NvC9d08"/>
</glyph>
<glyph name="heDaletWide" format="2">
	<unicode hex="FB22"/>
	<advance width="1318"/>
	<outline>
		<contour>
			<point x="24" y="400" type="line"/>
			<point x="1294" y="400" type="line"/>
			<point x="1294" y="548" type="line"/>
			<point x="24" y="548" type="line"/>
		</contour>
		<contour>
			<point x="1030" y="0" type="line"/>
			<point x="1202" y="0" type="line"/>
			<point x="1202" y="400" type="line"/>
			<point x="1074" y="400" type="line"/>
			<point x="1046" y="354"/>
			<point x="1030" y="278"/>
			<point x="1030" y="190" type="curve" smooth="yes"/>
		</contour>
	</outline>
	<anchor name="belowSecondaryHE" x="1160" y="-22"/>
	<anchor name="aboveHE" x="650" y="590"/>
	<anchor name="centerHE" x="560" y="220"/>
	<anchor name="aboveLeftHE" x="10" y="590"/>
</glyph>
<glyph name="heHeWide" format="2">
	<unicode hex="FB23"/>
	<advance width="672"/>
	<outline>
		<contour>
			<point x="852" y="0" type="line"/>
			<point x="1000" y="0" type="line"/>
			<point x="1000" y="352" type="line" smooth="yes"/>
			<point x="1000" y="508"/>
			<point x="916" y="568"/>
			<point x="794" y="568" type="curve" smooth="yes"/>
			<point x="64" y="568" type="line"/>
			<point x="64" y="396" type="line"/>
			<point x="722" y="396" type="line" smooth="yes"/>
			<point x="802" y="396"/>
			<point x="852" y="368"/>
			<point x="852" y="270" type="curve" smooth="yes"/>
		</contour>
		<contour>
			<point x="94" y="0" type="line"/>
			<point x="242" y="0" type="line"/>
			<point x="242" y="316" type="line"/>
			<point x="118" y="316" type="line"/>
			<point x="104" y="272"/>
			<point x="94" y="226"/>
			<point x="94" y="166" type="curve" smooth="yes"/>
		</contour>
	</outline>
	<anchor name="aboveHE" x="260" y="530"/>
	<anchor name="belowPrimaryHE" x="270" y="-30"/>
	<anchor name="centerHE" x="270" y="190"/>
	<anchor name="aboveLeftHE" x="-10" y="530"/>
</glyph>
<glyph name="heKafWide" format="2">
	<unicode hex="FB24"/>
	<advance width="1316"/>
	<outline>
		<contour>
			<point x="42" y="0" type="line"/>
			<point x="1244" y="0" type="line"/>
			<point x="1258" y="114"/>
			<point x="1264" y="200"/>
			<point x="1264" y="290" type="curve" smooth="yes"/>
			<point x="1264" y="468"/>
			<point x="1179" y="548"/>
			<point x="1012" y="548" type="curve" smooth="yes"/>
			<point x="64" y="548" type="line"/>
			<point x="64" y="400" type="line"/>
			<point x="942" y="400" type="line" smooth="yes"/>
			<point x="1047" y="400"/>
			<point x="1090" y="361"/>
			<point x="1090" y="272" type="curve" smooth="yes"/>
			<point x="1090" y="232"/>
			<point x="1090" y="200"/>
			<point x="1082" y="148" type="curve"/>
			<point x="44" y="148" type="line"/>
		</contour>
	</outline>
	<anchor name="aboveHE" x="660" y="590"/>
	<anchor name="belowPrimaryHE" x="660" y="-22"/>
	<anchor name="centerHE" x="610" y="280"/>
	<anchor name="aboveLeftHE" x="40" y="590"/>
</glyph>
<glyph name="heLamedWide" format="2">
	<unicode hex="FB25"/>
	<advance width="1308"/>
	<outline>
		<contour>
			<point x="548" y="-12" type="line"/>
			<point x="1042" y="110"/>
			<point x="1270" y="208"/>
			<point x="1270" y="388" type="curve" smooth="yes"/>
			<point x="1270" y="494"/>
			<point x="1213" y="548"/>
			<point x="1038" y="548" type="curve" smooth="yes"/>
			<point x="216" y="548" type="line"/>
			<point x="216" y="702" type="line"/>
			<point x="44" y="702" type="line"/>
			<point x="44" y="400" type="line"/>
			<point x="1012" y="400" type="line" smooth="yes"/>
			<point x="1070" y="400"/>
			<point x="1092" y="390"/>
			<point x="1092" y="350" type="curve" smooth="yes"/>
			<point x="1092" y="278"/>
			<point x="908" y="198"/>
			<point x="492" y="118" type="curve"/>
		</contour>
	</outline>
	<anchor name="aboveHE" x="770" y="590"/>
	<anchor name="belowLeftHE" x="560" y="-22"/>
	<anchor name="centerHE" x="600" y="280"/>
	<anchor name="aboveLeftHE" x="-20" y="590"/>
</glyph>
<glyph name="heMemFinWide" format="2">
	<unicode hex="FB26"/>
	<advance width="678"/>
	<outline>
		<contour>
			<point x="158" y="0" type="line"/>
			<point x="1006" y="0" type="line"/>
			<point x="1006" y="352" type="line" smooth="yes"/>
			<point x="1006" y="508"/>
			<point x="922" y="568"/>
			<point x="800" y="568" type="curve" smooth="yes"/>
			<point x="64" y="568" type="line"/>
			<point x="64" y="396" type="line"/>
			<point x="728" y="396" type="line" smooth="yes"/>
			<point x="808" y="396"/>
			<point x="858" y="368"/>
			<point x="858" y="270" type="curve" smooth="yes"/>
			<point x="858" y="164" type="line"/>
			<point x="158" y="164" type="line"/>
		</contour>
		<contour>
			<point x="94" y="0" type="line"/>
			<point x="242" y="0" type="line"/>
			<point x="242" y="396" type="line"/>
			<point x="118" y="396" type="line"/>
			<point x="104" y="352"/>
			<point x="94" y="306"/>
			<point x="94" y="246" type="curve" smooth="yes"/>
		</contour>
	</outline>
	<anchor name="aboveHE" x="270" y="530"/>
	<anchor name="belowPrimaryHE" x="280" y="-30"/>
	<anchor name="centerHE" x="280" y="250"/>
	<anchor name="aboveLeftHE" x="-15" y="530"/>
</glyph>
<glyph name="heReshWide" format="2">
	<unicode hex="FB27"/>
	<advance width="1302"/>
	<outline>
		<contour>
			<point x="1068" y="0" type="line"/>
			<point x="1240" y="0" type="line"/>
			<point x="1240" y="342" type="line" smooth="yes"/>
			<point x="1240" y="491"/>
			<point x="1160" y="548"/>
			<point x="1044" y="548" type="curve" smooth="yes"/>
			<point x="24" y="548" type="line"/>
			<point x="24" y="400" type="line"/>
			<point x="948" y="400" type="line" smooth="yes"/>
			<point x="1022" y="400"/>
			<point x="1068" y="374"/>
			<point x="1068" y="284" type="curve" smooth="yes"/>
		</contour>
	</outline>
	<anchor name="aboveHE" x="660" y="590"/>
	<anchor name="belowSecondaryHE" x="1200" y="-22"/>
	<anchor name="centerHE" x="580" y="220"/>
	<anchor name="aboveLeftHE" x="20" y="590"/>
</glyph>
<glyph name="heTavWide" format="2">
	<unicode hex="FB28"/>
	<advance width="1482"/>
	<outline>
		<contour>
			<point x="1248" y="0" type="line"/>
			<point x="1420" y="0" type="line"/>
			<point x="1420" y="342" type="line" smooth="yes"/>
			<point x="1420" y="491"/>
			<point x="1340" y="548"/>
			<point x="1224" y="548" type="curve" smooth="yes"/>
			<point x="84" y="548" type="line"/>
			<point x="84" y="400" type="line"/>
			<point x="1128" y="400" type="line" smooth="yes"/>
			<point x="1202" y="400"/>
			<point x="1248" y="374"/>
			<point x="1248" y="284" type="curve" smooth="yes"/>
		</contour>
		<contour>
			<point x="44" y="0" type="line"/>
			<point x="286" y="0" type="line"/>
			<point x="304" y="108" type="line"/>
			<point x="294" y="166"/>
			<point x="292" y="222"/>
			<point x="292" y="304" type="curve" smooth="yes"/>
			<point x="292" y="400" type="line"/>
			<point x="164" y="400" type="line"/>
			<point x="138" y="358"/>
			<point x="122" y="284"/>
			<point x="122" y="236" type="curve" smooth="yes"/>
			<point x="122" y="200"/>
			<point x="126" y="166"/>
			<point x="128" y="148" type="curve"/>
			<point x="44" y="148" type="line"/>
		</contour>
	</outline>
	<anchor name="aboveHE" x="750" y="590"/>
	<anchor name="belowPrimaryHE" x="760" y="-22"/>
	<anchor name="centerHE" x="760" y="220"/>
	<anchor name="aboveLeftHE" x="60" y="590"/>
</glyph>
<glyph name="plusalt" format="2">
	<unicode hex="FB29"/>
	<advance width="540"/>
	<outline>
		<contour>
			<point x="34" y="270" type="line"/>
			<point x="506" y="270" type="line"/>
			<point x="506" y="390" type="line"/>
			<point x="332" y="390" type="line"/>
			<point x="332" y="570" type="line"/>
			<point x="208" y="570" type="line"/>
			<point x="208" y="390" type="line"/>
			<point x="34" y="390" type="line"/>
		</contour>
	</outline>
</glyph>
<glyph name="ugAlpa" format="2">
	<unicode hex="10380"/>
	<advance width="630"/>
	<outline>
		<contour>
			<point x="54" y="182" type="line"/>
			<point x="136" y="240"/>
			<point x="252" y="252"/>
			<point x="442" y="252" type="curve"/>
			<point x="442" y="316" type="line"/>
			<point x="252" y="316"/>
			<point x="136" y="328"/>
			<point x="54" y="386" type="curve"/>
		</contour>
		<contour>
			<point x="274" y="182" type="line"/>
			<point x="350" y="236"/>
			<point x="452" y="252"/>
			<point x="622" y="252" type="curve"/>
			<point x="622" y="316" type="line"/>
			<point x="452" y="316"/>
			<point x="350" y="332"/>
			<point x="274" y="386" type="curve"/>
		</contour>
	</outline>
</glyph>
<glyph name="ugBeta" format="2">
	<unicode hex="10381"/>
	<advance width="630"/>
	<outline>
		<contour>
			<point x="134" y="220" type="curve"/>
			<point x="202" y="220" type="line"/>
			<point x="202" y="390"/>
			<point x="219" y="492"/>
			<point x="262" y="568" type="curve"/>
			<point x="74" y="568" type="line"/>
			<point x="117" y="492"/>
			<point x="134" y="390"/>
		</contour>
		<contour>
			<point x="354" y="220" type="curve"/>
			<point x="422" y="220" type="line"/>
			<point x="422" y="390"/>
			<point x="439" y="492"/>
			<point x="482" y="568" type="curve"/>
			<point x="294" y="568" type="line"/>
			<point x="337" y="492"/>
			<point x="354" y="390"/>
		</contour>
		<component base="ugAlpa" yOffset="-40"/>
	</outline>
</glyph>
<glyph name="ugGamla" format="2">
	<unicode hex="10382"/>
	<advance width="314"/>
	<outline>
		<contour>
			<point x="134" y="0" type="curve"/>
			<point x="202" y="0" type="line"/>
			<point x="202" y="278"/>
			<point x="202" y="462"/>
			<point x="262" y="568" type="curve"/>
			<point x="74" y="568" type="line"/>
			<point x="134" y="462"/>
			<point x="134" y="278"/>
		</contour>
	</outline>
</glyph>
<glyph name="ugKha" format="2">
	<unicode hex="10383"/>
	<advance width="314"/>
	<outline>
		<contour>
			<point x="134" y="0" type="curve"/>
			<point x="202" y="0" type="line"/>
			<point x="202" y="106"/>
			<point x="230" y="162"/>
			<point x="272" y="218" type="curve"/>
			<point x="64" y="218" type="line"/>
			<point x="106" y="162"/>
			<point x="134" y="106"/>
		</contour>
		<contour>
			<point x="134" y="350" type="curve"/>
			<point x="202" y="350" type="line"/>
			<point x="202" y="456"/>
			<point x="230" y="512"/>
			<point x="272" y="568" type="curve"/>
			<point x="64" y="568" type="line"/>
			<point x="106" y="512"/>
			<point x="134" y="456"/>
		</contour>
		<contour>
			<point x="134" y="170" type="curve"/>
			<point x="202" y="170" type="line"/>
			<point x="202" y="276"/>
			<point x="230" y="332"/>
			<point x="272" y="388" type="curve"/>
			<point x="64" y="388" type="line"/>
			<point x="106" y="332"/>
			<point x="134" y="276"/>
		</contour>
	</outline>
</glyph>
<glyph name="ugDelta" format="2">
	<unicode hex="10384"/>
	<advance width="630"/>
	<outline>
		<contour>
			<point x="114" y="220" type="curve"/>
			<point x="182" y="220" type="line"/>
			<point x="182" y="390"/>
			<point x="199" y="492"/>
			<point x="242" y="568" type="curve"/>
			<point x="44" y="568" type="line"/>
			<point x="100" y="489"/>
			<point x="114" y="390"/>
		</contour>
		<contour>
			<point x="306" y="220" type="curve"/>
			<point x="374" y="220" type="line"/>
			<point x="374" y="390"/>
			<point x="391" y="492"/>
			<point x="434" y="568" type="curve"/>
			<point x="246" y="568" type="line"/>
			<point x="289" y="492"/>
			<point x="306" y="390"/>
		</contour>
		<contour>
			<point x="498" y="220" type="curve"/>
			<point x="566" y="220" type="line"/>
			<point x="566" y="390"/>
			<point x="580" y="489"/>
			<point x="636" y="568" type="curve"/>
			<point x="438" y="568" type="line"/>
			<point x="481" y="492"/>
			<point x="498" y="390"/>
		</contour>
		<component base="ugNun" yOffset="-40"/>
	</outline>
</glyph>
<glyph name="ugWo" format="2">
	<unicode hex="10386"/>
	<advance width="850"/>
	<outline>
		<contour>
			<point x="54" y="292" type="line"/>
			<point x="119" y="330"/>
			<point x="192" y="352"/>
			<point x="322" y="352" type="curve"/>
			<point x="322" y="416" type="line"/>
			<point x="192" y="416"/>
			<point x="122" y="436"/>
			<point x="54" y="486" type="curve"/>
		</contour>
		<contour>
			<point x="334" y="182" type="line"/>
			<point x="404" y="232"/>
			<point x="482" y="252"/>
			<point x="622" y="252" type="curve"/>
			<point x="622" y="316" type="line"/>
			<point x="482" y="316"/>
			<point x="404" y="336"/>
			<point x="334" y="386" type="curve"/>
		</contour>
		<contour>
			<point x="54" y="82" type="line"/>
			<point x="122" y="132"/>
			<point x="192" y="152"/>
			<point x="322" y="152" type="curve"/>
			<point x="322" y="216" type="line"/>
			<point x="192" y="216"/>
			<point x="119" y="238"/>
			<point x="54" y="276" type="curve"/>
		</contour>
		<contour>
			<point x="554" y="182" type="line"/>
			<point x="624" y="232"/>
			<point x="702" y="252"/>
			<point x="842" y="252" type="curve"/>
			<point x="842" y="316" type="line"/>
			<point x="702" y="316"/>
			<point x="624" y="336"/>
			<point x="554" y="386" type="curve"/>
		</contour>
	</outline>
</glyph>
<glyph name="ugZeta" format="2">
	<unicode hex="10387"/>
	<advance width="314"/>
	<outline>
		<contour>
			<point x="134" y="180" type="curve"/>
			<point x="202" y="180" type="line"/>
			<point x="202" y="370"/>
			<point x="212" y="482"/>
			<point x="272" y="568" type="curve"/>
			<point x="64" y="568" type="line"/>
			<point x="124" y="482"/>
			<point x="134" y="370"/>
		</contour>
		<contour>
			<point x="134" y="0" type="curve"/>
			<point x="202" y="0" type="line"/>
			<point x="202" y="170"/>
			<point x="216" y="269"/>
			<point x="272" y="348" type="curve"/>
			<point x="64" y="348" type="line"/>
			<point x="120" y="269"/>
			<point x="134" y="170"/>
		</contour>
	</outline>
</glyph>
<glyph name="ugHota" format="2">
	<unicode hex="10388"/>
	<advance width="620"/>
	<outline>
		<contour>
			<point x="292" y="284" type="curve"/>
			<point x="360" y="284" type="line"/>
			<point x="360" y="422"/>
			<point x="380" y="498"/>
			<point x="430" y="568" type="curve"/>
			<point x="222" y="568" type="line"/>
			<point x="272" y="498"/>
			<point x="292" y="422"/>
		</contour>
		<contour>
			<point x="222" y="0" type="curve"/>
			<point x="430" y="0" type="line"/>
			<point x="381" y="70"/>
			<point x="360" y="146"/>
			<point x="360" y="284" type="curve"/>
			<point x="292" y="284" type="line"/>
			<point x="292" y="146"/>
			<point x="271" y="70"/>
		</contour>
		<contour>
			<point x="54" y="182" type="line"/>
			<point x="122" y="230"/>
			<point x="194" y="252"/>
			<point x="326" y="252" type="curve"/>
			<point x="326" y="316" type="line"/>
			<point x="194" y="316"/>
			<point x="122" y="338"/>
			<point x="54" y="386" type="curve"/>
		</contour>
		<contour>
			<point x="602" y="182" type="curve"/>
			<point x="602" y="386" type="line"/>
			<point x="534" y="338"/>
			<point x="460" y="316"/>
			<point x="326" y="316" type="curve"/>
			<point x="326" y="252" type="line"/>
			<point x="460" y="252"/>
			<point x="534" y="230"/>
		</contour>
	</outline>
</glyph>
<glyph name="ugTet" format="2">
	<unicode hex="10389"/>
	<advance width="620"/>
	<outline>
		<contour>
			<point x="292" y="180" type="curve"/>
			<point x="360" y="180" type="line"/>
			<point x="360" y="370"/>
			<point x="366" y="480"/>
			<point x="430" y="568" type="curve"/>
			<point x="222" y="568" type="line"/>
			<point x="286" y="480"/>
			<point x="292" y="370"/>
		</contour>
		<contour>
			<point x="54" y="182" type="line"/>
			<point x="122" y="230"/>
			<point x="194" y="252"/>
			<point x="326" y="252" type="curve"/>
			<point x="326" y="316" type="line"/>
			<point x="194" y="316"/>
			<point x="122" y="338"/>
			<point x="54" y="386" type="curve"/>
		</contour>
		<contour>
			<point x="602" y="182" type="curve"/>
			<point x="602" y="386" type="line"/>
			<point x="534" y="338"/>
			<point x="460" y="316"/>
			<point x="326" y="316" type="curve"/>
			<point x="326" y="252" type="line"/>
			<point x="460" y="252"/>
			<point x="534" y="230"/>
		</contour>
	</outline>
</glyph>
<glyph name="ugKaf" format="2">
	<unicode hex="1038B"/>
	<advance width="630"/>
	<outline>
		<contour>
			<point x="54" y="292" type="line"/>
			<point x="119" y="330"/>
			<point x="192" y="352"/>
			<point x="322" y="352" type="curve"/>
			<point x="322" y="416" type="line"/>
			<point x="192" y="416"/>
			<point x="122" y="436"/>
			<point x="54" y="486" type="curve"/>
		</contour>
		<contour>
			<point x="334" y="182" type="line"/>
			<point x="404" y="232"/>
			<point x="482" y="252"/>
			<point x="622" y="252" type="curve"/>
			<point x="622" y="316" type="line"/>
			<point x="482" y="316"/>
			<point x="404" y="336"/>
			<point x="334" y="386" type="curve"/>
		</contour>
		<contour>
			<point x="54" y="82" type="line"/>
			<point x="122" y="132"/>
			<point x="192" y="152"/>
			<point x="322" y="152" type="curve"/>
			<point x="322" y="216" type="line"/>
			<point x="192" y="216"/>
			<point x="119" y="238"/>
			<point x="54" y="276" type="curve"/>
		</contour>
	</outline>
</glyph>
<glyph name="ugShin" format="2">
	<unicode hex="1038C"/>
	<advance width="794"/>
	<outline>
		<contour>
			<point x="374" y="0" type="curve"/>
			<point x="442" y="0" type="line"/>
			<point x="594" y="206"/>
			<point x="706" y="353"/>
			<point x="822" y="393" type="curve"/>
			<point x="658" y="522" type="line"/>
			<point x="647" y="413"/>
			<point x="564" y="276"/>
			<point x="440" y="106" type="curve"/>
			<point x="441" y="324"/>
			<point x="451" y="472"/>
			<point x="512" y="568" type="curve"/>
			<point x="304" y="568" type="line"/>
			<point x="365" y="472"/>
			<point x="375" y="324"/>
			<point x="376" y="106" type="curve"/>
			<point x="252" y="276"/>
			<point x="169" y="413"/>
			<point x="158" y="522" type="curve"/>
			<point x="-6" y="393" type="line"/>
			<point x="110" y="353"/>
			<point x="222" y="206"/>
		</contour>
	</outline>
</glyph>
<glyph name="ugMem" format="2">
	<unicode hex="1038E"/>
	<advance width="554"/>
	<outline>
		<contour>
			<point x="54" y="182" type="line"/>
			<point x="140" y="242"/>
			<point x="252" y="252"/>
			<point x="442" y="252" type="curve"/>
			<point x="442" y="316" type="line"/>
			<point x="252" y="316"/>
			<point x="140" y="326"/>
			<point x="54" y="386" type="curve"/>
		</contour>
		<component base="ugGamla" xOffset="240"/>
	</outline>
</glyph>
<glyph name="ugDhal" format="2">
	<unicode hex="1038F"/>
	<advance width="754"/>
	<outline>
		<contour>
			<point x="354" y="0" type="curve"/>
			<point x="422" y="0" type="line"/>
			<point x="560" y="202"/>
			<point x="672" y="354"/>
			<point x="782" y="393" type="curve"/>
			<point x="618" y="522" type="line"/>
			<point x="608" y="406"/>
			<point x="513" y="255"/>
			<point x="388" y="70" type="curve"/>
			<point x="263" y="255"/>
			<point x="168" y="406"/>
			<point x="158" y="522" type="curve"/>
			<point x="-6" y="393" type="line"/>
			<point x="104" y="354"/>
			<point x="216" y="202"/>
		</contour>
	</outline>
</glyph>
<glyph name="ugNun" format="2">
	<unicode hex="10390"/>
	<advance width="630"/>
	<outline>
		<contour>
			<point x="404" y="192" type="line"/>
			<point x="459" y="223"/>
			<point x="516" y="252"/>
			<point x="622" y="252" type="curve"/>
			<point x="622" y="316" type="line"/>
			<point x="516" y="316"/>
			<point x="459" y="345"/>
			<point x="404" y="376" type="curve"/>
		</contour>
		<contour>
			<point x="54" y="192" type="line"/>
			<point x="109" y="223"/>
			<point x="166" y="252"/>
			<point x="272" y="252" type="curve"/>
			<point x="272" y="316" type="line"/>
			<point x="166" y="316"/>
			<point x="109" y="345"/>
			<point x="54" y="376" type="curve"/>
		</contour>
		<contour>
			<point x="234" y="192" type="line"/>
			<point x="289" y="223"/>
			<point x="346" y="252"/>
			<point x="452" y="252" type="curve"/>
			<point x="452" y="316" type="line"/>
			<point x="346" y="316"/>
			<point x="289" y="345"/>
			<point x="234" y="376" type="curve"/>
		</contour>
	</outline>
</glyph>
<glyph name="ugZu" format="2">
	<unicode hex="10391"/>
	<advance width="520"/>
	<outline>
		<contour>
			<point x="54" y="292" type="line"/>
			<point x="119" y="330"/>
			<point x="250" y="352"/>
			<point x="452" y="352" type="curve"/>
			<point x="452" y="416" type="line"/>
			<point x="250" y="416"/>
			<point x="119" y="438"/>
			<point x="54" y="476" type="curve"/>
		</contour>
		<contour>
			<point x="54" y="92" type="line"/>
			<point x="119" y="130"/>
			<point x="250" y="152"/>
			<point x="452" y="152" type="curve"/>
			<point x="452" y="216" type="line"/>
			<point x="250" y="216"/>
			<point x="119" y="238"/>
			<point x="54" y="276" type="curve"/>
		</contour>
		<contour>
			<point x="531" y="68" type="line"/>
			<point x="536" y="70" type="line"/>
			<point x="435" y="214"/>
			<point x="435" y="354"/>
			<point x="536" y="498" type="curve"/>
			<point x="531" y="500" type="line"/>
			<point x="300" y="284" type="line"/>
		</contour>
	</outline>
</glyph>
<glyph name="ugSamka" format="2">
	<unicode hex="10392"/>
	<advance width="642"/>
	<outline>
		<contour>
			<point x="148" y="306" type="curve"/>
			<point x="230" y="306" type="line"/>
			<point x="230" y="462"/>
			<point x="256" y="546"/>
			<point x="314" y="625" type="curve"/>
			<point x="64" y="625" type="line"/>
			<point x="122" y="546"/>
			<point x="148" y="462"/>
		</contour>
		<contour>
			<point x="298" y="-57" type="curve"/>
			<point x="380" y="-57" type="line"/>
			<point x="380" y="111"/>
			<point x="404" y="205"/>
			<point x="464" y="289" type="curve"/>
			<point x="214" y="289" type="line"/>
			<point x="274" y="205"/>
			<point x="298" y="111"/>
		</contour>
		<contour>
			<point x="448" y="306" type="curve"/>
			<point x="530" y="306" type="line"/>
			<point x="530" y="462"/>
			<point x="556" y="546"/>
			<point x="614" y="625" type="curve"/>
			<point x="364" y="625" type="line"/>
			<point x="422" y="546"/>
			<point x="448" y="462"/>
		</contour>
	</outline>
	<guideline x="278" y="284" angle="90" identifier="EzLpBWMsFV"/>
</glyph>
<glyph name="ugAin" format="2">
	<unicode hex="10393"/>
	<advance width="358"/>
	<outline>
		<contour>
			<point x="-28" y="178" type="line"/>
			<point x="-26" y="172" type="line"/>
			<point x="118" y="276"/>
			<point x="258" y="276"/>
			<point x="402" y="172" type="curve"/>
			<point x="404" y="178" type="line"/>
			<point x="188" y="420" type="line"/>
		</contour>
	</outline>
</glyph>
<glyph name="ugQopa" format="2">
	<unicode hex="10396"/>
	<advance width="540"/>
	<outline>
		<contour>
			<point x="54" y="182" type="line"/>
			<point x="122" y="231"/>
			<point x="184" y="252"/>
			<point x="288" y="252" type="curve"/>
			<point x="288" y="316" type="line"/>
			<point x="184" y="316"/>
			<point x="122" y="337"/>
			<point x="54" y="386" type="curve"/>
		</contour>
		<contour>
			<point x="522" y="182" type="curve"/>
			<point x="522" y="386" type="line"/>
			<point x="460" y="342"/>
			<point x="392" y="316"/>
			<point x="288" y="316" type="curve"/>
			<point x="288" y="252" type="line"/>
			<point x="392" y="252"/>
			<point x="460" y="226"/>
		</contour>
	</outline>
	<guideline x="288" y="284" angle="90" identifier="ypaYjsbVDr"/>
</glyph>
<glyph name="ugRasha" format="2">
	<unicode hex="10397"/>
	<advance width="870"/>
	<outline>
		<contour>
			<point x="54" y="292" type="line"/>
			<point x="119" y="330"/>
			<point x="191" y="352"/>
			<point x="322" y="352" type="curve"/>
			<point x="322" y="416" type="line"/>
			<point x="191" y="416"/>
			<point x="122" y="436"/>
			<point x="54" y="486" type="curve"/>
		</contour>
		<contour>
			<point x="274" y="292" type="line"/>
			<point x="333" y="326"/>
			<point x="401" y="352"/>
			<point x="522" y="352" type="curve"/>
			<point x="522" y="416" type="line"/>
			<point x="401" y="416"/>
			<point x="336" y="441"/>
			<point x="274" y="486" type="curve"/>
		</contour>
		<contour>
			<point x="54" y="82" type="line"/>
			<point x="122" y="132"/>
			<point x="191" y="152"/>
			<point x="322" y="152" type="curve"/>
			<point x="322" y="216" type="line"/>
			<point x="191" y="216"/>
			<point x="119" y="238"/>
			<point x="54" y="276" type="curve"/>
		</contour>
		<contour>
			<point x="534" y="182" type="line"/>
			<point x="609" y="236"/>
			<point x="701" y="252"/>
			<point x="862" y="252" type="curve"/>
			<point x="862" y="316" type="line"/>
			<point x="701" y="316"/>
			<point x="609" y="332"/>
			<point x="534" y="386" type="curve"/>
		</contour>
		<contour>
			<point x="274" y="82" type="line"/>
			<point x="336" y="127"/>
			<point x="401" y="152"/>
			<point x="522" y="152" type="curve"/>
			<point x="522" y="216" type="line"/>
			<point x="401" y="216"/>
			<point x="333" y="242"/>
			<point x="274" y="276" type="curve"/>
		</contour>
	</outline>
</glyph>
<glyph name="ugThanna" format="2">
	<unicode hex="10398"/>
	<advance width="314"/>
	<outline>
		<contour>
			<point x="134" y="70" type="curve"/>
			<point x="202" y="70" type="line"/>
			<point x="202" y="234"/>
			<point x="218" y="312"/>
			<point x="272" y="388" type="curve"/>
			<point x="64" y="388" type="line"/>
			<point x="118" y="312"/>
			<point x="134" y="234"/>
		</contour>
		<contour>
			<point x="64" y="180" type="curve"/>
			<point x="272" y="180" type="line"/>
			<point x="222" y="250"/>
			<point x="202" y="352"/>
			<point x="202" y="498" type="curve"/>
			<point x="134" y="498" type="line"/>
			<point x="134" y="352"/>
			<point x="114" y="250"/>
		</contour>
	</outline>
</glyph>
<glyph name="ugTo" format="2">
	<unicode hex="1039A"/>
	<advance width="630"/>
	<outline>
		<contour>
			<point x="54" y="182" type="line"/>
			<point x="165" y="252"/>
			<point x="344" y="252"/>
			<point x="622" y="252" type="curve"/>
			<point x="622" y="316" type="line"/>
			<point x="344" y="316"/>
			<point x="165" y="316"/>
			<point x="54" y="386" type="curve"/>
		</contour>
	</outline>
</glyph>
<glyph name="ugI" format="2">
	<unicode hex="1039B"/>
	<advance width="630"/>
	<outline>
		<contour>
			<point x="194" y="-156" type="curve"/>
			<point x="262" y="-156" type="line"/>
			<point x="262" y="-91"/>
			<point x="295" y="-36"/>
			<point x="322" y="0" type="curve"/>
			<point x="134" y="0" type="line"/>
			<point x="161" y="-36"/>
			<point x="194" y="-91"/>
		</contour>
		<component base="ugHo"/>
	</outline>
</glyph>
<glyph name="ugU" format="2">
	<unicode hex="1039C"/>
	<advance width="630"/>
	<outline>
		<contour>
			<point x="114" y="220" type="curve"/>
			<point x="182" y="220" type="line"/>
			<point x="182" y="390"/>
			<point x="198" y="492"/>
			<point x="242" y="568" type="curve"/>
			<point x="44" y="568" type="line"/>
			<point x="99" y="490"/>
			<point x="114" y="390"/>
		</contour>
		<contour>
			<point x="306" y="220" type="curve"/>
			<point x="374" y="220" type="line"/>
			<point x="374" y="390"/>
			<point x="390" y="492"/>
			<point x="434" y="568" type="curve"/>
			<point x="246" y="568" type="line"/>
			<point x="290" y="492"/>
			<point x="306" y="390"/>
		</contour>
		<contour>
			<point x="498" y="220" type="curve"/>
			<point x="566" y="220" type="line"/>
			<point x="566" y="390"/>
			<point x="580" y="490"/>
			<point x="636" y="568" type="curve"/>
			<point x="438" y="568" type="line"/>
			<point x="482" y="492"/>
			<point x="498" y="390"/>
		</contour>
		<component base="ugTo" yOffset="-40"/>
	</outline>
</glyph>
<glyph name="ugSsu" format="2">
	<unicode hex="1039D"/>
	<advance width="674"/>
	<outline>
		<contour>
			<point x="434" y="404" type="line"/>
			<point x="462" y="441"/>
			<point x="494" y="500"/>
			<point x="494" y="568" type="curve"/>
			<point x="562" y="568" type="line"/>
			<point x="562" y="500"/>
			<point x="594" y="441"/>
			<point x="622" y="404" type="curve"/>
		</contour>
		<contour>
			<point x="74" y="404" type="line"/>
			<point x="102" y="441"/>
			<point x="134" y="500"/>
			<point x="134" y="568" type="curve"/>
			<point x="202" y="568" type="line"/>
			<point x="202" y="500"/>
			<point x="234" y="441"/>
			<point x="262" y="404" type="curve"/>
		</contour>
		<contour>
			<point x="434" y="0" type="line"/>
			<point x="462" y="37"/>
			<point x="494" y="96"/>
			<point x="494" y="164" type="curve"/>
			<point x="562" y="164" type="line"/>
			<point x="562" y="96"/>
			<point x="594" y="37"/>
			<point x="622" y="0" type="curve"/>
		</contour>
		<contour>
			<point x="74" y="0" type="line"/>
			<point x="102" y="37"/>
			<point x="134" y="96"/>
			<point x="134" y="164" type="curve"/>
			<point x="202" y="164" type="line"/>
			<point x="202" y="96"/>
			<point x="234" y="37"/>
			<point x="262" y="0" type="curve"/>
		</contour>
		<contour>
			<point x="434" y="202" type="line"/>
			<point x="462" y="240"/>
			<point x="494" y="298"/>
			<point x="494" y="366" type="curve"/>
			<point x="562" y="366" type="line"/>
			<point x="562" y="298"/>
			<point x="594" y="240"/>
			<point x="622" y="202" type="curve"/>
		</contour>
		<contour>
			<point x="74" y="202" type="line"/>
			<point x="102" y="240"/>
			<point x="134" y="298"/>
			<point x="134" y="366" type="curve"/>
			<point x="202" y="366" type="line"/>
			<point x="202" y="298"/>
			<point x="234" y="240"/>
			<point x="262" y="202" type="curve"/>
		</contour>
		<component base="ugGamla" xOffset="180"/>
	</outline>
</glyph>
<glyph name="ugword" format="2">
	<unicode hex="1039F"/>
	<advance width="314"/>
	<outline>
		<contour>
			<point x="134" y="182" type="curve"/>
			<point x="202" y="182" type="line"/>
			<point x="202" y="256"/>
			<point x="226" y="328"/>
			<point x="272" y="386" type="curve"/>
			<point x="64" y="386" type="line"/>
			<point x="110" y="328"/>
			<point x="134" y="256"/>
		</contour>
	</outline>
</glyph>
<glyph name="aiAleph" format="2">
	<unicode hex="10840"/>
	<advance width="642"/>
	<outline>
		<contour>
			<point x="452" y="-12" type="curve"/>
			<point x="638" y="40" type="line"/>
			<point x="484" y="172"/>
			<point x="286" y="392"/>
			<point x="202" y="576" type="curve"/>
			<point x="20" y="534" type="line"/>
			<point x="122" y="352"/>
			<point x="312" y="106"/>
		</contour>
		<contour>
			<point x="44" y="0" type="line"/>
			<point x="92" y="0" type="line" smooth="yes"/>
			<point x="430" y="0"/>
			<point x="582" y="308"/>
			<point x="582" y="504" type="curve" smooth="yes"/>
			<point x="582" y="527"/>
			<point x="583" y="545"/>
			<point x="580" y="568" type="curve"/>
			<point x="396" y="568" type="line"/>
			<point x="402" y="530"/>
			<point x="406" y="492"/>
			<point x="406" y="410" type="curve" smooth="yes"/>
			<point x="406" y="254"/>
			<point x="345" y="164"/>
			<point x="148" y="164" type="curve" smooth="yes"/>
			<point x="44" y="164" type="line"/>
		</contour>
	</outline>
	<guideline x="88" y="472" angle="90" identifier="Xn6NvC9d08"/>
</glyph>
<glyph name="aiBeth" format="2">
	<unicode hex="10841"/>
	<advance width="516"/>
	<outline>
		<contour>
			<point x="66" y="-168" type="line"/>
			<point x="207" y="-138"/>
			<point x="305" y="-73"/>
			<point x="378" y="10" type="curve" smooth="yes"/>
			<point x="449" y="91"/>
			<point x="478" y="182"/>
			<point x="478" y="342" type="curve" smooth="yes"/>
			<point x="478" y="498"/>
			<point x="414" y="568"/>
			<point x="282" y="568" type="curve" smooth="yes"/>
			<point x="270" y="568" type="line" smooth="yes"/>
			<point x="200" y="568"/>
			<point x="176" y="588"/>
			<point x="176" y="628" type="curve" smooth="yes"/>
			<point x="176" y="647"/>
			<point x="188" y="672"/>
			<point x="208" y="698" type="curve"/>
			<point x="94" y="754" type="line"/>
			<point x="45" y="682"/>
			<point x="28" y="616"/>
			<point x="28" y="560" type="curve" smooth="yes"/>
			<point x="28" y="446"/>
			<point x="92" y="396"/>
			<point x="216" y="396" type="curve" smooth="yes"/>
			<point x="222" y="396" type="line" smooth="yes"/>
			<point x="295" y="396"/>
			<point x="330" y="365"/>
			<point x="330" y="280" type="curve" smooth="yes"/>
			<point x="330" y="198"/>
			<point x="318" y="144"/>
			<point x="285" y="100" type="curve" smooth="yes"/>
			<point x="230" y="28"/>
			<point x="146" y="-20"/>
			<point x="10" y="-38" type="curve"/>
		</contour>
	</outline>
</glyph>
<glyph name="aiGimel" format="2">
	<unicode hex="10842"/>
	<advance width="650"/>
	<outline>
		<contour>
			<point x="14" y="-12" type="curve"/>
			<point x="174" y="16" type="line"/>
			<point x="214" y="146"/>
			<point x="248" y="292"/>
			<point x="264" y="350" type="curve" smooth="yes"/>
			<point x="276" y="392"/>
			<point x="286" y="406"/>
			<point x="306" y="406" type="curve" smooth="yes"/>
			<point x="338" y="406"/>
			<point x="390" y="324"/>
			<point x="446" y="-12" type="curve"/>
			<point x="626" y="20" type="line"/>
			<point x="562" y="428"/>
			<point x="440" y="576"/>
			<point x="328" y="576" type="curve" smooth="yes"/>
			<point x="240" y="576"/>
			<point x="188" y="532"/>
			<point x="150" y="404" type="curve" smooth="yes"/>
			<point x="114" y="284"/>
			<point x="80" y="182"/>
		</contour>
	</outline>
</glyph>
<glyph name="aiDaleth" format="2">
	<unicode hex="10843"/>
	<advance width="538"/>
	<outline>
		<contour>
			<point x="14" y="396" type="line"/>
			<point x="504" y="396" type="line"/>
			<point x="504" y="568" type="line"/>
			<point x="14" y="568" type="line"/>
		</contour>
		<contour>
			<point x="264" y="0" type="line"/>
			<point x="412" y="0" type="line"/>
			<point x="412" y="396" type="line"/>
			<point x="288" y="396" type="line"/>
			<point x="274" y="352"/>
			<point x="264" y="306"/>
			<point x="264" y="246" type="curve" smooth="yes"/>
		</contour>
	</outline>
</glyph>
<glyph name="aiHe" format="2">
	<unicode hex="10844"/>
	<advance width="650"/>
	<outline>
		<contour>
			<point x="180" y="0" type="line"/>
			<point x="245" y="140"/>
			<point x="310" y="302"/>
			<point x="310" y="408" type="curve" smooth="yes"/>
			<point x="310" y="514"/>
			<point x="258" y="568"/>
			<point x="98" y="568" type="curve" smooth="yes"/>
			<point x="4" y="568" type="line"/>
			<point x="4" y="396" type="line"/>
			<point x="82" y="396" type="line" smooth="yes"/>
			<point x="140" y="396"/>
			<point x="162" y="386"/>
			<point x="162" y="346" type="curve" smooth="yes"/>
			<point x="162" y="298"/>
			<point x="73" y="126"/>
			<point x="0" y="0" type="curve"/>
		</contour>
		<contour>
			<point x="452" y="-12" type="curve"/>
			<point x="632" y="4" type="line"/>
			<point x="598" y="360"/>
			<point x="450" y="526"/>
			<point x="262" y="576" type="curve"/>
			<point x="110" y="494" type="line"/>
			<point x="318" y="420"/>
			<point x="434" y="288"/>
		</contour>
	</outline>
</glyph>
<glyph name="aiZayin" format="2">
	<unicode hex="10846"/>
	<advance width="314"/>
	<outline>
		<contour>
			<point x="94" y="0" type="line"/>
			<point x="242" y="0" type="line"/>
			<point x="242" y="568" type="line"/>
			<point x="94" y="568" type="line"/>
		</contour>
	</outline>
</glyph>
<glyph name="aiHeth" format="2">
	<unicode hex="10847"/>
	<advance width="682"/>
	<outline>
		<contour>
			<point x="462" y="0" type="line"/>
			<point x="610" y="0" type="line"/>
			<point x="610" y="352" type="line" smooth="yes"/>
			<point x="610" y="508"/>
			<point x="526" y="568"/>
			<point x="404" y="568" type="curve" smooth="yes"/>
			<point x="164" y="568" type="line"/>
			<point x="164" y="396" type="line"/>
			<point x="332" y="396" type="line" smooth="yes"/>
			<point x="412" y="396"/>
			<point x="462" y="368"/>
			<point x="462" y="270" type="curve" smooth="yes"/>
		</contour>
		<contour>
			<point x="94" y="0" type="line"/>
			<point x="242" y="0" type="line"/>
			<point x="242" y="722" type="line"/>
			<point x="94" y="722" type="line"/>
		</contour>
	</outline>
</glyph>
<glyph name="aiTeth" format="2">
	<unicode hex="10848"/>
	<advance width="626"/>
	<outline>
		<contour>
			<point x="332" y="-12" type="curve" smooth="yes"/>
			<point x="488" y="-12"/>
			<point x="598" y="166"/>
			<point x="598" y="364" type="curve" smooth="yes"/>
			<point x="598" y="506"/>
			<point x="550" y="568"/>
			<point x="406" y="568" type="curve" smooth="yes"/>
			<point x="168" y="568" type="line"/>
			<point x="168" y="396" type="line"/>
			<point x="376" y="396" type="line" smooth="yes"/>
			<point x="431" y="396"/>
			<point x="450" y="372"/>
			<point x="450" y="324" type="curve" smooth="yes"/>
			<point x="450" y="246"/>
			<point x="414" y="158"/>
			<point x="350" y="158" type="curve" smooth="yes"/>
			<point x="306" y="158"/>
			<point x="223" y="168"/>
			<point x="223" y="420" type="curve" smooth="yes"/>
			<point x="223" y="503"/>
			<point x="232" y="611"/>
			<point x="254" y="754" type="curve"/>
			<point x="74" y="738" type="line"/>
			<point x="58" y="624"/>
			<point x="48" y="526"/>
			<point x="48" y="441" type="curve" smooth="yes"/>
			<point x="48" y="74"/>
			<point x="214" y="-12"/>
		</contour>
	</outline>
</glyph>
<glyph name="aiYodh" format="2">
	<unicode hex="10849"/>
	<advance width="630"/>
	<outline>
		<contour>
			<point x="54" y="220" type="line"/>
			<point x="202" y="220" type="line"/>
			<point x="242" y="742" type="line"/>
			<point x="94" y="742" type="line"/>
		</contour>
		<contour>
			<point x="54" y="150" type="curve"/>
			<point x="214" y="178" type="line"/>
			<point x="214" y="388"/>
			<point x="252" y="410"/>
			<point x="310" y="410" type="curve" smooth="yes"/>
			<point x="368" y="410"/>
			<point x="406" y="384"/>
			<point x="406" y="150" type="curve"/>
			<point x="586" y="182" type="line"/>
			<point x="580" y="488"/>
			<point x="472" y="580"/>
			<point x="328" y="580" type="curve" smooth="yes"/>
			<point x="173" y="580"/>
			<point x="60" y="480"/>
		</contour>
	</outline>
</glyph>
<glyph name="aiKaph" format="2">
	<unicode hex="1084A"/>
	<advance width="638"/>
	<outline>
		<contour>
			<point x="292" y="146" type="curve" smooth="yes"/>
			<point x="426" y="146"/>
			<point x="540" y="266"/>
			<point x="566" y="576" type="curve"/>
			<point x="406" y="548" type="line"/>
			<point x="406" y="338"/>
			<point x="368" y="316"/>
			<point x="310" y="316" type="curve" smooth="yes"/>
			<point x="252" y="316"/>
			<point x="214" y="342"/>
			<point x="214" y="576" type="curve"/>
			<point x="34" y="544" type="line"/>
			<point x="40" y="238"/>
			<point x="148" y="146"/>
		</contour>
		<contour>
			<point x="418" y="-156" type="line"/>
			<point x="566" y="-156" type="line"/>
			<point x="566" y="576" type="line"/>
			<point x="442" y="396" type="line"/>
			<point x="428" y="352"/>
			<point x="418" y="306"/>
			<point x="418" y="246" type="curve" smooth="yes"/>
		</contour>
	</outline>
</glyph>
<glyph name="aiLamedh" format="2">
	<unicode hex="1084B"/>
	<advance width="440"/>
	<outline>
		<contour>
			<point x="270" y="0" type="curve" smooth="yes"/>
			<point x="406" y="0" type="line"/>
			<point x="406" y="172" type="line"/>
			<point x="286" y="172" type="line" smooth="yes"/>
			<point x="228" y="172"/>
			<point x="206" y="182"/>
			<point x="206" y="222" type="curve" smooth="yes"/>
			<point x="206" y="317"/>
			<point x="302" y="509"/>
			<point x="486" y="644" type="curve"/>
			<point x="400" y="754" type="line"/>
			<point x="178" y="572"/>
			<point x="58" y="380"/>
			<point x="58" y="170" type="curve" smooth="yes"/>
			<point x="58" y="51"/>
			<point x="130" y="0"/>
		</contour>
	</outline>
	<guideline x="85" y="742" angle="0" identifier="9V9V0tdXPP"/>
</glyph>
<glyph name="aiMem" format="2">
	<unicode hex="1084C"/>
	<advance width="608"/>
	<outline>
		<contour>
			<point x="218" y="-168" type="line"/>
			<point x="464" y="64"/>
			<point x="570" y="232"/>
			<point x="570" y="408" type="curve" smooth="yes"/>
			<point x="570" y="514"/>
			<point x="518" y="568"/>
			<point x="358" y="568" type="curve" smooth="yes"/>
			<point x="270" y="568" type="line" smooth="yes"/>
			<point x="200" y="568"/>
			<point x="176" y="588"/>
			<point x="176" y="628" type="curve" smooth="yes"/>
			<point x="176" y="647"/>
			<point x="188" y="672"/>
			<point x="208" y="698" type="curve"/>
			<point x="94" y="754" type="line"/>
			<point x="45" y="682"/>
			<point x="28" y="616"/>
			<point x="28" y="560" type="curve" smooth="yes"/>
			<point x="28" y="446"/>
			<point x="86" y="396"/>
			<point x="216" y="396" type="curve" smooth="yes"/>
			<point x="342" y="396" type="line" smooth="yes"/>
			<point x="400" y="396"/>
			<point x="422" y="386"/>
			<point x="422" y="346" type="curve" smooth="yes"/>
			<point x="422" y="260"/>
			<point x="348" y="140"/>
			<point x="122" y="-38" type="curve"/>
		</contour>
		<contour>
			<point x="160" y="158" type="line"/>
			<point x="340" y="269"/>
			<point x="412" y="484"/>
			<point x="412" y="680" type="curve" smooth="yes"/>
			<point x="412" y="703"/>
			<point x="413" y="721"/>
			<point x="410" y="744" type="curve"/>
			<point x="254" y="744" type="line"/>
			<point x="260" y="706"/>
			<point x="264" y="668"/>
			<point x="264" y="586" type="curve" smooth="yes"/>
			<point x="264" y="417"/>
			<point x="209" y="372"/>
			<point x="61" y="281" type="curve"/>
		</contour>
	</outline>
</glyph>
<glyph name="aiNun" format="2">
	<unicode hex="1084D"/>
	<advance width="468"/>
	<outline>
		<contour>
			<point x="98" y="-168" type="line"/>
			<point x="344" y="28"/>
			<point x="430" y="181"/>
			<point x="430" y="348" type="curve" smooth="yes"/>
			<point x="430" y="601"/>
			<point x="176" y="488"/>
			<point x="176" y="698" type="curve" smooth="yes"/>
			<point x="176" y="722"/>
			<point x="184" y="757"/>
			<point x="208" y="788" type="curve"/>
			<point x="94" y="844" type="line"/>
			<point x="43" y="768"/>
			<point x="28" y="696"/>
			<point x="28" y="636" type="curve" smooth="yes"/>
			<point x="28" y="370"/>
			<point x="282" y="505"/>
			<point x="282" y="286" type="curve" smooth="yes"/>
			<point x="282" y="204"/>
			<point x="225" y="105"/>
			<point x="2" y="-38" type="curve"/>
		</contour>
	</outline>
</glyph>
<glyph name="aiSamekh" format="2">
	<unicode hex="1084E"/>
	<advance width="626"/>
	<outline>
		<contour>
			<point x="332" y="-12" type="curve" smooth="yes"/>
			<point x="488" y="-12"/>
			<point x="598" y="166"/>
			<point x="598" y="364" type="curve" smooth="yes"/>
			<point x="598" y="506"/>
			<point x="550" y="568"/>
			<point x="406" y="568" type="curve" smooth="yes"/>
			<point x="4" y="568" type="line"/>
			<point x="4" y="396" type="line"/>
			<point x="376" y="396" type="line" smooth="yes"/>
			<point x="431" y="396"/>
			<point x="450" y="372"/>
			<point x="450" y="324" type="curve" smooth="yes"/>
			<point x="450" y="246"/>
			<point x="414" y="158"/>
			<point x="350" y="158" type="curve" smooth="yes"/>
			<point x="278" y="158"/>
			<point x="226" y="184"/>
			<point x="222" y="474" type="curve"/>
			<point x="74" y="424" type="line"/>
			<point x="76" y="98"/>
			<point x="180" y="-12"/>
		</contour>
	</outline>
</glyph>
<glyph name="aiAyin" format="2">
	<unicode hex="1084F"/>
	<advance width="650"/>
	<outline>
		<contour>
			<point x="312" y="-12" type="curve" smooth="yes"/>
			<point x="478" y="-12"/>
			<point x="606" y="106"/>
			<point x="606" y="576" type="curve"/>
			<point x="446" y="548" type="line"/>
			<point x="446" y="195"/>
			<point x="400" y="158"/>
			<point x="330" y="158" type="curve" smooth="yes"/>
			<point x="260" y="158"/>
			<point x="214" y="200"/>
			<point x="214" y="576" type="curve"/>
			<point x="34" y="544" type="line"/>
			<point x="34" y="96"/>
			<point x="157" y="-12"/>
		</contour>
	</outline>
</glyph>
<glyph name="aiPe" format="2">
	<unicode hex="10850"/>
	<advance width="528"/>
	<outline>
		<contour>
			<point x="138" y="-168" type="line"/>
			<point x="404" y="44"/>
			<point x="490" y="222"/>
			<point x="490" y="408" type="curve" smooth="yes"/>
			<point x="490" y="514"/>
			<point x="438" y="568"/>
			<point x="278" y="568" type="curve" smooth="yes"/>
			<point x="56" y="568" type="line"/>
			<point x="56" y="396" type="line"/>
			<point x="262" y="396" type="line" smooth="yes"/>
			<point x="320" y="396"/>
			<point x="342" y="386"/>
			<point x="342" y="346" type="curve" smooth="yes"/>
			<point x="342" y="249"/>
			<point x="288" y="120"/>
			<point x="42" y="-38" type="curve"/>
		</contour>
	</outline>
</glyph>
<glyph name="aiSadhe" format="2">
	<unicode hex="10851"/>
	<advance width="586"/>
	<outline>
		<contour>
			<point x="44" y="0" type="line"/>
			<point x="530" y="0" type="line"/>
			<point x="560" y="164" type="line"/>
			<point x="44" y="164" type="line"/>
		</contour>
		<contour>
			<point x="450" y="98" type="curve"/>
			<point x="560" y="164" type="line"/>
			<point x="366" y="233"/>
			<point x="234" y="374"/>
			<point x="180" y="576" type="curve"/>
			<point x="0" y="544" type="line"/>
			<point x="74" y="288"/>
			<point x="226" y="174"/>
		</contour>
		<contour>
			<point x="412" y="190" type="line"/>
			<point x="522" y="273"/>
			<point x="558" y="347"/>
			<point x="558" y="424" type="curve" smooth="yes"/>
			<point x="558" y="525"/>
			<point x="504" y="568"/>
			<point x="380" y="568" type="curve" smooth="yes"/>
			<point x="308" y="568" type="line"/>
			<point x="308" y="396" type="line"/>
			<point x="316" y="396" type="line" smooth="yes"/>
			<point x="386" y="396"/>
			<point x="410" y="380"/>
			<point x="410" y="348" type="curve" smooth="yes"/>
			<point x="410" y="324"/>
			<point x="390" y="304"/>
			<point x="342" y="274" type="curve"/>
		</contour>
	</outline>
</glyph>
<glyph name="aiQoph" format="2">
	<unicode hex="10852"/>
	<advance width="588"/>
	<outline>
		<contour>
			<point x="412" y="88" type="line"/>
			<point x="512" y="204"/>
			<point x="550" y="301"/>
			<point x="550" y="408" type="curve" smooth="yes"/>
			<point x="550" y="513"/>
			<point x="498" y="568"/>
			<point x="338" y="568" type="curve" smooth="yes"/>
			<point x="230" y="568" type="line" smooth="yes"/>
			<point x="175" y="568"/>
			<point x="156" y="584"/>
			<point x="156" y="620" type="curve" smooth="yes"/>
			<point x="156" y="646"/>
			<point x="156" y="672"/>
			<point x="160" y="722" type="curve"/>
			<point x="20" y="722" type="line"/>
			<point x="10" y="666"/>
			<point x="8" y="607"/>
			<point x="8" y="560" type="curve" smooth="yes"/>
			<point x="8" y="456"/>
			<point x="74" y="396"/>
			<point x="176" y="396" type="curve" smooth="yes"/>
			<point x="322" y="396" type="line" smooth="yes"/>
			<point x="379" y="396"/>
			<point x="402" y="386"/>
			<point x="402" y="346" type="curve" smooth="yes"/>
			<point x="402" y="298"/>
			<point x="374" y="246"/>
			<point x="306" y="184" type="curve"/>
		</contour>
		<contour>
			<point x="118" y="-156" type="line"/>
			<point x="266" y="-156" type="line"/>
			<point x="266" y="566" type="line"/>
			<point x="142" y="566" type="line"/>
			<point x="128" y="522"/>
			<point x="118" y="476"/>
			<point x="118" y="416" type="curve" smooth="yes"/>
		</contour>
	</outline>
</glyph>
<glyph name="aiResh" format="2">
	<unicode hex="10853"/>
	<advance width="546"/>
	<outline>
		<contour>
			<point x="326" y="0" type="line"/>
			<point x="474" y="0" type="line"/>
			<point x="474" y="522" type="line"/>
			<point x="384" y="576" type="line"/>
			<point x="343" y="560"/>
			<point x="308" y="558"/>
			<point x="270" y="558" type="curve" smooth="yes"/>
			<point x="200" y="558"/>
			<point x="176" y="577"/>
			<point x="176" y="620" type="curve" smooth="yes"/>
			<point x="176" y="648"/>
			<point x="176" y="676"/>
			<point x="180" y="730" type="curve"/>
			<point x="40" y="718" type="line"/>
			<point x="30" y="663"/>
			<point x="28" y="606"/>
			<point x="28" y="560" type="curve" smooth="yes"/>
			<point x="28" y="446"/>
			<point x="106" y="388"/>
			<point x="236" y="388" type="curve" smooth="yes"/>
			<point x="267" y="388"/>
			<point x="294" y="394"/>
			<point x="324" y="402" type="curve"/>
		</contour>
	</outline>
</glyph>
<glyph name="aiShin" format="2">
	<unicode hex="10854"/>
	<advance width="742"/>
	<outline>
		<contour>
			<point x="352" y="-12" type="curve" smooth="yes"/>
			<point x="558" y="-12"/>
			<point x="708" y="190"/>
			<point x="726" y="568" type="curve"/>
			<point x="566" y="568" type="line"/>
			<point x="566" y="276"/>
			<point x="492" y="158"/>
			<point x="374" y="158" type="curve" smooth="yes"/>
			<point x="291" y="158"/>
			<point x="202" y="235"/>
			<point x="204" y="576" type="curve"/>
			<point x="24" y="560" type="line"/>
			<point x="30" y="138"/>
			<point x="180" y="-12"/>
		</contour>
		<contour>
			<point x="260" y="160" type="line"/>
			<point x="410" y="256"/>
			<point x="466" y="352"/>
			<point x="466" y="576" type="curve"/>
			<point x="306" y="562" type="line"/>
			<point x="306" y="393"/>
			<point x="278" y="312"/>
			<point x="206" y="250" type="curve"/>
		</contour>
	</outline>
</glyph>
<glyph name="aiTaw" format="2">
	<unicode hex="10855"/>
	<advance width="692"/>
	<outline>
		<contour>
			<point x="472" y="0" type="line"/>
			<point x="620" y="0" type="line"/>
			<point x="620" y="352" type="line" smooth="yes"/>
			<point x="620" y="508"/>
			<point x="536" y="568"/>
			<point x="414" y="568" type="curve" smooth="yes"/>
			<point x="84" y="568" type="line"/>
			<point x="84" y="396" type="line"/>
			<point x="342" y="396" type="line" smooth="yes"/>
			<point x="422" y="396"/>
			<point x="472" y="368"/>
			<point x="472" y="270" type="curve" smooth="yes"/>
		</contour>
		<contour>
			<point x="44" y="0" type="line"/>
			<point x="262" y="0" type="line"/>
			<point x="284" y="120" type="line"/>
			<point x="270" y="204"/>
			<point x="262" y="266"/>
			<point x="262" y="352" type="curve" smooth="yes"/>
			<point x="262" y="396" type="line"/>
			<point x="138" y="396" type="line"/>
			<point x="128" y="368"/>
			<point x="120" y="332"/>
			<point x="120" y="288" type="curve" smooth="yes"/>
			<point x="120" y="256"/>
			<point x="122" y="222"/>
			<point x="128" y="164" type="curve"/>
			<point x="44" y="164" type="line"/>
		</contour>
	</outline>
</glyph>
<glyph name="pmAleph" format="2">
	<unicode hex="10860"/>
	<advance width="642"/>
	<outline>
		<contour>
			<point x="32" y="43"/>
			<point x="86" y="0"/>
			<point x="210" y="0" type="curve" smooth="yes"/>
			<point x="292" y="0" type="line"/>
			<point x="292" y="172" type="line"/>
			<point x="274" y="172" type="line" smooth="yes"/>
			<point x="204" y="172"/>
			<point x="180" y="188"/>
			<point x="180" y="220" type="curve" smooth="yes"/>
			<point x="180" y="242"/>
			<point x="200" y="264"/>
			<point x="244" y="294" type="curve"/>
			<point x="178" y="378" type="line"/>
			<point x="68" y="294"/>
			<point x="32" y="240"/>
			<point x="32" y="144" type="curve" smooth="yes"/>
		</contour>
		<contour>
			<point x="486" y="200" type="line"/>
			<point x="551" y="273"/>
			<point x="594" y="400"/>
			<point x="594" y="524" type="curve" smooth="yes"/>
			<point x="594" y="540"/>
			<point x="594" y="552"/>
			<point x="592" y="568" type="curve"/>
			<point x="408" y="568" type="line"/>
			<point x="414" y="530"/>
			<point x="418" y="492"/>
			<point x="418" y="456" type="curve" smooth="yes"/>
			<point x="418" y="388"/>
			<point x="418" y="312"/>
			<point x="386" y="228" type="curve"/>
		</contour>
		<contour>
			<point x="492" y="-12" type="curve"/>
			<point x="678" y="40" type="line"/>
			<point x="524" y="172"/>
			<point x="326" y="392"/>
			<point x="242" y="576" type="curve"/>
			<point x="60" y="534" type="line"/>
			<point x="162" y="352"/>
			<point x="352" y="106"/>
		</contour>
	</outline>
	<anchor name="aboveHE" x="255" y="590"/>
	<anchor name="belowPrimaryHE" x="290" y="-22"/>
	<anchor name="aboveLeftHE" x="-15" y="590"/>
	<anchor name="centerHE" x="250" y="90"/>
	<guideline x="88" y="472" angle="90" identifier="Xn6NvC9d08"/>
</glyph>
<glyph name="pmDaleth" format="2">
	<unicode hex="10863"/>
	<advance width="538"/>
	<outline>
		<contour>
			<point x="14" y="396" type="line"/>
			<point x="504" y="396" type="line"/>
			<point x="504" y="568" type="line"/>
			<point x="14" y="568" type="line"/>
		</contour>
		<contour>
			<point x="264" y="0" type="line"/>
			<point x="412" y="0" type="line"/>
			<point x="412" y="396" type="line"/>
			<point x="288" y="396" type="line"/>
			<point x="274" y="352"/>
			<point x="264" y="306"/>
			<point x="264" y="246" type="curve" smooth="yes"/>
		</contour>
	</outline>
</glyph>
<glyph name="pmZayin" format="2">
	<unicode hex="10866"/>
	<advance width="398"/>
	<outline>
		<contour>
			<point x="14" y="396" type="line"/>
			<point x="364" y="396" type="line"/>
			<point x="364" y="568" type="line"/>
			<point x="14" y="568" type="line"/>
		</contour>
		<contour>
			<point x="136" y="0" type="curve"/>
			<point x="284" y="0" type="line"/>
			<point x="268" y="144"/>
			<point x="256" y="214"/>
			<point x="256" y="292" type="curve" smooth="yes"/>
			<point x="256" y="340"/>
			<point x="256" y="360"/>
			<point x="262" y="396" type="curve"/>
			<point x="138" y="396" type="line"/>
			<point x="122" y="366"/>
			<point x="110" y="326"/>
			<point x="110" y="278" type="curve" smooth="yes"/>
			<point x="110" y="226"/>
			<point x="122" y="128"/>
		</contour>
	</outline>
</glyph>
<glyph name="pmMem" format="2">
	<unicode hex="1086C"/>
	<advance width="790"/>
	<outline>
		<contour>
			<point x="570" y="568" type="line"/>
			<point x="570" y="-168" type="line"/>
			<point x="718" y="-148" type="line"/>
			<point x="718" y="568" type="line"/>
		</contour>
		<contour>
			<point x="292" y="144" type="curve" smooth="yes"/>
			<point x="506" y="144"/>
			<point x="658" y="291"/>
			<point x="658" y="564" type="curve"/>
			<point x="570" y="564" type="line"/>
			<point x="570" y="446"/>
			<point x="490" y="314"/>
			<point x="350" y="314" type="curve" smooth="yes"/>
			<point x="262" y="314"/>
			<point x="204" y="339"/>
			<point x="204" y="576" type="curve"/>
			<point x="24" y="544" type="line"/>
			<point x="31" y="236"/>
			<point x="142" y="144"/>
		</contour>
		<contour>
			<point x="300" y="68" type="line"/>
			<point x="448" y="100" type="line"/>
			<point x="448" y="576" type="line"/>
			<point x="300" y="544" type="line"/>
		</contour>
	</outline>
</glyph>
<glyph name="pmNun" format="2">
	<unicode hex="1086E"/>
	<advance width="452"/>
	<outline>
		<contour>
			<point x="44" y="0" type="line"/>
			<point x="380" y="0" type="line"/>
			<point x="380" y="372" type="line" smooth="yes"/>
			<point x="380" y="514"/>
			<point x="300" y="568"/>
			<point x="184" y="568" type="curve" smooth="yes"/>
			<point x="84" y="568" type="line"/>
			<point x="84" y="396" type="line"/>
			<point x="122" y="396" type="line" smooth="yes"/>
			<point x="190" y="396"/>
			<point x="232" y="372"/>
			<point x="232" y="290" type="curve" smooth="yes"/>
			<point x="232" y="164" type="line"/>
			<point x="44" y="164" type="line"/>
		</contour>
	</outline>
</glyph>
<glyph name="pmPe" format="2">
	<unicode hex="10871"/>
	<advance width="620"/>
	<outline>
		<contour>
			<point x="44" y="-12" type="line"/>
			<point x="536" y="-12" type="line"/>
			<point x="548" y="94"/>
			<point x="556" y="186"/>
			<point x="556" y="302" type="curve" smooth="yes"/>
			<point x="556" y="514"/>
			<point x="470" y="580"/>
			<point x="296" y="580" type="curve" smooth="yes"/>
			<point x="172" y="580"/>
			<point x="62" y="500"/>
			<point x="62" y="364" type="curve" smooth="yes"/>
			<point x="62" y="266"/>
			<point x="116" y="200"/>
			<point x="240" y="200" type="curve" smooth="yes"/>
			<point x="292" y="200" type="line"/>
			<point x="292" y="352" type="line"/>
			<point x="264" y="352" type="line" smooth="yes"/>
			<point x="224" y="352"/>
			<point x="210" y="361"/>
			<point x="210" y="380" type="curve" smooth="yes"/>
			<point x="210" y="396"/>
			<point x="228" y="408"/>
			<point x="258" y="408" type="curve" smooth="yes"/>
			<point x="374" y="408"/>
			<point x="408" y="358"/>
			<point x="408" y="220" type="curve" smooth="yes"/>
			<point x="408" y="202"/>
			<point x="407" y="170"/>
			<point x="406" y="152" type="curve"/>
			<point x="44" y="152" type="line"/>
		</contour>
	</outline>
</glyph>
<glyph name="pmResh" format="2">
	<unicode hex="10874"/>
	<advance width="512"/>
	<outline>
		<contour>
			<point x="292" y="0" type="line"/>
			<point x="440" y="0" type="line"/>
			<point x="440" y="352" type="line" smooth="yes"/>
			<point x="440" y="508"/>
			<point x="356" y="568"/>
			<point x="234" y="568" type="curve" smooth="yes"/>
			<point x="14" y="568" type="line"/>
			<point x="14" y="396" type="line"/>
			<point x="162" y="396" type="line" smooth="yes"/>
			<point x="242" y="396"/>
			<point x="292" y="368"/>
			<point x="292" y="270" type="curve" smooth="yes"/>
		</contour>
	</outline>
</glyph>
<glyph name="pmShin" format="2">
	<unicode hex="10875"/>
	<advance width="742"/>
	<outline>
		<contour>
			<point x="190" y="-12" type="curve"/>
			<point x="558" y="-12"/>
			<point x="728" y="124"/>
			<point x="736" y="576" type="curve"/>
			<point x="556" y="544" type="line"/>
			<point x="556" y="236"/>
			<point x="495" y="171"/>
			<point x="296" y="160" type="curve"/>
			<point x="268" y="326"/>
			<point x="226" y="480"/>
			<point x="180" y="576" type="curve"/>
			<point x="0" y="544" type="line"/>
			<point x="80" y="394"/>
			<point x="156" y="202"/>
		</contour>
		<contour>
			<point x="284" y="62" type="line"/>
			<point x="416" y="143"/>
			<point x="481" y="301"/>
			<point x="486" y="576" type="curve"/>
			<point x="306" y="544" type="line"/>
			<point x="306" y="372"/>
			<point x="288" y="236"/>
			<point x="236" y="182" type="curve"/>
		</contour>
	</outline>
</glyph>
<glyph name="hrAleph" format="2">
	<unicode hex="108E0"/>
	<advance width="672"/>
	<outline>
		<contour>
			<point x="64" y="0" type="line"/>
			<point x="394" y="0" type="line" smooth="yes"/>
			<point x="516" y="0"/>
			<point x="600" y="60"/>
			<point x="600" y="216" type="curve" smooth="yes"/>
			<point x="600" y="568" type="line"/>
			<point x="452" y="568" type="line"/>
			<point x="452" y="298" type="line" smooth="yes"/>
			<point x="452" y="200"/>
			<point x="402" y="172"/>
			<point x="322" y="172" type="curve" smooth="yes"/>
			<point x="64" y="172" type="line"/>
		</contour>
		<contour>
			<point x="140" y="394"/>
			<point x="222" y="200"/>
			<point x="247" y="16" type="curve"/>
			<point x="372" y="52" type="line"/>
			<point x="346" y="257"/>
			<point x="296" y="460"/>
			<point x="240" y="576" type="curve"/>
			<point x="60" y="544" type="line"/>
		</contour>
	</outline>
</glyph>
<glyph name="hrBeth" format="2">
	<unicode hex="108E1"/>
	<advance width="506"/>
	<outline>
		<contour>
			<point x="44" y="0" type="line"/>
			<point x="153" y="0" type="line" smooth="yes"/>
			<point x="347" y="0"/>
			<point x="478" y="145"/>
			<point x="478" y="332" type="curve" smooth="yes"/>
			<point x="478" y="455"/>
			<point x="364" y="574"/>
			<point x="202" y="582" type="curve"/>
			<point x="162" y="410" type="line"/>
			<point x="244" y="404"/>
			<point x="330" y="369"/>
			<point x="330" y="290" type="curve" smooth="yes"/>
			<point x="330" y="218"/>
			<point x="277" y="166"/>
			<point x="170" y="166" type="curve" smooth="yes"/>
			<point x="44" y="166" type="line"/>
		</contour>
	</outline>
</glyph>
<glyph name="hrGimel" format="2">
	<unicode hex="108E2"/>
	<advance width="586"/>
	<outline>
		<contour>
			<point x="44" y="0" type="line"/>
			<point x="530" y="0" type="line"/>
			<point x="556" y="144" type="line"/>
			<point x="362" y="224"/>
			<point x="234" y="364"/>
			<point x="180" y="576" type="curve"/>
			<point x="0" y="550" type="line"/>
			<point x="55" y="340"/>
			<point x="150" y="236"/>
			<point x="300" y="150" type="curve"/>
			<point x="324" y="164" type="line"/>
			<point x="44" y="164" type="line"/>
		</contour>
	</outline>
	<anchor name="aboveHE" x="280" y="590"/>
	<anchor name="belowPrimaryHE" x="290" y="-22"/>
	<anchor name="centerHE" x="80" y="240"/>
	<anchor name="aboveLeftHE" x="0" y="590"/>
</glyph>
<glyph name="hrWaw" format="2">
	<unicode hex="108E5"/>
	<advance width="408"/>
	<outline>
		<contour>
			<point x="188" y="-12" type="line"/>
			<point x="347" y="81"/>
			<point x="380" y="209"/>
			<point x="380" y="332" type="curve" smooth="yes"/>
			<point x="380" y="452"/>
			<point x="278" y="571"/>
			<point x="134" y="578" type="curve"/>
			<point x="94" y="406" type="line"/>
			<point x="161" y="401"/>
			<point x="232" y="365"/>
			<point x="232" y="290" type="curve" smooth="yes"/>
			<point x="232" y="240"/>
			<point x="212" y="182"/>
			<point x="102" y="128" type="curve"/>
		</contour>
	</outline>
</glyph>
<glyph name="hrHeth" format="2">
	<unicode hex="108E7"/>
	<advance width="650"/>
	<outline>
		<contour>
			<point x="72" y="0" type="line"/>
			<point x="220" y="0" type="line"/>
			<point x="222" y="376" type="line"/>
			<point x="444" y="-12" type="line"/>
			<point x="578" y="8" type="line"/>
			<point x="578" y="568" type="line"/>
			<point x="430" y="568" type="line"/>
			<point x="430" y="234" type="line"/>
			<point x="222" y="580" type="line"/>
			<point x="72" y="560" type="line"/>
		</contour>
	</outline>
</glyph>
<glyph name="hrLamedh" format="2">
	<unicode hex="108EB"/>
	<advance width="418"/>
	<outline>
		<contour>
			<point x="108" y="-12" type="line"/>
			<point x="316" y="99"/>
			<point x="380" y="245"/>
			<point x="380" y="388" type="curve" smooth="yes"/>
			<point x="380" y="594"/>
			<point x="112" y="789"/>
			<point x="-266" y="808" type="curve"/>
			<point x="-306" y="636" type="line"/>
			<point x="-46" y="616"/>
			<point x="232" y="536"/>
			<point x="232" y="346" type="curve" smooth="yes"/>
			<point x="232" y="282"/>
			<point x="185" y="200"/>
			<point x="52" y="138" type="curve"/>
		</contour>
	</outline>
</glyph>
<glyph name="hrMem" format="2">
	<unicode hex="108EC"/>
	<advance width="790"/>
	<outline>
		<contour>
			<point x="538" y="-166" type="line"/>
			<point x="694" y="-121"/>
			<point x="750" y="-44"/>
			<point x="750" y="114" type="curve" smooth="yes"/>
			<point x="750" y="300"/>
			<point x="493" y="474"/>
			<point x="164" y="584" type="curve"/>
			<point x="124" y="412" type="line"/>
			<point x="366" y="319"/>
			<point x="602" y="185"/>
			<point x="602" y="72" type="curve" smooth="yes"/>
			<point x="602" y="29"/>
			<point x="560" y="-15"/>
			<point x="452" y="-26" type="curve"/>
		</contour>
		<contour>
			<point x="286" y="-12" type="line"/>
			<point x="427" y="107"/>
			<point x="615" y="350"/>
			<point x="718" y="540" type="curve"/>
			<point x="536" y="576" type="line"/>
			<point x="451" y="390"/>
			<point x="255" y="174"/>
			<point x="100" y="34" type="curve"/>
		</contour>
	</outline>
</glyph>
<glyph name="hrAyn" format="2">
	<unicode hex="108EF"/>
	<advance width="630"/>
	<outline>
		<contour>
			<point x="312" y="145" type="curve" smooth="yes"/>
			<point x="478" y="145"/>
			<point x="600" y="245"/>
			<point x="606" y="576" type="curve"/>
			<point x="426" y="544" type="line"/>
			<point x="426" y="337"/>
			<point x="388" y="315"/>
			<point x="330" y="315" type="curve" smooth="yes"/>
			<point x="272" y="315"/>
			<point x="234" y="340"/>
			<point x="234" y="576" type="curve"/>
			<point x="54" y="544" type="line"/>
			<point x="60" y="237"/>
			<point x="168" y="145"/>
		</contour>
	</outline>
</glyph>
<glyph name="hrQoph" format="2">
	<unicode hex="108F2"/>
	<advance width="648"/>
	<outline>
		<contour>
			<point x="198" y="-156" type="line"/>
			<point x="346" y="-156" type="line"/>
			<point x="346" y="396" type="line"/>
			<point x="222" y="396" type="line"/>
			<point x="208" y="352"/>
			<point x="198" y="306"/>
			<point x="198" y="246" type="curve" smooth="yes"/>
		</contour>
		<contour>
			<point x="382" y="396" type="line" smooth="yes"/>
			<point x="439" y="396"/>
			<point x="462" y="386"/>
			<point x="462" y="346" type="curve" smooth="yes"/>
			<point x="462" y="298"/>
			<point x="445" y="238"/>
			<point x="386" y="184" type="curve"/>
			<point x="492" y="88" type="line"/>
			<point x="585" y="196"/>
			<point x="610" y="301"/>
			<point x="610" y="408" type="curve" smooth="yes"/>
			<point x="610" y="513"/>
			<point x="558" y="568"/>
			<point x="398" y="568" type="curve" smooth="yes"/>
			<point x="250" y="568" type="line" smooth="yes"/>
			<point x="195" y="568"/>
			<point x="176" y="584"/>
			<point x="176" y="620" type="curve" smooth="yes"/>
			<point x="176" y="646"/>
			<point x="178" y="664"/>
			<point x="184" y="694" type="curve"/>
			<point x="50" y="694" type="line"/>
			<point x="36" y="646"/>
			<point x="28" y="599"/>
			<point x="28" y="560" type="curve" smooth="yes"/>
			<point x="28" y="456"/>
			<point x="94" y="396"/>
			<point x="196" y="396" type="curve" smooth="yes"/>
		</contour>
	</outline>
</glyph>
<glyph name="pnAlf" format="2">
	<unicode hex="10900"/>
	<advance width="564"/>
	<outline>
		<contour>
			<point x="78" y="310" type="line"/>
			<point x="496" y="310" type="line"/>
			<point x="496" y="432" type="line"/>
			<point x="78" y="432" type="line"/>
		</contour>
		<contour>
			<point x="282" y="-12" type="curve" smooth="yes"/>
			<point x="438" y="-12"/>
			<point x="556" y="99"/>
			<point x="556" y="532" type="curve"/>
			<point x="396" y="532" type="line"/>
			<point x="396" y="194"/>
			<point x="360" y="158"/>
			<point x="300" y="158" type="curve" smooth="yes"/>
			<point x="240" y="158"/>
			<point x="204" y="196"/>
			<point x="204" y="540" type="curve"/>
			<point x="24" y="524" type="line"/>
			<point x="24" y="89"/>
			<point x="138" y="-12"/>
		</contour>
	</outline>
	<guideline x="88" y="472" angle="90" identifier="zed0uYpDtn"/>
</glyph>
<glyph name="pnBet" format="2">
	<unicode hex="10901"/>
	<advance width="580"/>
	<outline>
		<contour>
			<point x="98" y="0" type="line"/>
			<point x="508" y="0" type="line"/>
			<point x="508" y="532" type="line"/>
			<point x="302" y="532" type="line" smooth="yes"/>
			<point x="179" y="532"/>
			<point x="62" y="489"/>
			<point x="62" y="358" type="curve" smooth="yes"/>
			<point x="62" y="231"/>
			<point x="179" y="200"/>
			<point x="305" y="200" type="curve" smooth="yes"/>
			<point x="360" y="200" type="line"/>
			<point x="360" y="152" type="line"/>
			<point x="98" y="152" type="line"/>
		</contour>
		<contour>
			<point x="282" y="314" type="line" smooth="yes"/>
			<point x="247" y="314"/>
			<point x="228" y="322"/>
			<point x="228" y="350" type="curve" smooth="yes"/>
			<point x="228" y="368"/>
			<point x="245" y="380"/>
			<point x="282" y="380" type="curve" smooth="yes"/>
			<point x="360" y="380" type="line"/>
			<point x="360" y="314" type="line"/>
		</contour>
	</outline>
</glyph>
<glyph name="pnGaml" format="2">
	<unicode hex="10902"/>
	<advance width="508"/>
	<outline>
		<contour>
			<point x="288" y="0" type="line"/>
			<point x="436" y="0" type="line"/>
			<point x="436" y="568" type="line"/>
			<point x="64" y="568" type="line"/>
			<point x="64" y="396" type="line"/>
			<point x="288" y="396" type="line"/>
		</contour>
	</outline>
</glyph>
<glyph name="pnDelt" format="2">
	<unicode hex="10903"/>
	<advance width="566"/>
	<outline>
		<contour>
			<point x="339" y="-12" type="curve" smooth="yes"/>
			<point x="494" y="-12" type="line"/>
			<point x="494" y="568" type="line"/>
			<point x="350" y="568" type="line" smooth="yes"/>
			<point x="180" y="568"/>
			<point x="48" y="494"/>
			<point x="48" y="282" type="curve" smooth="yes"/>
			<point x="48" y="68"/>
			<point x="181" y="-12"/>
		</contour>
		<contour>
			<point x="328" y="160" type="line" smooth="yes"/>
			<point x="248" y="160"/>
			<point x="196" y="196"/>
			<point x="196" y="282" type="curve" smooth="yes"/>
			<point x="196" y="367"/>
			<point x="248" y="396"/>
			<point x="328" y="396" type="curve" smooth="yes"/>
			<point x="346" y="396" type="line"/>
			<point x="346" y="160" type="line"/>
		</contour>
		<contour>
			<point x="346" y="-156" type="line"/>
			<point x="494" y="-156" type="line"/>
			<point x="494" y="-6" type="line"/>
			<point x="346" y="-6" type="line"/>
		</contour>
	</outline>
</glyph>
<glyph name="pnHe" format="2">
	<unicode hex="10904"/>
	<advance width="518"/>
	<outline>
		<contour>
			<point x="298" y="-156" type="line"/>
			<point x="446" y="-156" type="line"/>
			<point x="446" y="568" type="line"/>
			<point x="64" y="568" type="line"/>
			<point x="64" y="406" type="line"/>
			<point x="298" y="406" type="line"/>
			<point x="298" y="350" type="line"/>
			<point x="104" y="350" type="line"/>
			<point x="104" y="218" type="line"/>
			<point x="298" y="218" type="line"/>
			<point x="298" y="162" type="line"/>
			<point x="64" y="162" type="line"/>
			<point x="64" y="0" type="line"/>
			<point x="298" y="0" type="line"/>
		</contour>
	</outline>
</glyph>
<glyph name="pnWau" format="2">
	<unicode hex="10905"/>
	<advance width="564"/>
	<outline>
		<contour>
			<point x="214" y="-156" type="line"/>
			<point x="362" y="-156" type="line"/>
			<point x="362" y="172" type="line"/>
			<point x="214" y="172" type="line"/>
		</contour>
		<contour>
			<point x="272" y="112" type="curve" smooth="yes"/>
			<point x="426" y="112"/>
			<point x="556" y="198"/>
			<point x="556" y="532" type="curve"/>
			<point x="396" y="532" type="line"/>
			<point x="396" y="306"/>
			<point x="348" y="282"/>
			<point x="290" y="282" type="curve" smooth="yes"/>
			<point x="232" y="282"/>
			<point x="184" y="308"/>
			<point x="184" y="540" type="curve"/>
			<point x="24" y="524" type="line"/>
			<point x="24" y="194"/>
			<point x="128" y="112"/>
		</contour>
	</outline>
</glyph>
<glyph name="pnZai" format="2">
	<unicode hex="10906"/>
	<advance width="534"/>
	<outline>
		<contour>
			<point x="52" y="0" type="line"/>
			<point x="502" y="0" type="line"/>
			<point x="502" y="172" type="line"/>
			<point x="264" y="172" type="line"/>
			<point x="500" y="464" type="line"/>
			<point x="480" y="568" type="line"/>
			<point x="58" y="568" type="line"/>
			<point x="58" y="396" type="line"/>
			<point x="268" y="396" type="line"/>
			<point x="32" y="104" type="line"/>
		</contour>
	</outline>
</glyph>
<glyph name="pnHet" format="2">
	<unicode hex="10907"/>
	<advance width="610"/>
	<outline>
		<contour>
			<point x="390" y="-120" type="line"/>
			<point x="538" y="-120" type="line"/>
			<point x="538" y="568" type="line"/>
			<point x="220" y="568" type="line"/>
			<point x="220" y="688" type="line"/>
			<point x="72" y="688" type="line"/>
			<point x="72" y="0" type="line"/>
			<point x="390" y="0" type="line"/>
		</contour>
		<contour>
			<point x="220" y="350" type="line"/>
			<point x="220" y="406" type="line"/>
			<point x="390" y="406" type="line"/>
			<point x="390" y="350" type="line"/>
		</contour>
		<contour>
			<point x="220" y="162" type="line"/>
			<point x="220" y="218" type="line"/>
			<point x="390" y="218" type="line"/>
			<point x="390" y="162" type="line"/>
		</contour>
	</outline>
</glyph>
<glyph name="pnTet" format="2">
	<unicode hex="10908"/>
	<advance width="614"/>
	<outline>
		<contour>
			<point x="260" y="158" type="line"/>
			<point x="368" y="158" type="line"/>
			<point x="368" y="206" type="line"/>
			<point x="416" y="206" type="line"/>
			<point x="416" y="330" type="line"/>
			<point x="368" y="330" type="line"/>
			<point x="368" y="374" type="line"/>
			<point x="260" y="374" type="line"/>
			<point x="260" y="330" type="line"/>
			<point x="212" y="330" type="line"/>
			<point x="212" y="206" type="line"/>
			<point x="260" y="206" type="line"/>
		</contour>
		<contour>
			<point x="318" y="-12" type="curve" smooth="yes"/>
			<point x="477" y="-12"/>
			<point x="586" y="90"/>
			<point x="586" y="268" type="curve" smooth="yes"/>
			<point x="586" y="446"/>
			<point x="477" y="544"/>
			<point x="318" y="544" type="curve" smooth="yes"/>
			<point x="157" y="544"/>
			<point x="48" y="447"/>
			<point x="48" y="268" type="curve" smooth="yes"/>
			<point x="48" y="90"/>
			<point x="157" y="-12"/>
		</contour>
		<contour>
			<point x="318" y="140" type="curve" smooth="yes"/>
			<point x="234" y="140"/>
			<point x="186" y="189"/>
			<point x="186" y="268" type="curve" smooth="yes"/>
			<point x="186" y="349"/>
			<point x="234" y="392"/>
			<point x="318" y="392" type="curve" smooth="yes"/>
			<point x="400" y="392"/>
			<point x="448" y="349"/>
			<point x="448" y="268" type="curve" smooth="yes"/>
			<point x="448" y="189"/>
			<point x="400" y="140"/>
		</contour>
	</outline>
</glyph>
<glyph name="pnYod" format="2">
	<unicode hex="10909"/>
	<advance width="510"/>
	<outline>
		<contour>
			<point x="98" y="0" type="line"/>
			<point x="478" y="0" type="line"/>
			<point x="478" y="172" type="line"/>
			<point x="310" y="172" type="line"/>
			<point x="385" y="229"/>
			<point x="456" y="321"/>
			<point x="456" y="414" type="curve" smooth="yes"/>
			<point x="456" y="497"/>
			<point x="409" y="568"/>
			<point x="276" y="568" type="curve" smooth="yes"/>
			<point x="64" y="568" type="line"/>
			<point x="64" y="396" type="line"/>
			<point x="234" y="396" type="line" smooth="yes"/>
			<point x="287" y="396"/>
			<point x="308" y="375"/>
			<point x="308" y="341" type="curve" smooth="yes"/>
			<point x="308" y="294"/>
			<point x="220" y="230"/>
			<point x="78" y="144" type="curve"/>
		</contour>
		<contour>
			<point x="88" y="224" type="line"/>
			<point x="340" y="224" type="line"/>
			<point x="340" y="348" type="line"/>
			<point x="88" y="348" type="line"/>
		</contour>
	</outline>
</glyph>
<glyph name="pnKaf" format="2">
	<unicode hex="1090A"/>
	<advance width="510"/>
	<outline>
		<contour>
			<point x="290" y="-156" type="line"/>
			<point x="438" y="-156" type="line"/>
			<point x="438" y="532" type="line"/>
			<point x="290" y="532" type="line"/>
			<point x="290" y="451" type="line"/>
			<point x="314" y="462" type="line"/>
			<point x="260" y="518"/>
			<point x="174" y="544"/>
			<point x="64" y="544" type="curve"/>
			<point x="64" y="374" type="line"/>
			<point x="262" y="374"/>
			<point x="290" y="358"/>
			<point x="290" y="334" type="curve" smooth="yes"/>
			<point x="290" y="302"/>
			<point x="262" y="282"/>
			<point x="64" y="282" type="curve"/>
			<point x="64" y="112" type="line"/>
			<point x="196" y="112"/>
			<point x="264" y="138"/>
			<point x="316" y="186" type="curve"/>
			<point x="290" y="190" type="line"/>
		</contour>
	</outline>
</glyph>
<glyph name="pnMem" format="2">
	<unicode hex="1090C"/>
	<advance width="828"/>
	<outline>
		<contour>
			<point x="608" y="-156" type="line"/>
			<point x="756" y="-156" type="line"/>
			<point x="756" y="554" type="line"/>
			<point x="610" y="574" type="line"/>
			<point x="550" y="470" type="line"/>
			<point x="488" y="346" type="line"/>
			<point x="484" y="346" type="line"/>
			<point x="486" y="398"/>
			<point x="488" y="447"/>
			<point x="488" y="498" type="curve" smooth="yes"/>
			<point x="488" y="554" type="line"/>
			<point x="342" y="574" type="line"/>
			<point x="282" y="470" type="line"/>
			<point x="220" y="346" type="line"/>
			<point x="216" y="346" type="line"/>
			<point x="218" y="398"/>
			<point x="220" y="447"/>
			<point x="220" y="498" type="curve" smooth="yes"/>
			<point x="220" y="568" type="line"/>
			<point x="72" y="568" type="line"/>
			<point x="72" y="138" type="line"/>
			<point x="218" y="118" type="line"/>
			<point x="278" y="222" type="line"/>
			<point x="340" y="346" type="line"/>
			<point x="344" y="346" type="line"/>
			<point x="342" y="294"/>
			<point x="340" y="245"/>
			<point x="340" y="194" type="curve" smooth="yes"/>
			<point x="340" y="138" type="line"/>
			<point x="486" y="118" type="line"/>
			<point x="546" y="222" type="line"/>
			<point x="608" y="346" type="line"/>
			<point x="612" y="346" type="line"/>
			<point x="610" y="294"/>
			<point x="608" y="245"/>
			<point x="608" y="194" type="curve" smooth="yes"/>
		</contour>
	</outline>
</glyph>
<glyph name="pnNun" format="2">
	<unicode hex="1090D"/>
	<advance width="472"/>
	<outline>
		<contour>
			<point x="48" y="0" type="line"/>
			<point x="390" y="0" type="line"/>
			<point x="390" y="434" type="line" smooth="yes"/>
			<point x="390" y="523"/>
			<point x="348" y="563"/>
			<point x="218" y="572" type="curve" smooth="yes"/>
			<point x="100" y="580" type="line"/>
			<point x="64" y="406" type="line"/>
			<point x="172" y="398" type="line" smooth="yes"/>
			<point x="223" y="394"/>
			<point x="242" y="372"/>
			<point x="242" y="310" type="curve"/>
			<point x="242" y="172" type="line"/>
			<point x="54" y="172" type="line"/>
		</contour>
	</outline>
</glyph>
<glyph name="pnSemk" format="2">
	<unicode hex="1090E"/>
	<advance width="632"/>
	<outline>
		<contour>
			<point x="252" y="-156" type="line"/>
			<point x="400" y="-156" type="line"/>
			<point x="400" y="60" type="line"/>
			<point x="588" y="60" type="line"/>
			<point x="588" y="212" type="line"/>
			<point x="400" y="212" type="line"/>
			<point x="400" y="248" type="line"/>
			<point x="548" y="248" type="line"/>
			<point x="548" y="380" type="line"/>
			<point x="400" y="380" type="line"/>
			<point x="400" y="416" type="line"/>
			<point x="588" y="416" type="line"/>
			<point x="588" y="568" type="line"/>
			<point x="64" y="568" type="line"/>
			<point x="64" y="416" type="line"/>
			<point x="252" y="416" type="line"/>
			<point x="252" y="380" type="line"/>
			<point x="104" y="380" type="line"/>
			<point x="104" y="248" type="line"/>
			<point x="252" y="248" type="line"/>
			<point x="252" y="212" type="line"/>
			<point x="64" y="212" type="line"/>
			<point x="64" y="60" type="line"/>
			<point x="252" y="60" type="line"/>
		</contour>
	</outline>
	<guideline x="264" y="0" angle="90" identifier="zBwTZoD6DI"/>
</glyph>
<glyph name="pnPe" format="2">
	<unicode hex="10910"/>
	<advance width="602"/>
	<outline>
		<contour>
			<point x="382" y="-156" type="line"/>
			<point x="530" y="-156" type="line"/>
			<point x="530" y="286" type="line" smooth="yes"/>
			<point x="530" y="482"/>
			<point x="430" y="544"/>
			<point x="284" y="544" type="curve" smooth="yes"/>
			<point x="159" y="544"/>
			<point x="42" y="458"/>
			<point x="42" y="300" type="curve" smooth="yes"/>
			<point x="42" y="188"/>
			<point x="96" y="112"/>
			<point x="220" y="112" type="curve" smooth="yes"/>
			<point x="258" y="112" type="line"/>
			<point x="258" y="282" type="line"/>
			<point x="244" y="282" type="line" smooth="yes"/>
			<point x="204" y="282"/>
			<point x="190" y="294"/>
			<point x="190" y="322" type="curve" smooth="yes"/>
			<point x="190" y="350"/>
			<point x="223" y="372"/>
			<point x="258" y="372" type="curve" smooth="yes"/>
			<point x="340" y="372"/>
			<point x="382" y="350"/>
			<point x="382" y="224" type="curve" smooth="yes"/>
		</contour>
	</outline>
	<anchor name="aboveHE" x="285" y="570"/>
	<anchor name="belowRightHE" x="245" y="-42"/>
	<anchor name="centerHE" x="320" y="200"/>
	<anchor name="aboveLeftHE" x="40" y="570"/>
</glyph>
<glyph name="pnSade" format="2">
	<unicode hex="10911"/>
	<advance width="828"/>
	<outline>
		<contour>
			<point x="92" y="-156" type="line"/>
			<point x="240" y="-156" type="line"/>
			<point x="240" y="-10" type="line" smooth="yes"/>
			<point x="240" y="30"/>
			<point x="236" y="70"/>
			<point x="222" y="156" type="curve"/>
			<point x="202" y="140" type="line"/>
			<point x="239" y="121"/>
			<point x="256" y="112"/>
			<point x="286" y="112" type="curve" smooth="yes"/>
			<point x="348" y="112"/>
			<point x="410" y="150"/>
			<point x="452" y="236" type="curve"/>
			<point x="426" y="236" type="line"/>
			<point x="454" y="146"/>
			<point x="500" y="112"/>
			<point x="566" y="112" type="curve" smooth="yes"/>
			<point x="710" y="112"/>
			<point x="820" y="298"/>
			<point x="820" y="532" type="curve"/>
			<point x="680" y="532" type="line"/>
			<point x="680" y="406"/>
			<point x="646" y="282"/>
			<point x="594" y="282" type="curve" smooth="yes"/>
			<point x="560" y="282"/>
			<point x="538" y="308"/>
			<point x="538" y="538" type="curve"/>
			<point x="388" y="522" type="line"/>
			<point x="388" y="396"/>
			<point x="359" y="282"/>
			<point x="314" y="282" type="curve" smooth="yes"/>
			<point x="274" y="282"/>
			<point x="248" y="308"/>
			<point x="248" y="540" type="curve"/>
			<point x="92" y="524" type="line"/>
		</contour>
	</outline>
</glyph>
<glyph name="pnQof" format="2">
	<unicode hex="10912"/>
	<advance width="694"/>
	<outline>
		<contour>
			<point x="286" y="-156" type="line"/>
			<point x="430" y="-156" type="line"/>
			<point x="430" y="568" type="line"/>
			<point x="286" y="568" type="line"/>
		</contour>
		<contour>
			<point x="358" y="48" type="curve" smooth="yes"/>
			<point x="541" y="48"/>
			<point x="666" y="146"/>
			<point x="666" y="316" type="curve" smooth="yes"/>
			<point x="666" y="486"/>
			<point x="541" y="580"/>
			<point x="358" y="580" type="curve" smooth="yes"/>
			<point x="173" y="580"/>
			<point x="48" y="487"/>
			<point x="48" y="316" type="curve" smooth="yes"/>
			<point x="48" y="146"/>
			<point x="173" y="48"/>
		</contour>
		<contour>
			<point x="358" y="210" type="curve" smooth="yes"/>
			<point x="254" y="210"/>
			<point x="196" y="251"/>
			<point x="196" y="316" type="curve" smooth="yes"/>
			<point x="196" y="383"/>
			<point x="254" y="418"/>
			<point x="358" y="418" type="curve" smooth="yes"/>
			<point x="459" y="418"/>
			<point x="518" y="383"/>
			<point x="518" y="316" type="curve" smooth="yes"/>
			<point x="518" y="251"/>
			<point x="459" y="210"/>
		</contour>
	</outline>
</glyph>
<glyph name="pnRosh" format="2">
	<unicode hex="10913"/>
	<advance width="566"/>
	<outline>
		<contour>
			<point x="346" y="-156" type="line"/>
			<point x="494" y="-156" type="line"/>
			<point x="494" y="568" type="line"/>
			<point x="330" y="568" type="line" smooth="yes"/>
			<point x="172" y="568"/>
			<point x="48" y="507"/>
			<point x="48" y="318" type="curve" smooth="yes"/>
			<point x="48" y="127"/>
			<point x="171" y="60"/>
			<point x="319" y="60" type="curve" smooth="yes"/>
			<point x="346" y="60" type="line"/>
		</contour>
		<contour>
			<point x="308" y="232" type="line" smooth="yes"/>
			<point x="240" y="232"/>
			<point x="196" y="254"/>
			<point x="196" y="318" type="curve" smooth="yes"/>
			<point x="196" y="379"/>
			<point x="240" y="396"/>
			<point x="308" y="396" type="curve" smooth="yes"/>
			<point x="346" y="396" type="line"/>
			<point x="346" y="232" type="line"/>
		</contour>
	</outline>
</glyph>
<glyph name="pnShin" format="2">
	<unicode hex="10914"/>
	<advance width="656"/>
	<outline>
		<contour>
			<point x="262" y="212" type="line"/>
			<point x="394" y="212" type="line"/>
			<point x="394" y="568" type="line"/>
			<point x="262" y="568" type="line"/>
		</contour>
		<contour>
			<point x="320" y="68" type="curve" smooth="yes"/>
			<point x="336" y="68" type="line" smooth="yes"/>
			<point x="491" y="68"/>
			<point x="608" y="140"/>
			<point x="608" y="328" type="curve" smooth="yes"/>
			<point x="608" y="568" type="line"/>
			<point x="468" y="568" type="line"/>
			<point x="468" y="380" type="line" smooth="yes"/>
			<point x="468" y="261"/>
			<point x="432" y="240"/>
			<point x="372" y="240" type="curve" smooth="yes"/>
			<point x="284" y="240" type="line" smooth="yes"/>
			<point x="223" y="240"/>
			<point x="188" y="261"/>
			<point x="188" y="380" type="curve" smooth="yes"/>
			<point x="188" y="568" type="line"/>
			<point x="48" y="568" type="line"/>
			<point x="48" y="328" type="line" smooth="yes"/>
			<point x="48" y="140"/>
			<point x="165" y="68"/>
		</contour>
	</outline>
</glyph>
<glyph name="pnTau" format="2">
	<unicode hex="10915"/>
	<advance width="536"/>
	<outline>
		<contour>
			<point x="204" y="0" type="line"/>
			<point x="352" y="0" type="line"/>
			<point x="352" y="200" type="line"/>
			<point x="516" y="200" type="line"/>
			<point x="516" y="372" type="line"/>
			<point x="352" y="372" type="line"/>
			<point x="352" y="568" type="line"/>
			<point x="204" y="568" type="line"/>
			<point x="204" y="372" type="line"/>
			<point x="40" y="372" type="line"/>
			<point x="40" y="200" type="line"/>
			<point x="204" y="200" type="line"/>
		</contour>
	</outline>
	<guideline x="0" y="284" angle="0" identifier="zN1IvSVD9C"/>
</glyph>
<glyph name="pn20" format="2">
	<unicode hex="10918"/>
	<advance width="488"/>
	<outline>
		<contour>
			<point x="78" y="-12" type="line"/>
			<point x="281" y="-12"/>
			<point x="442" y="79"/>
			<point x="442" y="198" type="curve" smooth="yes"/>
			<point x="442" y="251"/>
			<point x="407" y="282"/>
			<point x="318" y="310" type="curve"/>
			<point x="318" y="284" type="line"/>
			<point x="402" y="325"/>
			<point x="442" y="375"/>
			<point x="442" y="430" type="curve" smooth="yes"/>
			<point x="442" y="513"/>
			<point x="377" y="580"/>
			<point x="102" y="580" type="curve"/>
			<point x="102" y="418" type="line"/>
			<point x="275" y="418"/>
			<point x="294" y="411"/>
			<point x="294" y="396" type="curve" smooth="yes"/>
			<point x="294" y="367"/>
			<point x="223" y="348"/>
			<point x="144" y="348" type="curve"/>
			<point x="144" y="226" type="line"/>
			<point x="279" y="226"/>
			<point x="294" y="216"/>
			<point x="294" y="200" type="curve" smooth="yes"/>
			<point x="294" y="170"/>
			<point x="195" y="150"/>
			<point x="94" y="150" type="curve"/>
		</contour>
	</outline>
</glyph>
<glyph name="u13020" format="2">
	<unicode hex="13020"/>
	<advance width="969"/>
	<outline>
		<contour>
			<point x="202" y="0" type="line"/>
			<point x="202" y="43" type="line"/>
			<point x="268" y="54" type="line"/>
			<point x="288" y="58"/>
			<point x="292" y="77"/>
			<point x="297" y="94" type="curve"/>
			<point x="328" y="211" type="line"/>
			<point x="326" y="253" type="line"/>
			<point x="340" y="292" type="line"/>
			<point x="329" y="292" type="line"/>
			<point x="434" y="528" type="line"/>
			<point x="397" y="679" type="line"/>
			<point x="224" y="674" type="line"/>
			<point x="107" y="832" type="line"/>
			<point x="67" y="869" type="line"/>
			<point x="52" y="907" type="line"/>
			<point x="81" y="919" type="line"/>
			<point x="90" y="895" type="line"/>
			<point x="101" y="884" type="line"/>
			<point x="104" y="885" type="line"/>
			<point x="94" y="910" type="line"/>
			<point x="80" y="933" type="line"/>
			<point x="49" y="947" type="line"/>
			<point x="63" y="973" type="line"/>
			<point x="100" y="959" type="line"/>
			<point x="124" y="937" type="line"/>
			<point x="157" y="874" type="line"/>
			<point x="252" y="754" type="line"/>
			<point x="342" y="761" type="line"/>
			<point x="358" y="766"/>
			<point x="385" y="771"/>
			<point name="inserted" x="410" y="774" type="curve" smooth="yes"/>
			<point name="inserted" x="422" y="775"/>
			<point x="432" y="777"/>
			<point x="439" y="777" type="curve"/>
			<point x="439" y="801" type="line"/>
			<point x="396" y="804" type="line"/>
			<point x="389" y="855" type="line"/>
			<point x="382" y="856"/>
			<point x="373" y="857"/>
			<point x="365" y="858" type="curve"/>
			<point x="397" y="927" type="line"/>
			<point x="397" y="932"/>
			<point x="396" y="940"/>
			<point x="396" y="947" type="curve"/>
			<point x="395" y="974"/>
			<point x="414" y="1001"/>
			<point x="476" y="1001" type="curve"/>
			<point x="538" y="1001"/>
			<point x="569" y="963"/>
			<point x="569" y="917" type="curve"/>
			<point name="inserted" x="569" y="898"/>
			<point x="562" y="878"/>
			<point x="549" y="855" type="curve"/>
			<point x="533" y="827" type="line"/>
			<point x="533" y="782" type="line"/>
			<point x="556" y="779"/>
			<point x="580" y="771"/>
			<point x="604" y="764" type="curve"/>
			<point x="717" y="754" type="line"/>
			<point x="813" y="874" type="line"/>
			<point x="846" y="937" type="line"/>
			<point x="870" y="959" type="line"/>
			<point x="906" y="973" type="line"/>
			<point x="920" y="947" type="line"/>
			<point x="890" y="933" type="line"/>
			<point x="875" y="910" type="line"/>
			<point x="866" y="885" type="line"/>
			<point x="869" y="884" type="line"/>
			<point x="879" y="895" type="line"/>
			<point x="889" y="919" type="line"/>
			<point x="917" y="907" type="line"/>
			<point x="902" y="869" type="line"/>
			<point x="862" y="832" type="line"/>
			<point x="745" y="674" type="line"/>
			<point x="575" y="679" type="line"/>
			<point x="561" y="547" type="line"/>
			<point x="590" y="504"/>
			<point x="601" y="468"/>
			<point x="601" y="424" type="curve"/>
			<point x="601" y="405"/>
			<point x="599" y="405"/>
			<point x="596" y="378" type="curve"/>
			<point x="595" y="365"/>
			<point x="595" y="355"/>
			<point x="595" y="344" type="curve"/>
			<point x="595" y="333"/>
			<point x="604" y="305"/>
			<point x="605" y="292" type="curve"/>
			<point x="613" y="260"/>
			<point x="622" y="209"/>
			<point name="inserted" x="629" y="153" type="curve" smooth="yes"/>
			<point name="inserted" x="633" y="125"/>
			<point x="634" y="98"/>
			<point x="634" y="71" type="curve"/>
			<point x="634" y="47"/>
			<point x="632" y="21"/>
			<point x="629" y="0" type="curve"/>
			<point x="485" y="0" type="line"/>
			<point x="485" y="43" type="line"/>
			<point x="541" y="54" type="line"/>
			<point x="557" y="58"/>
			<point x="570" y="65"/>
			<point x="570" y="78" type="curve"/>
			<point name="inserted" x="570" y="82"/>
			<point x="570" y="85"/>
			<point x="569" y="88" type="curve"/>
			<point x="519" y="262" type="line"/>
			<point x="515" y="292" type="line"/>
			<point x="435" y="292" type="line"/>
			<point x="342" y="0" type="line"/>
		</contour>
		<contour>
			<point x="515" y="833" type="line"/>
			<point x="536" y="866" type="line"/>
			<point x="543" y="877"/>
			<point x="551" y="895"/>
			<point x="551" y="914" type="curve"/>
			<point x="551" y="948"/>
			<point x="528" y="982"/>
			<point x="478" y="982" type="curve"/>
			<point x="432" y="982"/>
			<point x="416" y="965"/>
			<point x="416" y="946" type="curve"/>
			<point x="416" y="939"/>
			<point x="417" y="935"/>
			<point x="417" y="932" type="curve"/>
			<point x="482" y="932" type="line"/>
			<point x="485" y="935"/>
			<point x="487" y="937"/>
			<point x="498" y="937" type="curve"/>
			<point x="514" y="937"/>
			<point x="524" y="922"/>
			<point x="524" y="907" type="curve"/>
			<point name="inserted" x="524" y="896"/>
			<point x="521" y="886"/>
			<point x="513" y="875" type="curve"/>
			<point x="496" y="850" type="line"/>
		</contour>
		<contour>
			<point x="449" y="537" type="line"/>
			<point x="543" y="554" type="line"/>
			<point x="558" y="698" type="line"/>
			<point x="734" y="692" type="line"/>
			<point x="850" y="843" type="line"/>
			<point x="894" y="879" type="line"/>
			<point x="903" y="903" type="line"/>
			<point x="896" y="906" type="line"/>
			<point x="889" y="888" type="line"/>
			<point x="862" y="863" type="line"/>
			<point x="848" y="870" type="line"/>
			<point x="862" y="915" type="line"/>
			<point x="881" y="940" type="line"/>
			<point x="907" y="952" type="line"/>
			<point x="902" y="959" type="line"/>
			<point x="876" y="948" type="line"/>
			<point x="855" y="929" type="line"/>
			<point x="830" y="867" type="line"/>
			<point x="726" y="735" type="line"/>
			<point x="595" y="747" type="line"/>
			<point x="576" y="754"/>
			<point x="561" y="761"/>
			<point x="518" y="765" type="curve"/>
			<point x="518" y="810" type="line"/>
			<point x="476" y="847" type="line"/>
			<point x="494" y="877" type="line"/>
			<point x="498" y="884"/>
			<point x="505" y="899"/>
			<point x="505" y="904" type="curve"/>
			<point x="505" y="911"/>
			<point x="504" y="920"/>
			<point x="492" y="920" type="curve"/>
			<point x="483" y="920"/>
			<point x="481" y="916"/>
			<point x="480" y="915" type="curve"/>
			<point x="408" y="915" type="line"/>
			<point x="389" y="870" type="line"/>
			<point x="393" y="870"/>
			<point x="398" y="868"/>
			<point x="402" y="868" type="curve"/>
			<point x="409" y="817" type="line"/>
			<point x="456" y="814" type="line"/>
			<point x="456" y="763" type="line"/>
			<point x="424" y="760"/>
			<point x="371" y="752"/>
			<point x="350" y="744" type="curve"/>
			<point x="243" y="735" type="line"/>
			<point x="140" y="867" type="line"/>
			<point x="114" y="929" type="line"/>
			<point x="93" y="948" type="line"/>
			<point x="67" y="959" type="line"/>
			<point x="63" y="952" type="line"/>
			<point x="88" y="940" type="line"/>
			<point x="107" y="915" type="line"/>
			<point x="122" y="870" type="line"/>
			<point x="107" y="863" type="line"/>
			<point x="81" y="888" type="line"/>
			<point x="74" y="906" type="line"/>
			<point x="66" y="903" type="line"/>
			<point x="75" y="879" type="line"/>
			<point x="119" y="843" type="line"/>
			<point x="235" y="692" type="line"/>
			<point x="412" y="698" type="line"/>
		</contour>
		<contour>
			<point x="433" y="889" type="curve"/>
			<point x="424" y="889"/>
			<point x="411" y="891"/>
			<point x="411" y="898" type="curve"/>
			<point x="411" y="905"/>
			<point x="422" y="909"/>
			<point x="431" y="909" type="curve"/>
			<point x="442" y="909"/>
			<point x="450" y="904"/>
			<point x="457" y="897" type="curve"/>
			<point x="450" y="893"/>
			<point x="442" y="889"/>
		</contour>
		<contour>
			<point x="360" y="309" type="line"/>
			<point x="583" y="309" type="line"/>
			<point x="576" y="322"/>
			<point x="575" y="332"/>
			<point x="575" y="339" type="curve"/>
			<point x="575" y="351"/>
			<point x="576" y="363"/>
			<point x="577" y="378" type="curve"/>
			<point x="580" y="399"/>
			<point x="582" y="404"/>
			<point x="582" y="423" type="curve"/>
			<point x="582" y="458"/>
			<point x="571" y="503"/>
			<point x="543" y="538" type="curve"/>
			<point x="450" y="521" type="line"/>
		</contour>
		<contour>
			<point x="504" y="18" type="line"/>
			<point x="612" y="18" type="line"/>
			<point x="615" y="37"/>
			<point x="616" y="56"/>
			<point x="616" y="76" type="curve"/>
			<point x="616" y="126"/>
			<point x="608" y="181"/>
			<point name="inserted" x="599" y="231" type="curve" smooth="yes"/>
			<point name="inserted" x="595" y="256"/>
			<point x="590" y="276"/>
			<point x="585" y="292" type="curve"/>
			<point x="534" y="292" type="line"/>
			<point x="539" y="263" type="line"/>
			<point x="587" y="89" type="line"/>
			<point x="588" y="84"/>
			<point x="589" y="80"/>
			<point x="589" y="76" type="curve"/>
			<point x="589" y="55"/>
			<point x="568" y="44"/>
			<point x="545" y="40" type="curve"/>
			<point x="504" y="31" type="line"/>
		</contour>
		<contour>
			<point x="218" y="18" type="line"/>
			<point x="330" y="18" type="line"/>
			<point x="417" y="292" type="line"/>
			<point x="359" y="292" type="line"/>
			<point x="345" y="251" type="line"/>
			<point x="345" y="209" type="line"/>
			<point x="313" y="88" type="line"/>
			<point x="305" y="57"/>
			<point x="292" y="44"/>
			<point x="273" y="40" type="curve"/>
			<point x="218" y="31" type="line"/>
		</contour>
	</outline>
</glyph>
<glyph name="u13079" format="2">
	<unicode hex="13079"/>
	<advance width="1223"/>
	<outline>
		<contour>
			<point x="592" y="100" type="curve"/>
			<point x="554" y="100"/>
			<point x="493" y="109"/>
			<point name="inserted" x="425" y="121" type="curve" smooth="yes"/>
			<point x="355" y="133"/>
			<point x="285" y="148"/>
			<point name="inserted" x="225" y="161" type="curve" smooth="yes"/>
			<point x="163" y="174"/>
			<point x="120" y="185"/>
			<point x="107" y="188" type="curve"/>
			<point x="87" y="169"/>
			<point x="70" y="154"/>
			<point x="63" y="147" type="curve"/>
			<point x="49" y="161" type="line"/>
			<point x="107" y="219"/>
			<point x="191" y="283"/>
			<point name="inserted" x="287" y="338" type="curve" smooth="yes"/>
			<point x="383" y="392"/>
			<point x="487" y="428"/>
			<point x="585" y="428" type="curve"/>
			<point x="711" y="428"/>
			<point x="813" y="388"/>
			<point name="inserted" x="900" y="336" type="curve" smooth="yes"/>
			<point name="inserted" x="943" y="311"/>
			<point x="982" y="285"/>
			<point x="1018" y="260" type="curve"/>
			<point x="1077" y="220"/>
			<point x="1127" y="185"/>
			<point x="1174" y="176" type="curve"/>
			<point x="1170" y="156" type="line"/>
			<point x="1138" y="161"/>
			<point x="1105" y="180"/>
			<point x="1069" y="203" type="curve"/>
			<point x="1061" y="200"/>
			<point x="1020" y="189"/>
			<point name="inserted" x="962" y="174" type="curve" smooth="yes"/>
			<point x="903" y="158"/>
			<point x="833" y="140"/>
			<point name="inserted" x="763" y="125" type="curve" smooth="yes"/>
			<point x="693" y="110"/>
			<point x="632" y="100"/>
		</contour>
		<contour>
			<point x="585" y="121" type="curve"/>
			<point x="637" y="121"/>
			<point x="682" y="149"/>
			<point name="inserted" x="709" y="192" type="curve" smooth="yes"/>
			<point name="inserted" x="721" y="213"/>
			<point x="728" y="238"/>
			<point x="728" y="263" type="curve"/>
			<point x="728" y="315"/>
			<point x="700" y="360"/>
			<point name="inserted" x="657" y="387" type="curve" smooth="yes"/>
			<point name="inserted" x="634" y="399"/>
			<point x="612" y="406"/>
			<point x="585" y="406" type="curve"/>
			<point x="533" y="406"/>
			<point x="487" y="378"/>
			<point name="inserted" x="462" y="335" type="curve" smooth="yes"/>
			<point name="inserted" x="449" y="312"/>
			<point x="442" y="290"/>
			<point x="442" y="263" type="curve"/>
			<point x="442" y="211"/>
			<point x="470" y="166"/>
			<point name="inserted" x="514" y="141" type="curve" smooth="yes"/>
			<point name="inserted" x="535" y="128"/>
			<point x="560" y="121"/>
		</contour>
		<contour>
			<point x="673" y="127" type="curve"/>
			<point x="740" y="138"/>
			<point x="821" y="156"/>
			<point name="inserted" x="895" y="176" type="curve" smooth="yes"/>
			<point x="969" y="195"/>
			<point x="1027" y="210"/>
			<point x="1048" y="217" type="curve"/>
			<point x="1007" y="244" type="line"/>
			<point x="947" y="284"/>
			<point x="880" y="330"/>
			<point name="inserted" x="800" y="365" type="curve" smooth="yes"/>
			<point name="inserted" x="760" y="381"/>
			<point x="717" y="394"/>
			<point x="669" y="401" type="curve"/>
			<point x="716" y="373"/>
			<point x="747" y="322"/>
			<point x="747" y="263" type="curve"/>
			<point x="747" y="205"/>
			<point x="717" y="156"/>
		</contour>
		<contour>
			<point x="495" y="128" type="curve"/>
			<point x="452" y="157"/>
			<point x="423" y="207"/>
			<point x="423" y="263" type="curve"/>
			<point x="423" y="321"/>
			<point x="452" y="370"/>
			<point x="496" y="398" type="curve"/>
			<point x="394" y="378"/>
			<point x="300" y="328"/>
			<point name="inserted" x="224" y="276" type="curve" smooth="yes"/>
			<point name="inserted" x="185" y="249"/>
			<point x="153" y="225"/>
			<point x="126" y="204" type="curve"/>
			<point x="146" y="199"/>
			<point x="202" y="186"/>
			<point name="inserted" x="274" y="170" type="curve" smooth="yes"/>
			<point x="346" y="154"/>
			<point x="427" y="139"/>
		</contour>
	</outline>
</glyph>
<glyph name="u1308B" format="2">
	<unicode hex="1308B"/>
	<advance width="1177"/>
	<outline>
		<contour>
			<point x="588" y="-5" type="curve"/>
			<point x="450" y="-5"/>
			<point x="318" y="14"/>
			<point name="inserted" x="216" y="42" type="curve" smooth="yes"/>
			<point x="113" y="70"/>
			<point x="49" y="105"/>
			<point x="49" y="138" type="curve"/>
			<point x="49" y="170"/>
			<point x="113" y="206"/>
			<point name="inserted" x="216" y="234" type="curve" smooth="yes"/>
			<point x="318" y="262"/>
			<point x="450" y="281"/>
			<point x="588" y="281" type="curve"/>
			<point x="727" y="281"/>
			<point x="859" y="262"/>
			<point name="inserted" x="962" y="234" type="curve" smooth="yes"/>
			<point x="1064" y="206"/>
			<point x="1128" y="170"/>
			<point x="1128" y="138" type="curve"/>
			<point x="1128" y="105"/>
			<point x="1064" y="70"/>
			<point name="inserted" x="962" y="42" type="curve" smooth="yes"/>
			<point x="859" y="14"/>
			<point x="727" y="-5"/>
		</contour>
		<contour>
			<point x="588" y="14" type="curve"/>
			<point x="691" y="14"/>
			<point x="792" y="26"/>
			<point name="inserted" x="880" y="45" type="curve" smooth="yes"/>
			<point x="967" y="62"/>
			<point x="1035" y="85"/>
			<point name="inserted" x="1074" y="108" type="curve" smooth="yes"/>
			<point name="inserted" x="1093" y="119"/>
			<point x="1102" y="129"/>
			<point x="1102" y="138" type="curve"/>
			<point x="1102" y="157"/>
			<point x="1062" y="180"/>
			<point name="inserted" x="995" y="201" type="curve" smooth="yes"/>
			<point x="928" y="222"/>
			<point x="839" y="242"/>
			<point name="inserted" x="740" y="253" type="curve" smooth="yes"/>
			<point name="inserted" x="689" y="258"/>
			<point x="640" y="261"/>
			<point x="588" y="261" type="curve"/>
			<point x="485" y="261"/>
			<point x="384" y="250"/>
			<point name="inserted" x="297" y="231" type="curve" smooth="yes"/>
			<point x="210" y="212"/>
			<point x="142" y="190"/>
			<point name="inserted" x="104" y="169" type="curve" smooth="yes"/>
			<point name="inserted" x="84" y="157"/>
			<point x="75" y="147"/>
			<point x="75" y="138" type="curve"/>
			<point x="75" y="119"/>
			<point x="115" y="96"/>
			<point name="inserted" x="182" y="75" type="curve" smooth="yes"/>
			<point x="249" y="52"/>
			<point x="337" y="34"/>
			<point name="inserted" x="437" y="23" type="curve" smooth="yes"/>
			<point name="inserted" x="487" y="16"/>
			<point x="537" y="14"/>
		</contour>
	</outline>
</glyph>
<glyph name="u1309D" format="2">
	<unicode hex="1309D"/>
	<advance width="1506"/>
	<outline>
		<contour>
			<point x="226" y="0" type="line"/>
			<point x="127" y="43" type="line"/>
			<point x="49" y="118" type="line"/>
			<point x="81" y="164" type="line"/>
			<point x="170" y="104" type="line"/>
			<point x="185" y="93"/>
			<point x="229" y="80"/>
			<point x="258" y="73" type="curve"/>
			<point x="374" y="83" type="line"/>
			<point x="371" y="102" type="line"/>
			<point x="364" y="101"/>
			<point x="346" y="100"/>
			<point name="inserted" x="330" y="100" type="curve" smooth="yes"/>
			<point name="inserted" x="322" y="99"/>
			<point x="317" y="99"/>
			<point x="314" y="99" type="curve"/>
			<point x="301" y="99"/>
			<point x="272" y="102"/>
			<point name="inserted" x="244" y="107" type="curve" smooth="yes"/>
			<point name="inserted" x="231" y="108"/>
			<point x="219" y="112"/>
			<point x="211" y="116" type="curve"/>
			<point x="223" y="172" type="line"/>
			<point x="230" y="169"/>
			<point x="253" y="167"/>
			<point name="inserted" x="278" y="166" type="curve" smooth="yes"/>
			<point name="inserted" x="290" y="166"/>
			<point x="300" y="165"/>
			<point x="308" y="165" type="curve"/>
			<point x="321" y="165"/>
			<point x="347" y="167"/>
			<point name="inserted" x="370" y="170" type="curve" smooth="yes"/>
			<point name="inserted" x="381" y="171"/>
			<point x="389" y="173"/>
			<point x="393" y="173" type="curve"/>
			<point x="468" y="139" type="line"/>
			<point x="932" y="165" type="line"/>
			<point x="1239" y="161" type="line"/>
			<point x="1251" y="170" type="line"/>
			<point x="1277" y="580" type="line"/>
			<point x="1436" y="580" type="line"/>
			<point x="1457" y="62" type="line"/>
			<point x="1427" y="21" type="line"/>
			<point x="476" y="21" type="line"/>
			<point x="366" y="0" type="line"/>
		</contour>
		<contour>
			<point x="229" y="20" type="line"/>
			<point x="365" y="20" type="line"/>
			<point x="473" y="41" type="line"/>
			<point x="1417" y="41" type="line"/>
			<point x="1438" y="70" type="line"/>
			<point x="1418" y="561" type="line"/>
			<point x="1296" y="561" type="line"/>
			<point x="1270" y="158" type="line"/>
			<point x="1250" y="141" type="line"/>
			<point x="931" y="146" type="line"/>
			<point x="460" y="121" type="line"/>
			<point x="387" y="153" type="line"/>
			<point x="379" y="152"/>
			<point x="356" y="150"/>
			<point name="inserted" x="335" y="147" type="curve" smooth="yes"/>
			<point name="inserted" x="323" y="146"/>
			<point x="315" y="145"/>
			<point x="308" y="145" type="curve"/>
			<point x="297" y="145"/>
			<point x="274" y="146"/>
			<point name="inserted" x="255" y="149" type="curve" smooth="yes"/>
			<point name="inserted" x="244" y="149"/>
			<point x="239" y="151"/>
			<point x="235" y="151" type="curve"/>
			<point x="231" y="130" type="line"/>
			<point x="256" y="119"/>
			<point x="299" y="118"/>
			<point x="314" y="118" type="curve"/>
			<point x="321" y="118"/>
			<point x="345" y="119"/>
			<point name="inserted" x="365" y="120" type="curve" smooth="yes"/>
			<point name="inserted" x="376" y="120"/>
			<point x="382" y="121"/>
			<point x="385" y="121" type="curve"/>
			<point x="394" y="66" type="line"/>
			<point x="256" y="53" type="line"/>
			<point x="223" y="61"/>
			<point x="174" y="76"/>
			<point x="158" y="87" type="curve"/>
			<point x="84" y="137" type="line"/>
			<point x="72" y="120" type="line"/>
			<point x="137" y="61" type="line"/>
		</contour>
	</outline>
</glyph>
<glyph name="u130A7" format="2">
	<unicode hex="130A7"/>
	<advance width="1574"/>
	<outline>
		<contour>
			<point x="204" y="78" type="line"/>
			<point x="173" y="78"/>
			<point x="136" y="85"/>
			<point name="inserted" x="104" y="110" type="curve" smooth="yes"/>
			<point x="72" y="134"/>
			<point x="49" y="180"/>
			<point x="49" y="256" type="curve"/>
			<point x="49" y="332"/>
			<point x="75" y="380"/>
			<point name="inserted" x="110" y="407" type="curve" smooth="yes"/>
			<point x="145" y="434"/>
			<point x="183" y="443"/>
			<point x="207" y="443" type="curve"/>
			<point x="427" y="443" type="line"/>
			<point x="372" y="459"/>
			<point x="327" y="501"/>
			<point x="326" y="565" type="curve"/>
			<point x="325" y="586"/>
			<point x="334" y="603"/>
			<point x="363" y="603" type="curve"/>
			<point x="380" y="603"/>
			<point x="396" y="594"/>
			<point x="416" y="583" type="curve"/>
			<point x="443" y="568"/>
			<point x="477" y="550"/>
			<point x="524" y="550" type="curve"/>
			<point x="549" y="550"/>
			<point x="600" y="558"/>
			<point x="655" y="565" type="curve"/>
			<point x="721" y="574"/>
			<point x="796" y="585"/>
			<point x="842" y="585" type="curve"/>
			<point x="943" y="584"/>
			<point x="1030" y="559"/>
			<point name="inserted" x="1101" y="527" type="curve" smooth="yes"/>
			<point x="1172" y="495"/>
			<point x="1222" y="461"/>
			<point x="1250" y="444" type="curve"/>
			<point x="1525" y="492" type="line"/>
			<point x="1525" y="139" type="line"/>
			<point x="1304" y="181" type="line"/>
			<point x="1285" y="169"/>
			<point x="1255" y="145"/>
			<point name="inserted" x="1208" y="121" type="curve" smooth="yes"/>
			<point x="1160" y="97"/>
			<point x="1096" y="78"/>
			<point x="1012" y="78" type="curve"/>
		</contour>
		<contour>
			<point x="204" y="98" type="curve"/>
			<point x="1012" y="98" type="line"/>
			<point x="1095" y="98"/>
			<point x="1159" y="119"/>
			<point name="inserted" x="1207" y="144" type="curve" smooth="yes"/>
			<point x="1254" y="168"/>
			<point x="1284" y="193"/>
			<point x="1300" y="204" type="curve"/>
			<point x="1506" y="164" type="line"/>
			<point x="1506" y="466" type="line"/>
			<point x="1246" y="424" type="line"/>
			<point x="1217" y="443"/>
			<point x="1164" y="476"/>
			<point name="inserted" x="1096" y="508" type="curve" smooth="yes"/>
			<point x="1026" y="540"/>
			<point x="941" y="564"/>
			<point x="842" y="565" type="curve"/>
			<point x="798" y="566"/>
			<point x="721" y="555"/>
			<point x="658" y="546" type="curve"/>
			<point x="603" y="538"/>
			<point x="552" y="531"/>
			<point x="524" y="531" type="curve"/>
			<point x="470" y="531"/>
			<point x="435" y="550"/>
			<point x="407" y="566" type="curve"/>
			<point x="390" y="575"/>
			<point x="375" y="583"/>
			<point x="363" y="583" type="curve"/>
			<point name="inserted" x="351" y="583"/>
			<point x="345" y="577"/>
			<point x="345" y="565" type="curve"/>
			<point x="346" y="518"/>
			<point x="376" y="486"/>
			<point name="inserted" x="415" y="469" type="curve" smooth="yes"/>
			<point name="inserted" x="435" y="461"/>
			<point x="455" y="456"/>
			<point x="476" y="456" type="curve"/>
			<point x="503" y="456"/>
			<point x="529" y="466"/>
			<point name="inserted" x="565" y="474" type="curve" smooth="yes"/>
			<point name="inserted" x="584" y="477"/>
			<point x="605" y="479"/>
			<point x="629" y="479" type="curve"/>
			<point x="667" y="479"/>
			<point x="709" y="468"/>
			<point name="inserted" x="745" y="457" type="curve" smooth="yes"/>
			<point name="inserted" x="764" y="450"/>
			<point x="778" y="447"/>
			<point x="789" y="443" type="curve"/>
			<point x="883" y="443" type="line"/>
			<point x="883" y="423" type="line"/>
			<point x="207" y="423" type="line"/>
			<point x="186" y="423"/>
			<point x="151" y="415"/>
			<point name="inserted" x="122" y="391" type="curve" smooth="yes"/>
			<point x="91" y="367"/>
			<point x="68" y="324"/>
			<point x="68" y="256" type="curve"/>
			<point x="68" y="188"/>
			<point x="88" y="147"/>
			<point name="inserted" x="116" y="126" type="curve" smooth="yes"/>
			<point x="144" y="103"/>
			<point x="177" y="98"/>
		</contour>
		<contour>
			<point x="526" y="443" type="curve"/>
			<point x="725" y="443" type="line"/>
			<point x="694" y="451"/>
			<point x="660" y="459"/>
			<point x="629" y="459" type="curve"/>
			<point x="585" y="459"/>
			<point x="555" y="450"/>
		</contour>
	</outline>
</glyph>
<glyph name="u130FE" format="2">
	<unicode hex="130FE"/>
	<advance width="695"/>
	<outline>
		<contour>
			<point x="172" y="178" type="curve"/>
			<point x="143" y="178"/>
			<point x="102" y="191"/>
			<point name="inserted" x="74" y="222" type="curve" smooth="yes"/>
			<point name="inserted" x="59" y="237"/>
			<point x="52" y="255"/>
			<point x="49" y="278" type="curve"/>
			<point x="49" y="347" type="line"/>
			<point x="68" y="359"/>
			<point x="96" y="377"/>
			<point x="100" y="381" type="curve"/>
			<point name="inserted" x="103" y="384"/>
			<point x="107" y="388"/>
			<point x="112" y="393" type="curve"/>
			<point x="125" y="404"/>
			<point x="143" y="422"/>
			<point x="158" y="435" type="curve"/>
			<point x="171" y="446"/>
			<point x="183" y="453"/>
			<point x="194" y="460" type="curve"/>
			<point x="203" y="465"/>
			<point x="211" y="469"/>
			<point x="212" y="472" type="curve"/>
			<point x="242" y="521" type="line"/>
			<point x="214" y="537"/>
			<point x="178" y="559"/>
			<point name="inserted" x="146" y="592" type="curve" smooth="yes"/>
			<point x="114" y="624"/>
			<point x="91" y="669"/>
			<point x="91" y="731" type="curve"/>
			<point x="91" y="759"/>
			<point x="100" y="797"/>
			<point name="inserted" x="115" y="832" type="curve" smooth="yes"/>
			<point x="128" y="866"/>
			<point x="146" y="890"/>
			<point x="162" y="890" type="curve"/>
			<point name="inserted" x="174" y="890"/>
			<point x="180" y="883"/>
			<point x="180" y="870" type="curve"/>
			<point x="180" y="854"/>
			<point x="161" y="810"/>
			<point x="161" y="754" type="curve"/>
			<point x="161" y="703"/>
			<point x="189" y="662"/>
			<point name="inserted" x="231" y="630" type="curve" smooth="yes"/>
			<point name="inserted" x="251" y="614"/>
			<point x="272" y="601"/>
			<point x="295" y="590" type="curve"/>
			<point x="308" y="599"/>
			<point x="326" y="603"/>
			<point x="357" y="606" type="curve"/>
			<point x="386" y="607"/>
			<point x="412" y="601"/>
			<point x="435" y="590" type="curve"/>
			<point x="485" y="630"/>
			<point x="521" y="681"/>
			<point name="inserted" x="542" y="732" type="curve" smooth="yes"/>
			<point name="inserted" x="551" y="757"/>
			<point x="557" y="782"/>
			<point x="557" y="803" type="curve"/>
			<point x="557" y="820"/>
			<point x="556" y="841"/>
			<point x="556" y="862" type="curve"/>
			<point x="556" y="875"/>
			<point x="559" y="890"/>
			<point x="570" y="890" type="curve"/>
			<point x="589" y="890"/>
			<point x="606" y="863"/>
			<point name="inserted" x="615" y="825" type="curve" smooth="yes"/>
			<point name="inserted" x="619" y="805"/>
			<point x="621" y="785"/>
			<point x="621" y="764" type="curve"/>
			<point x="621" y="673"/>
			<point x="590" y="608"/>
			<point x="543" y="564" type="curve"/>
			<point x="559" y="569"/>
			<point x="576" y="572"/>
			<point x="596" y="572" type="curve"/>
			<point x="601" y="572"/>
			<point x="609" y="572"/>
			<point x="614" y="571" type="curve"/>
			<point name="inserted" x="614" y="552"/>
			<point x="612" y="536"/>
			<point x="607" y="523" type="curve"/>
			<point x="630" y="514"/>
			<point x="646" y="501"/>
			<point x="646" y="489" type="curve"/>
			<point x="646" y="469"/>
			<point x="628" y="424"/>
			<point name="inserted" x="604" y="374" type="curve" smooth="yes"/>
			<point x="580" y="324"/>
			<point x="550" y="280"/>
			<point x="526" y="260" type="curve"/>
			<point x="487" y="228"/>
			<point x="434" y="208"/>
			<point x="407" y="208" type="curve"/>
			<point x="380" y="208"/>
			<point x="353" y="213"/>
			<point x="324" y="213" type="curve"/>
			<point x="319" y="213"/>
			<point x="299" y="208"/>
			<point x="278" y="201" type="curve"/>
			<point x="243" y="192"/>
			<point x="199" y="178"/>
		</contour>
		<contour>
			<point x="172" y="197" type="curve"/>
			<point x="193" y="197"/>
			<point x="237" y="209"/>
			<point x="272" y="220" type="curve"/>
			<point x="295" y="227"/>
			<point x="316" y="232"/>
			<point x="324" y="232" type="curve"/>
			<point x="351" y="232"/>
			<point x="376" y="228"/>
			<point x="407" y="228" type="curve"/>
			<point x="431" y="228"/>
			<point x="479" y="246"/>
			<point x="514" y="274" type="curve"/>
			<point x="537" y="294"/>
			<point x="564" y="336"/>
			<point name="inserted" x="587" y="383" type="curve" smooth="yes"/>
			<point x="610" y="429"/>
			<point x="626" y="472"/>
			<point x="626" y="489" type="curve"/>
			<point name="inserted" x="626" y="493"/>
			<point x="618" y="499"/>
			<point x="601" y="507" type="curve"/>
			<point x="582" y="468"/>
			<point x="541" y="459"/>
			<point x="489" y="456" type="curve"/>
			<point x="488" y="476" type="line"/>
			<point x="523" y="477"/>
			<point x="555" y="483"/>
			<point name="inserted" x="576" y="504" type="curve" smooth="yes"/>
			<point name="inserted" x="585" y="515"/>
			<point x="593" y="531"/>
			<point x="594" y="552" type="curve"/>
			<point name="inserted" x="543" y="551"/>
			<point x="501" y="529"/>
			<point x="463" y="489" type="curve"/>
			<point x="449" y="502" type="line"/>
			<point x="458" y="513"/>
			<point x="468" y="521"/>
			<point x="480" y="532" type="curve"/>
			<point x="476" y="542" type="line"/>
			<point x="551" y="582"/>
			<point x="602" y="650"/>
			<point x="602" y="764" type="curve"/>
			<point x="602" y="815"/>
			<point x="589" y="860"/>
			<point x="573" y="871" type="curve"/>
			<point x="576" y="854"/>
			<point x="576" y="828"/>
			<point x="576" y="811" type="curve"/>
			<point x="576" y="705"/>
			<point x="518" y="634"/>
			<point x="440" y="570" type="curve"/>
			<point x="432" y="563"/>
			<point x="413" y="548"/>
			<point x="416" y="527" type="curve"/>
			<point x="396" y="527" type="line"/>
			<point x="393" y="559"/>
			<point x="413" y="575"/>
			<point x="416" y="576" type="curve"/>
			<point x="397" y="583"/>
			<point x="379" y="587"/>
			<point x="358" y="586" type="curve"/>
			<point x="312" y="583"/>
			<point x="303" y="572"/>
			<point x="288" y="555" type="curve"/>
			<point x="277" y="542"/>
			<point x="254" y="505"/>
			<point x="241" y="482" type="curve"/>
			<point x="228" y="460" type="line"/>
			<point x="224" y="456"/>
			<point x="214" y="450"/>
			<point x="205" y="443" type="curve"/>
			<point x="194" y="436"/>
			<point x="179" y="427"/>
			<point x="171" y="420" type="curve"/>
			<point x="156" y="407"/>
			<point x="138" y="390"/>
			<point x="126" y="379" type="curve"/>
			<point x="113" y="366" type="line"/>
			<point x="116" y="369"/>
			<point x="89" y="351"/>
			<point x="68" y="336" type="curve"/>
			<point x="68" y="294" type="line"/>
			<point x="104" y="248"/>
			<point x="140" y="235"/>
			<point x="178" y="235" type="curve"/>
			<point x="190" y="235"/>
			<point x="204" y="235"/>
			<point x="231" y="238" type="curve"/>
			<point x="231" y="218" type="line"/>
			<point name="inserted" x="207" y="217"/>
			<point x="189" y="215"/>
			<point x="178" y="215" type="curve"/>
			<point x="139" y="215"/>
			<point x="108" y="222"/>
			<point x="73" y="260" type="curve"/>
			<point x="90" y="217"/>
			<point x="141" y="197"/>
		</contour>
		<contour>
			<point x="252" y="537" type="curve"/>
			<point x="260" y="550"/>
			<point x="269" y="563"/>
			<point x="274" y="568" type="curve"/>
			<point x="280" y="576" type="line"/>
			<point x="234" y="596"/>
			<point x="189" y="632"/>
			<point name="inserted" x="162" y="679" type="curve" smooth="yes"/>
			<point name="inserted" x="147" y="702"/>
			<point x="141" y="727"/>
			<point x="141" y="752" type="curve"/>
			<point x="141" y="795"/>
			<point x="154" y="841"/>
			<point x="163" y="870" type="curve"/>
			<point x="150" y="867"/>
			<point x="132" y="831"/>
			<point name="inserted" x="120" y="789" type="curve" smooth="yes"/>
			<point name="inserted" x="115" y="768"/>
			<point x="111" y="748"/>
			<point x="111" y="731" type="curve"/>
			<point x="111" y="675"/>
			<point x="133" y="632"/>
			<point name="inserted" x="162" y="603" type="curve" smooth="yes"/>
			<point x="191" y="572"/>
			<point x="225" y="552"/>
		</contour>
		<contour>
			<point x="343" y="398" type="curve"/>
			<point name="inserted" x="330" y="398"/>
			<point x="319" y="402"/>
			<point x="310" y="407" type="curve"/>
			<point name="inserted" x="307" y="404"/>
			<point x="306" y="403"/>
			<point x="306" y="402" type="curve"/>
			<point x="291" y="412" type="line"/>
			<point x="302" y="429"/>
			<point x="323" y="452"/>
			<point x="343" y="452" type="curve"/>
			<point x="368" y="452"/>
			<point x="387" y="425"/>
			<point x="394" y="404" type="curve"/>
			<point x="376" y="398" type="line"/>
			<point x="373" y="405" type="line"/>
			<point name="inserted" x="365" y="401"/>
			<point x="355" y="398"/>
		</contour>
		<contour>
			<point x="343" y="417" type="curve"/>
			<point name="inserted" x="352" y="417"/>
			<point x="359" y="418"/>
			<point x="364" y="421" type="curve"/>
			<point x="359" y="428"/>
			<point x="352" y="434"/>
			<point x="343" y="434" type="curve"/>
			<point x="336" y="434"/>
			<point x="327" y="428"/>
			<point x="322" y="421" type="curve"/>
			<point name="inserted" x="327" y="418"/>
			<point x="334" y="417"/>
		</contour>
		<contour>
			<point x="146" y="255" type="line"/>
			<point x="126" y="255"/>
			<point x="113" y="273"/>
			<point x="113" y="282" type="curve"/>
			<point x="113" y="299"/>
			<point x="127" y="309"/>
			<point x="139" y="309" type="curve"/>
			<point x="156" y="309" type="line"/>
			<point x="156" y="291" type="line"/>
			<point name="inserted" x="144" y="291"/>
			<point x="138" y="289"/>
			<point x="138" y="282" type="curve"/>
			<point x="138" y="277"/>
			<point x="141" y="271"/>
			<point x="156" y="271" type="curve"/>
			<point x="156" y="255" type="line"/>
		</contour>
	</outline>
</glyph>
